<svg xmlns="http://www.w3.org/2000/svg" version="1.1"
     xmlns:xlink="http://www.w3.org/1999/xlink"
 width="2810" height="1280" viewBox="0 0 2810 1280">
  <defs>
    <marker id="arrow" markerWidth="10" markerHeight="10" refX="9" refY="3" orient="auto" markerUnits="strokeWidth">
      <path d="M0,0 L0,6 L9,3 z" fill="#55606c"/>
    </marker>
  </defs>
  <rect x="0" y="0" width="100%" height="100%" fill="#ffffff"/>
  <polyline fill="none" stroke="#55606c" stroke-width="2" marker-end="url(#arrow)" points="156,380 220,380 220,440 320,440"/>
  <polyline fill="none" stroke="#55606c" stroke-width="2" marker-end="url(#arrow)" points="370,440 440,440 440,560 540,560"/>
  <polyline fill="none" stroke="#55606c" stroke-width="2" marker-end="url(#arrow)" points="370,460 460,460 460,400 540,400"/>
  <polyline fill="none" stroke="#55606c" stroke-width="2" marker-end="url(#arrow)" points="640,560 720,560 720,600 820,600"/>
  <polyline fill="none" stroke="#55606c" stroke-width="2" marker-end="url(#arrow)" points="640,400 720,400 720,440 820,440"/>
  <polyline fill="none" stroke="#55606c" stroke-width="2" marker-end="url(#arrow)" points="870,600 940,600 940,540 1040,540"/>
  <polyline fill="none" stroke="#55606c" stroke-width="2" marker-end="url(#arrow)" points="870,620 960,620 960,700 1040,700"/>
  <polyline fill="none" stroke="#55606c" stroke-width="2" marker-end="url(#arrow)" points="1140,540 1300,540"/>
  <polyline fill="none" stroke="#55606c" stroke-width="2" marker-end="url(#arrow)" points="1140,700 1220,700 1220,560 1300,560"/>
  <polyline fill="none" stroke="#55606c" stroke-width="2" marker-end="url(#arrow)" points="1350,540 1400,540 1400,920 780,920 780,460 820,460"/>
  <polyline fill="none" stroke="#55606c" stroke-width="2" marker-end="url(#arrow)" points="870,440 980,440 980,360 1040,360"/>
  <polyline fill="none" stroke="#55606c" stroke-width="2" marker-end="url(#arrow)" points="1140,360 1300,360"/>
  <polyline fill="none" stroke="#55606c" stroke-width="2" marker-end="url(#arrow)" points="1400,360 1480,360 1480,460 1580,460"/>
  <polyline fill="none" stroke="#55606c" stroke-width="2" marker-end="url(#arrow)" points="1630,460 1700,460 1700,440 1800,440"/>
  <polyline fill="none" stroke="#55606c" stroke-width="2" marker-end="url(#arrow)" points="1630,480 1720,480 1720,600 1800,600"/>
  <polyline fill="none" stroke="#55606c" stroke-width="2" marker-end="url(#arrow)" points="1900,440 1980,440 1980,540 2060,540"/>
  <polyline fill="none" stroke="#55606c" stroke-width="2" marker-end="url(#arrow)" points="2110,540 2180,540 2180,520 2280,520"/>
  <polyline fill="none" stroke="#55606c" stroke-width="2" marker-end="url(#arrow)" points="2110,560 2200,560 2200,680 2280,680"/>
  <polyline fill="none" stroke="#55606c" stroke-width="2" marker-end="url(#arrow)" points="2380,520 2460,520 2460,600 2560,600"/>
  <polyline fill="none" stroke="#55606c" stroke-width="2" marker-end="url(#arrow)" points="2380,680 2460,680 2460,620 2560,620"/>
  <polyline fill="none" stroke="#55606c" stroke-width="2" marker-end="url(#arrow)" points="1900,600 1980,600 1980,660 2060,660"/>
  <polyline fill="none" stroke="#55606c" stroke-width="2" marker-end="url(#arrow)" points="2610,600 2660,600 2660,1020 2000,1020 2000,680 2060,680"/>
  <polyline fill="none" stroke="#55606c" stroke-width="2" marker-end="url(#arrow)" points="2110,660 2220,660 2220,820 2280,820"/>
  <circle cx="138" cy="378" r="18" fill="#ffffff" stroke="#203040" stroke-width="3"/>
  <text x="138" y="418" font-family="Segoe UI, Arial, sans-serif" font-size="12" text-anchor="middle" fill="#203040">Default_init</text>
  <polygon points="345,420 370,445 345,470 320,445" fill="#fff7e0" stroke="#8a6d1f" stroke-width="2"/>
  <text x="345" y="492" font-family="Segoe UI, Arial, sans-serif" font-size="12" text-anchor="middle" fill="#203040">PAR</text>
  <rect x="540" y="520" width="100" height="80" rx="12" ry="12" fill="#f6fbff" stroke="#2b5876" stroke-width="2"/>
  <text x="590" y="622" font-family="Segoe UI, Arial, sans-serif" font-size="12" text-anchor="middle" fill="#203040">Define campaign objectives</text>
  <rect x="540" y="360" width="100" height="80" rx="12" ry="12" fill="#f6fbff" stroke="#2b5876" stroke-width="2"/>
  <text x="590" y="462" font-family="Segoe UI, Arial, sans-serif" font-size="12" text-anchor="middle" fill="#203040">Design visuals</text>
  <polygon points="845,580 870,605 845,630 820,605" fill="#fff7e0" stroke="#8a6d1f" stroke-width="2"/>
  <text x="845" y="652" font-family="Segoe UI, Arial, sans-serif" font-size="12" text-anchor="middle" fill="#203040">PAR</text>
  <rect x="1040" y="500" width="100" height="80" rx="12" ry="12" fill="#f6fbff" stroke="#2b5876" stroke-width="2"/>
  <text x="1090" y="602" font-family="Segoe UI, Arial, sans-serif" font-size="12" text-anchor="middle" fill="#203040">Create content</text>
  <rect x="1040" y="660" width="100" height="80" rx="12" ry="12" fill="#f6fbff" stroke="#2b5876" stroke-width="2"/>
  <text x="1090" y="762" font-family="Segoe UI, Arial, sans-serif" font-size="12" text-anchor="middle" fill="#203040">Select promotion channels</text>
  <polygon points="1325,520 1350,545 1325,570 1300,545" fill="#fff7e0" stroke="#8a6d1f" stroke-width="2"/>
  <text x="1325" y="592" font-family="Segoe UI, Arial, sans-serif" font-size="12" text-anchor="middle" fill="#203040">PARCLOSE8</text>
  <polygon points="845,420 870,445 845,470 820,445" fill="#fff7e0" stroke="#8a6d1f" stroke-width="2"/>
  <text x="845" y="492" font-family="Segoe UI, Arial, sans-serif" font-size="12" text-anchor="middle" fill="#203040">PARCLOSE9</text>
  <rect x="1040" y="320" width="100" height="80" rx="12" ry="12" fill="#f6fbff" stroke="#2b5876" stroke-width="2"/>
  <text x="1090" y="422" font-family="Segoe UI, Arial, sans-serif" font-size="12" text-anchor="middle" fill="#203040">Launch campaign</text>
  <rect x="1300" y="320" width="100" height="80" rx="12" ry="12" fill="#f6fbff" stroke="#2b5876" stroke-width="2"/>
  <text x="1350" y="422" font-family="Segoe UI, Arial, sans-serif" font-size="12" text-anchor="middle" fill="#203040">Track performance in real-time</text>
  <polygon points="1605,440 1630,465 1605,490 1580,465" fill="#fff7e0" stroke="#8a6d1f" stroke-width="2"/>
  <text x="1605" y="512" font-family="Segoe UI, Arial, sans-serif" font-size="12" text-anchor="middle" fill="#203040">PAR</text>
  <rect x="1800" y="400" width="100" height="80" rx="12" ry="12" fill="#f6fbff" stroke="#2b5876" stroke-width="2"/>
  <text x="1850" y="502" font-family="Segoe UI, Arial, sans-serif" font-size="12" text-anchor="middle" fill="#203040">Collect leads in CRM system</text>
  <polygon points="2085,520 2110,545 2085,570 2060,545" fill="#fff7e0" stroke="#8a6d1f" stroke-width="2"/>
  <text x="2085" y="592" font-family="Segoe UI, Arial, sans-serif" font-size="12" text-anchor="middle" fill="#203040">PAR</text>
  <rect x="2280" y="480" width="100" height="80" rx="12" ry="12" fill="#f6fbff" stroke="#2b5876" stroke-width="2"/>
  <text x="2330" y="582" font-family="Segoe UI, Arial, sans-serif" font-size="12" text-anchor="middle" fill="#203040">Sales teams follows up on leads</text>
  <rect x="2280" y="640" width="100" height="80" rx="12" ry="12" fill="#f6fbff" stroke="#2b5876" stroke-width="2"/>
  <text x="2330" y="742" font-family="Segoe UI, Arial, sans-serif" font-size="12" text-anchor="middle" fill="#203040">Analyze performance for futur...</text>
  <rect x="1800" y="560" width="100" height="80" rx="12" ry="12" fill="#f6fbff" stroke="#2b5876" stroke-width="2"/>
  <text x="1850" y="662" font-family="Segoe UI, Arial, sans-serif" font-size="12" text-anchor="middle" fill="#203040">Campaign period ends</text>
  <polygon points="2585,580 2610,605 2585,630 2560,605" fill="#fff7e0" stroke="#8a6d1f" stroke-width="2"/>
  <text x="2585" y="652" font-family="Segoe UI, Arial, sans-serif" font-size="12" text-anchor="middle" fill="#203040">PARCLOSE18</text>
  <polygon points="2085,640 2110,665 2085,690 2060,665" fill="#fff7e0" stroke="#8a6d1f" stroke-width="2"/>
  <text x="2085" y="712" font-family="Segoe UI, Arial, sans-serif" font-size="12" text-anchor="middle" fill="#203040">PARCLOSE19</text>
  <circle cx="2298" cy="818" r="18" fill="#ffffff" stroke="#203040" stroke-width="3"/>
  <text x="2298" y="858" font-family="Segoe UI, Arial, sans-serif" font-size="12" text-anchor="middle" fill="#203040">END_EVENT</text>
</svg>
