<svg xmlns="http://www.w3.org/2000/svg" version="1.1"
     xmlns:xlink="http://www.w3.org/1999/xlink"
 width="3170" height="1600" viewBox="0 0 3170 1600">
  <defs>
    <marker id="arrow" markerWidth="10" markerHeight="10" refX="9" refY="3" orient="auto" markerUnits="strokeWidth">
      <path d="M0,0 L0,6 L9,3 z" fill="#55606c"/>
    </marker>
  </defs>
  <rect x="0" y="0" width="100%" height="100%" fill="#ffffff"/>
  <polyline fill="none" stroke="#55606c" stroke-width="2" marker-end="url(#arrow)" points="156,420 220,420 220,480 320,480"/>
  <polyline fill="none" stroke="#55606c" stroke-width="2" marker-end="url(#arrow)" points="370,480 440,480 440,400 540,400"/>
  <polyline fill="none" stroke="#55606c" stroke-width="2" marker-end="url(#arrow)" points="370,500 460,500 460,700 540,700"/>
  <polyline fill="none" stroke="#55606c" stroke-width="2" marker-end="url(#arrow)" points="640,400 820,400"/>
  <polyline fill="none" stroke="#55606c" stroke-width="2" marker-end="url(#arrow)" points="920,400 1000,400 1000,520 1080,520"/>
  <polyline fill="none" stroke="#55606c" stroke-width="2" marker-end="url(#arrow)" points="590,700 680,700 680,880 820,880"/>
  <polyline fill="none" stroke="#55606c" stroke-width="2" marker-end="url(#arrow)" points="590,720 820,720"/>
  <polyline fill="none" stroke="#55606c" stroke-width="2" marker-end="url(#arrow)" points="920,880 1000,880 1000,960 1080,960"/>
  <polyline fill="none" stroke="#55606c" stroke-width="2" marker-end="url(#arrow)" points="920,720 1020,720 1020,800 1080,800"/>
  <polyline fill="none" stroke="#55606c" stroke-width="2" marker-end="url(#arrow)" points="1130,520 1200,520 1200,500 1300,500"/>
  <polyline fill="none" stroke="#55606c" stroke-width="2" marker-end="url(#arrow)" points="1130,540 1220,540 1220,660 1300,660"/>
  <polyline fill="none" stroke="#55606c" stroke-width="2" marker-end="url(#arrow)" points="1400,500 1580,500"/>
  <polyline fill="none" stroke="#55606c" stroke-width="2" marker-end="url(#arrow)" points="1400,660 1480,660 1480,680 1580,680"/>
  <polyline fill="none" stroke="#55606c" stroke-width="2" marker-end="url(#arrow)" points="1130,960 1240,960 1240,940 1300,940"/>
  <polyline fill="none" stroke="#55606c" stroke-width="2" marker-end="url(#arrow)" points="1130,980 1260,980 1260,900 1300,900"/>
  <polyline fill="none" stroke="#55606c" stroke-width="2" marker-end="url(#arrow)" points="1400,940 1480,940 1480,920 1300,920"/>
  <polyline fill="none" stroke="#55606c" stroke-width="2" marker-end="url(#arrow)" points="1680,500 1760,500 1760,600 1840,600"/>
  <polyline fill="none" stroke="#55606c" stroke-width="2" marker-end="url(#arrow)" points="1680,680 1760,680 1760,760 1840,760"/>
  <polyline fill="none" stroke="#55606c" stroke-width="2" marker-end="url(#arrow)" points="1350,900 1400,900 1400,1240 1040,1240 1040,820 1080,820"/>
  <polyline fill="none" stroke="#55606c" stroke-width="2" marker-end="url(#arrow)" points="1940,600 2020,600 2020,640 2120,640"/>
  <polyline fill="none" stroke="#55606c" stroke-width="2" marker-end="url(#arrow)" points="1940,760 2020,760 2020,880 2120,880"/>
  <polyline fill="none" stroke="#55606c" stroke-width="2" marker-end="url(#arrow)" points="1130,800 1280,800 1280,820 1300,820"/>
  <polyline fill="none" stroke="#55606c" stroke-width="2" marker-end="url(#arrow)" points="2220,640 2300,640 2300,920 2380,920"/>
  <polyline fill="none" stroke="#55606c" stroke-width="2" marker-end="url(#arrow)" points="2480,920 2560,920 2560,1100 2660,1100"/>
  <polyline fill="none" stroke="#55606c" stroke-width="2" marker-end="url(#arrow)" points="2760,1100 2820,1100 2820,1340 2060,1340 2060,900 2120,900"/>
  <polyline fill="none" stroke="#55606c" stroke-width="2" marker-end="url(#arrow)" points="2170,880 2260,880 2260,860 2380,860"/>
  <polyline fill="none" stroke="#55606c" stroke-width="2" marker-end="url(#arrow)" points="2430,860 2520,860 2520,780 2660,780"/>
  <polyline fill="none" stroke="#55606c" stroke-width="2" marker-end="url(#arrow)" points="2430,880 2540,880 2540,940 2660,940"/>
  <polyline fill="none" stroke="#55606c" stroke-width="2" marker-end="url(#arrow)" points="2760,780 2840,780 2840,840 2920,840"/>
  <polyline fill="none" stroke="#55606c" stroke-width="2" marker-end="url(#arrow)" points="2760,940 2840,940 2840,860 2920,860"/>
  <polyline fill="none" stroke="#55606c" stroke-width="2" marker-end="url(#arrow)" points="2970,840 3040,840 3040,1420 1220,1420 1220,840 1300,840"/>
  <polyline fill="none" stroke="#55606c" stroke-width="2" marker-end="url(#arrow)" points="1350,820 1580,820"/>
  <circle cx="138" cy="418" r="18" fill="#ffffff" stroke="#203040" stroke-width="3"/>
  <text x="138" y="458" font-family="Segoe UI, Arial, sans-serif" font-size="12" text-anchor="middle" fill="#203040">Default_init</text>
  <polygon points="345,460 370,485 345,510 320,485" fill="#fff7e0" stroke="#8a6d1f" stroke-width="2"/>
  <text x="345" y="532" font-family="Segoe UI, Arial, sans-serif" font-size="12" text-anchor="middle" fill="#203040">PAR</text>
  <rect x="540" y="360" width="100" height="80" rx="12" ry="12" fill="#f6fbff" stroke="#2b5876" stroke-width="2"/>
  <text x="590" y="462" font-family="Segoe UI, Arial, sans-serif" font-size="12" text-anchor="middle" fill="#203040">Initial Nursing Triage</text>
  <rect x="820" y="360" width="100" height="80" rx="12" ry="12" fill="#f6fbff" stroke="#2b5876" stroke-width="2"/>
  <text x="870" y="462" font-family="Segoe UI, Arial, sans-serif" font-size="12" text-anchor="middle" fill="#203040">Patient Arrival</text>
  <polygon points="565,680 590,705 565,730 540,705" fill="#fff7e0" stroke="#8a6d1f" stroke-width="2"/>
  <text x="565" y="752" font-family="Segoe UI, Arial, sans-serif" font-size="12" text-anchor="middle" fill="#203040">PAR</text>
  <rect x="820" y="840" width="100" height="80" rx="12" ry="12" fill="#f6fbff" stroke="#2b5876" stroke-width="2"/>
  <text x="870" y="942" font-family="Segoe UI, Arial, sans-serif" font-size="12" text-anchor="middle" fill="#203040">Physician Analyze Symptoms</text>
  <rect x="820" y="680" width="100" height="80" rx="12" ry="12" fill="#f6fbff" stroke="#2b5876" stroke-width="2"/>
  <text x="870" y="782" font-family="Segoe UI, Arial, sans-serif" font-size="12" text-anchor="middle" fill="#203040">Handle Insurance Authorization</text>
  <polygon points="1105,500 1130,525 1105,550 1080,525" fill="#fff7e0" stroke="#8a6d1f" stroke-width="2"/>
  <text x="1105" y="572" font-family="Segoe UI, Arial, sans-serif" font-size="12" text-anchor="middle" fill="#203040">PAR</text>
  <rect x="1300" y="460" width="100" height="80" rx="12" ry="12" fill="#f6fbff" stroke="#2b5876" stroke-width="2"/>
  <text x="1350" y="562" font-family="Segoe UI, Arial, sans-serif" font-size="12" text-anchor="middle" fill="#203040">Administrative Registration</text>
  <rect x="1300" y="620" width="100" height="80" rx="12" ry="12" fill="#f6fbff" stroke="#2b5876" stroke-width="2"/>
  <text x="1350" y="722" font-family="Segoe UI, Arial, sans-serif" font-size="12" text-anchor="middle" fill="#203040">Monitor Costs and Approvals</text>
  <polygon points="1105,940 1130,965 1105,990 1080,965" fill="#fff7e0" stroke="#8a6d1f" stroke-width="2"/>
  <text x="1105" y="1012" font-family="Segoe UI, Arial, sans-serif" font-size="12" text-anchor="middle" fill="#203040">G0</text>
  <rect x="1300" y="900" width="100" height="80" rx="12" ry="12" fill="#f6fbff" stroke="#2b5876" stroke-width="2"/>
  <text x="1350" y="1002" font-family="Segoe UI, Arial, sans-serif" font-size="12" text-anchor="middle" fill="#203040">Prepare Hospitalization Proce...</text>
  <rect x="1580" y="460" width="100" height="80" rx="12" ry="12" fill="#f6fbff" stroke="#2b5876" stroke-width="2"/>
  <text x="1630" y="562" font-family="Segoe UI, Arial, sans-serif" font-size="12" text-anchor="middle" fill="#203040">Request Exams</text>
  <rect x="1580" y="640" width="100" height="80" rx="12" ry="12" fill="#f6fbff" stroke="#2b5876" stroke-width="2"/>
  <text x="1630" y="742" font-family="Segoe UI, Arial, sans-serif" font-size="12" text-anchor="middle" fill="#203040">Administer Initial Medication</text>
  <polygon points="1325,880 1350,905 1325,930 1300,905" fill="#fff7e0" stroke="#8a6d1f" stroke-width="2"/>
  <text x="1325" y="952" font-family="Segoe UI, Arial, sans-serif" font-size="12" text-anchor="middle" fill="#203040">XORCLOSE15</text>
  <rect x="1840" y="560" width="100" height="80" rx="12" ry="12" fill="#f6fbff" stroke="#2b5876" stroke-width="2"/>
  <text x="1890" y="662" font-family="Segoe UI, Arial, sans-serif" font-size="12" text-anchor="middle" fill="#203040">Process Exams</text>
  <rect x="1840" y="720" width="100" height="80" rx="12" ry="12" fill="#f6fbff" stroke="#2b5876" stroke-width="2"/>
  <text x="1890" y="822" font-family="Segoe UI, Arial, sans-serif" font-size="12" text-anchor="middle" fill="#203040">Treatment in Progress</text>
  <polygon points="1105,780 1130,805 1105,830 1080,805" fill="#fff7e0" stroke="#8a6d1f" stroke-width="2"/>
  <text x="1105" y="852" font-family="Segoe UI, Arial, sans-serif" font-size="12" text-anchor="middle" fill="#203040">PARCLOSE18</text>
  <rect x="2120" y="600" width="100" height="80" rx="12" ry="12" fill="#f6fbff" stroke="#2b5876" stroke-width="2"/>
  <text x="2170" y="702" font-family="Segoe UI, Arial, sans-serif" font-size="12" text-anchor="middle" fill="#203040">Revise Diagnosis</text>
  <rect x="2380" y="880" width="100" height="80" rx="12" ry="12" fill="#f6fbff" stroke="#2b5876" stroke-width="2"/>
  <text x="2430" y="982" font-family="Segoe UI, Arial, sans-serif" font-size="12" text-anchor="middle" fill="#203040">Consult Specialist</text>
  <rect x="2660" y="1060" width="100" height="80" rx="12" ry="12" fill="#f6fbff" stroke="#2b5876" stroke-width="2"/>
  <text x="2710" y="1162" font-family="Segoe UI, Arial, sans-serif" font-size="12" text-anchor="middle" fill="#203040">Request Additional Exams</text>
  <polygon points="2145,860 2170,885 2145,910 2120,885" fill="#fff7e0" stroke="#8a6d1f" stroke-width="2"/>
  <text x="2145" y="932" font-family="Segoe UI, Arial, sans-serif" font-size="12" text-anchor="middle" fill="#203040">PARCLOSE22</text>
  <polygon points="2405,840 2430,865 2405,890 2380,865" fill="#fff7e0" stroke="#8a6d1f" stroke-width="2"/>
  <text x="2405" y="912" font-family="Segoe UI, Arial, sans-serif" font-size="12" text-anchor="middle" fill="#203040">PAR</text>
  <rect x="2660" y="740" width="100" height="80" rx="12" ry="12" fill="#f6fbff" stroke="#2b5876" stroke-width="2"/>
  <text x="2710" y="842" font-family="Segoe UI, Arial, sans-serif" font-size="12" text-anchor="middle" fill="#203040">Deliver Final Instructions</text>
  <rect x="2660" y="900" width="100" height="80" rx="12" ry="12" fill="#f6fbff" stroke="#2b5876" stroke-width="2"/>
  <text x="2710" y="1002" font-family="Segoe UI, Arial, sans-serif" font-size="12" text-anchor="middle" fill="#203040">Prepare Discharge Procedures</text>
  <polygon points="2945,820 2970,845 2945,870 2920,845" fill="#fff7e0" stroke="#8a6d1f" stroke-width="2"/>
  <text x="2945" y="892" font-family="Segoe UI, Arial, sans-serif" font-size="12" text-anchor="middle" fill="#203040">PARCLOSE26</text>
  <polygon points="1325,800 1350,825 1325,850 1300,825" fill="#fff7e0" stroke="#8a6d1f" stroke-width="2"/>
  <text x="1325" y="872" font-family="Segoe UI, Arial, sans-serif" font-size="12" text-anchor="middle" fill="#203040">PARCLOSE27</text>
  <circle cx="1598" cy="818" r="18" fill="#ffffff" stroke="#203040" stroke-width="3"/>
  <text x="1598" y="858" font-family="Segoe UI, Arial, sans-serif" font-size="12" text-anchor="middle" fill="#203040">END_EVENT</text>
</svg>
