<svg xmlns="http://www.w3.org/2000/svg" version="1.1"
     xmlns:xlink="http://www.w3.org/1999/xlink"
 width="3876" height="1400" viewBox="0 0 3876 1400">
  <defs>
    <marker id="arrow" markerWidth="10" markerHeight="10" refX="9" refY="3" orient="auto" markerUnits="strokeWidth">
      <path d="M0,0 L0,6 L9,3 z" fill="#55606c"/>
    </marker>
  </defs>
  <rect x="0" y="0" width="100%" height="100%" fill="#ffffff"/>
  <polyline fill="none" stroke="#55606c" stroke-width="2" marker-end="url(#arrow)" points="156,480 220,480 220,540 320,540"/>
  <polyline fill="none" stroke="#55606c" stroke-width="2" marker-end="url(#arrow)" points="370,540 440,540 440,500 540,500"/>
  <polyline fill="none" stroke="#55606c" stroke-width="2" marker-end="url(#arrow)" points="370,560 460,560 460,660 540,660"/>
  <polyline fill="none" stroke="#55606c" stroke-width="2" marker-end="url(#arrow)" points="640,500 820,500"/>
  <polyline fill="none" stroke="#55606c" stroke-width="2" marker-end="url(#arrow)" points="640,660 820,660"/>
  <polyline fill="none" stroke="#55606c" stroke-width="2" marker-end="url(#arrow)" points="920,660 1000,660 1000,740 1080,740"/>
  <polyline fill="none" stroke="#55606c" stroke-width="2" marker-end="url(#arrow)" points="1180,740 1260,740 1260,620 1080,620"/>
  <polyline fill="none" stroke="#55606c" stroke-width="2" marker-end="url(#arrow)" points="920,500 1000,500 1000,640 1080,640"/>
  <polyline fill="none" stroke="#55606c" stroke-width="2" marker-end="url(#arrow)" points="1130,620 1360,620"/>
  <polyline fill="none" stroke="#55606c" stroke-width="2" marker-end="url(#arrow)" points="1460,620 1540,620 1540,660 1620,660"/>
  <polyline fill="none" stroke="#55606c" stroke-width="2" marker-end="url(#arrow)" points="1670,660 1740,660 1740,600 1840,600"/>
  <polyline fill="none" stroke="#55606c" stroke-width="2" marker-end="url(#arrow)" points="1670,680 1760,680 1760,760 1840,760"/>
  <polyline fill="none" stroke="#55606c" stroke-width="2" marker-end="url(#arrow)" points="1940,600 2020,600 2020,620 2120,620"/>
  <polyline fill="none" stroke="#55606c" stroke-width="2" marker-end="url(#arrow)" points="1890,760 1980,760 1980,740 2120,740"/>
  <polyline fill="none" stroke="#55606c" stroke-width="2" marker-end="url(#arrow)" points="1890,780 2000,780 2000,900 2120,900"/>
  <polyline fill="none" stroke="#55606c" stroke-width="2" marker-end="url(#arrow)" points="2220,740 2380,740"/>
  <polyline fill="none" stroke="#55606c" stroke-width="2" marker-end="url(#arrow)" points="2220,900 2300,900 2300,760 2380,760"/>
  <polyline fill="none" stroke="#55606c" stroke-width="2" marker-end="url(#arrow)" points="2430,740 2480,740 2480,1040 2080,1040 2080,640 2120,640"/>
  <polyline fill="none" stroke="#55606c" stroke-width="2" marker-end="url(#arrow)" points="2170,620 2280,620 2280,560 2380,560"/>
  <polyline fill="none" stroke="#55606c" stroke-width="2" marker-end="url(#arrow)" points="2430,560 2500,560 2500,460 2600,460"/>
  <polyline fill="none" stroke="#55606c" stroke-width="2" marker-end="url(#arrow)" points="2430,580 2520,580 2520,620 2600,620"/>
  <polyline fill="none" stroke="#55606c" stroke-width="2" marker-end="url(#arrow)" points="2700,460 2880,460"/>
  <polyline fill="none" stroke="#55606c" stroke-width="2" marker-end="url(#arrow)" points="2700,620 2780,620 2780,480 2880,480"/>
  <polyline fill="none" stroke="#55606c" stroke-width="2" marker-end="url(#arrow)" points="2930,460 3000,460 3000,320 3100,320"/>
  <polyline fill="none" stroke="#55606c" stroke-width="2" marker-end="url(#arrow)" points="3200,320 3280,320 3280,240 3360,240"/>
  <polyline fill="none" stroke="#55606c" stroke-width="2" marker-end="url(#arrow)" points="3460,240 3540,240 3540,200 3640,200"/>
  <circle cx="138" cy="478" r="18" fill="#ffffff" stroke="#203040" stroke-width="3"/>
  <text x="138" y="518" font-family="Segoe UI, Arial, sans-serif" font-size="12" text-anchor="middle" fill="#203040">Default_init</text>
  <polygon points="345,520 370,545 345,570 320,545" fill="#fff7e0" stroke="#8a6d1f" stroke-width="2"/>
  <text x="345" y="592" font-family="Segoe UI, Arial, sans-serif" font-size="12" text-anchor="middle" fill="#203040">PAR</text>
  <rect x="540" y="460" width="100" height="80" rx="12" ry="12" fill="#f6fbff" stroke="#2b5876" stroke-width="2"/>
  <text x="590" y="562" font-family="Segoe UI, Arial, sans-serif" font-size="12" text-anchor="middle" fill="#203040">Select date and time</text>
  <rect x="540" y="620" width="100" height="80" rx="12" ry="12" fill="#f6fbff" stroke="#2b5876" stroke-width="2"/>
  <text x="590" y="722" font-family="Segoe UI, Arial, sans-serif" font-size="12" text-anchor="middle" fill="#203040">Provide payment details</text>
  <rect x="820" y="620" width="100" height="80" rx="12" ry="12" fill="#f6fbff" stroke="#2b5876" stroke-width="2"/>
  <text x="870" y="722" font-family="Segoe UI, Arial, sans-serif" font-size="12" text-anchor="middle" fill="#203040">Customer searches for ticket</text>
  <rect x="1080" y="700" width="100" height="80" rx="12" ry="12" fill="#f6fbff" stroke="#2b5876" stroke-width="2"/>
  <text x="1130" y="802" font-family="Segoe UI, Arial, sans-serif" font-size="12" text-anchor="middle" fill="#203040">Select route</text>
  <rect x="820" y="460" width="100" height="80" rx="12" ry="12" fill="#f6fbff" stroke="#2b5876" stroke-width="2"/>
  <text x="870" y="562" font-family="Segoe UI, Arial, sans-serif" font-size="12" text-anchor="middle" fill="#203040">Provide personal information</text>
  <polygon points="1105,600 1130,625 1105,650 1080,625" fill="#fff7e0" stroke="#8a6d1f" stroke-width="2"/>
  <text x="1105" y="672" font-family="Segoe UI, Arial, sans-serif" font-size="12" text-anchor="middle" fill="#203040">PARCLOSE10</text>
  <rect x="1360" y="580" width="100" height="80" rx="12" ry="12" fill="#f6fbff" stroke="#2b5876" stroke-width="2"/>
  <text x="1410" y="682" font-family="Segoe UI, Arial, sans-serif" font-size="12" text-anchor="middle" fill="#203040">Generate ticket</text>
  <polygon points="1645,640 1670,665 1645,690 1620,665" fill="#fff7e0" stroke="#8a6d1f" stroke-width="2"/>
  <text x="1645" y="712" font-family="Segoe UI, Arial, sans-serif" font-size="12" text-anchor="middle" fill="#203040">PAR</text>
  <rect x="1840" y="560" width="100" height="80" rx="12" ry="12" fill="#f6fbff" stroke="#2b5876" stroke-width="2"/>
  <text x="1890" y="662" font-family="Segoe UI, Arial, sans-serif" font-size="12" text-anchor="middle" fill="#203040">Update seat inventory</text>
  <polygon points="1865,740 1890,765 1865,790 1840,765" fill="#fff7e0" stroke="#8a6d1f" stroke-width="2"/>
  <text x="1865" y="812" font-family="Segoe UI, Arial, sans-serif" font-size="12" text-anchor="middle" fill="#203040">G0</text>
  <rect x="2120" y="700" width="100" height="80" rx="12" ry="12" fill="#f6fbff" stroke="#2b5876" stroke-width="2"/>
  <text x="2170" y="802" font-family="Segoe UI, Arial, sans-serif" font-size="12" text-anchor="middle" fill="#203040">Send ticket via email</text>
  <rect x="2120" y="860" width="100" height="80" rx="12" ry="12" fill="#f6fbff" stroke="#2b5876" stroke-width="2"/>
  <text x="2170" y="962" font-family="Segoe UI, Arial, sans-serif" font-size="12" text-anchor="middle" fill="#203040">Send ticket via SMS</text>
  <polygon points="2405,720 2430,745 2405,770 2380,745" fill="#fff7e0" stroke="#8a6d1f" stroke-width="2"/>
  <text x="2405" y="792" font-family="Segoe UI, Arial, sans-serif" font-size="12" text-anchor="middle" fill="#203040">XORCLOSE17</text>
  <polygon points="2145,600 2170,625 2145,650 2120,625" fill="#fff7e0" stroke="#8a6d1f" stroke-width="2"/>
  <text x="2145" y="672" font-family="Segoe UI, Arial, sans-serif" font-size="12" text-anchor="middle" fill="#203040">PARCLOSE18</text>
  <polygon points="2405,540 2430,565 2405,590 2380,565" fill="#fff7e0" stroke="#8a6d1f" stroke-width="2"/>
  <text x="2405" y="612" font-family="Segoe UI, Arial, sans-serif" font-size="12" text-anchor="middle" fill="#203040">G1</text>
  <rect x="2600" y="420" width="100" height="80" rx="12" ry="12" fill="#f6fbff" stroke="#2b5876" stroke-width="2"/>
  <text x="2650" y="522" font-family="Segoe UI, Arial, sans-serif" font-size="12" text-anchor="middle" fill="#203040">Send reminder</text>
  <rect x="2600" y="580" width="100" height="80" rx="12" ry="12" fill="#f6fbff" stroke="#2b5876" stroke-width="2"/>
  <text x="2650" y="682" font-family="Segoe UI, Arial, sans-serif" font-size="12" text-anchor="middle" fill="#203040">Send instructions</text>
  <polygon points="2905,440 2930,465 2905,490 2880,465" fill="#fff7e0" stroke="#8a6d1f" stroke-width="2"/>
  <text x="2905" y="512" font-family="Segoe UI, Arial, sans-serif" font-size="12" text-anchor="middle" fill="#203040">XORCLOSE22</text>
  <rect x="3100" y="280" width="100" height="80" rx="12" ry="12" fill="#f6fbff" stroke="#2b5876" stroke-width="2"/>
  <text x="3150" y="382" font-family="Segoe UI, Arial, sans-serif" font-size="12" text-anchor="middle" fill="#203040">Customer completes journey</text>
  <rect x="3360" y="200" width="100" height="80" rx="12" ry="12" fill="#f6fbff" stroke="#2b5876" stroke-width="2"/>
  <text x="3410" y="302" font-family="Segoe UI, Arial, sans-serif" font-size="12" text-anchor="middle" fill="#203040">Post-travel feedback or services</text>
  <circle cx="3658" cy="198" r="18" fill="#ffffff" stroke="#203040" stroke-width="3"/>
  <text x="3658" y="238" font-family="Segoe UI, Arial, sans-serif" font-size="12" text-anchor="middle" fill="#203040">END_EVENT</text>
</svg>
