<svg xmlns="http://www.w3.org/2000/svg" version="1.1"
     xmlns:xlink="http://www.w3.org/1999/xlink"
 width="2616" height="2400" viewBox="0 0 2616 2400">
  <defs>
    <marker id="arrow" markerWidth="10" markerHeight="10" refX="9" refY="3" orient="auto" markerUnits="strokeWidth">
      <path d="M0,0 L0,6 L9,3 z" fill="#55606c"/>
    </marker>
  </defs>
  <rect x="0" y="0" width="100%" height="100%" fill="#ffffff"/>
  <polyline fill="none" stroke="#55606c" stroke-width="2" marker-end="url(#arrow)" points="156,460 220,460 220,560 320,560"/>
  <polyline fill="none" stroke="#55606c" stroke-width="2" marker-end="url(#arrow)" points="370,560 440,560 440,540 540,540"/>
  <polyline fill="none" stroke="#55606c" stroke-width="2" marker-end="url(#arrow)" points="370,580 460,580 460,700 540,700"/>
  <polyline fill="none" stroke="#55606c" stroke-width="2" marker-end="url(#arrow)" points="640,540 720,540 720,740 820,740"/>
  <polyline fill="none" stroke="#55606c" stroke-width="2" marker-end="url(#arrow)" points="640,700 720,700 720,1000 820,1000"/>
  <polyline fill="none" stroke="#55606c" stroke-width="2" marker-end="url(#arrow)" points="870,740 940,740 940,760 1040,760"/>
  <polyline fill="none" stroke="#55606c" stroke-width="2" marker-end="url(#arrow)" points="870,760 960,760 960,920 1040,920"/>
  <polyline fill="none" stroke="#55606c" stroke-width="2" marker-end="url(#arrow)" points="1140,760 1220,760 1220,960 1300,960"/>
  <polyline fill="none" stroke="#55606c" stroke-width="2" marker-end="url(#arrow)" points="1140,920 1220,920 1220,1220 1300,1220"/>
  <polyline fill="none" stroke="#55606c" stroke-width="2" marker-end="url(#arrow)" points="870,1000 980,1000 980,1240 1040,1240"/>
  <polyline fill="none" stroke="#55606c" stroke-width="2" marker-end="url(#arrow)" points="870,1020 1000,1020 1000,1080 1040,1080"/>
  <polyline fill="none" stroke="#55606c" stroke-width="2" marker-end="url(#arrow)" points="1140,1240 1240,1240 1240,1600 1300,1600"/>
  <polyline fill="none" stroke="#55606c" stroke-width="2" marker-end="url(#arrow)" points="1140,1080 1260,1080 1260,1260 1300,1260"/>
  <polyline fill="none" stroke="#55606c" stroke-width="2" marker-end="url(#arrow)" points="1350,960 1420,960 1420,980 1580,980"/>
  <polyline fill="none" stroke="#55606c" stroke-width="2" marker-end="url(#arrow)" points="1350,980 1440,980 1440,1140 1580,1140"/>
  <polyline fill="none" stroke="#55606c" stroke-width="2" marker-end="url(#arrow)" points="1680,980 1760,980 1760,1000 1840,1000"/>
  <polyline fill="none" stroke="#55606c" stroke-width="2" marker-end="url(#arrow)" points="1350,1220 1460,1220 1460,1300 1580,1300"/>
  <polyline fill="none" stroke="#55606c" stroke-width="2" marker-end="url(#arrow)" points="1350,1240 1480,1240 1480,1260 1580,1260"/>
  <polyline fill="none" stroke="#55606c" stroke-width="2" marker-end="url(#arrow)" points="1680,1300 1760,1300 1760,1280 1580,1280"/>
  <polyline fill="none" stroke="#55606c" stroke-width="2" marker-end="url(#arrow)" points="1350,1600 1500,1600 1500,1860 1580,1860"/>
  <polyline fill="none" stroke="#55606c" stroke-width="2" marker-end="url(#arrow)" points="1350,1620 1520,1620 1520,1760 1580,1760"/>
  <polyline fill="none" stroke="#55606c" stroke-width="2" marker-end="url(#arrow)" points="1680,1860 1760,1860 1760,1620 1840,1620"/>
  <polyline fill="none" stroke="#55606c" stroke-width="2" marker-end="url(#arrow)" points="1630,1760 1740,1760 1740,1900 1840,1900"/>
  <polyline fill="none" stroke="#55606c" stroke-width="2" marker-end="url(#arrow)" points="1630,1780 1760,1780 1760,1740 1840,1740"/>
  <polyline fill="none" stroke="#55606c" stroke-width="2" marker-end="url(#arrow)" points="1940,1900 2020,1900 2020,1760 1840,1760"/>
  <polyline fill="none" stroke="#55606c" stroke-width="2" marker-end="url(#arrow)" points="1400,1260 1580,1260 1580,1580"/>
  <polyline fill="none" stroke="#55606c" stroke-width="2" marker-end="url(#arrow)" points="1940,1000 2020,1000 2020,1140 1840,1140"/>
  <polyline fill="none" stroke="#55606c" stroke-width="2" marker-end="url(#arrow)" points="1680,1140 1820,1140 1820,1160 1840,1160"/>
  <polyline fill="none" stroke="#55606c" stroke-width="2" marker-end="url(#arrow)" points="1630,1260 1800,1260 1800,1220 1840,1220"/>
  <polyline fill="none" stroke="#55606c" stroke-width="2" marker-end="url(#arrow)" points="1940,1620 2020,1620 2020,1860 2120,1860"/>
  <polyline fill="none" stroke="#55606c" stroke-width="2" marker-end="url(#arrow)" points="1890,1740 1980,1740 1980,1680 2120,1680"/>
  <polyline fill="none" stroke="#55606c" stroke-width="2" marker-end="url(#arrow)" points="1680,1580 1860,1580 1860,1500 1840,1500"/>
  <polyline fill="none" stroke="#55606c" stroke-width="2" marker-end="url(#arrow)" points="1890,1140 2000,1140 2000,1240 1840,1240"/>
  <polyline fill="none" stroke="#55606c" stroke-width="2" marker-end="url(#arrow)" points="2220,1860 2300,1860 2300,1700 2120,1700"/>
  <polyline fill="none" stroke="#55606c" stroke-width="2" marker-end="url(#arrow)" points="2170,1680 2220,1680 2220,2040 1800,2040 1800,1520 1840,1520"/>
  <polyline fill="none" stroke="#55606c" stroke-width="2" marker-end="url(#arrow)" points="1890,1220 2000,1220 2000,1320 2120,1320"/>
  <polyline fill="none" stroke="#55606c" stroke-width="2" marker-end="url(#arrow)" points="1890,1500 2020,1500 2020,1340 2120,1340"/>
  <polyline fill="none" stroke="#55606c" stroke-width="2" marker-end="url(#arrow)" points="2170,1320 2240,1320 2240,1240 2380,1240"/>
  <circle cx="138" cy="458" r="18" fill="#ffffff" stroke="#203040" stroke-width="3"/>
  <text x="138" y="498" font-family="Segoe UI, Arial, sans-serif" font-size="12" text-anchor="middle" fill="#203040">Default_init</text>
  <polygon points="345,540 370,565 345,590 320,565" fill="#fff7e0" stroke="#8a6d1f" stroke-width="2"/>
  <text x="345" y="612" font-family="Segoe UI, Arial, sans-serif" font-size="12" text-anchor="middle" fill="#203040">PAR</text>
  <rect x="540" y="500" width="100" height="80" rx="12" ry="12" fill="#f6fbff" stroke="#2b5876" stroke-width="2"/>
  <text x="590" y="602" font-family="Segoe UI, Arial, sans-serif" font-size="12" text-anchor="middle" fill="#203040">Approve Platform Project</text>
  <rect x="540" y="660" width="100" height="80" rx="12" ry="12" fill="#f6fbff" stroke="#2b5876" stroke-width="2"/>
  <text x="590" y="762" font-family="Segoe UI, Arial, sans-serif" font-size="12" text-anchor="middle" fill="#203040">Perform Partial Validations</text>
  <polygon points="845,720 870,745 845,770 820,745" fill="#fff7e0" stroke="#8a6d1f" stroke-width="2"/>
  <text x="845" y="792" font-family="Segoe UI, Arial, sans-serif" font-size="12" text-anchor="middle" fill="#203040">PAR</text>
  <rect x="1040" y="720" width="100" height="80" rx="12" ry="12" fill="#f6fbff" stroke="#2b5876" stroke-width="2"/>
  <text x="1090" y="822" font-family="Segoe UI, Arial, sans-serif" font-size="12" text-anchor="middle" fill="#203040">Detail Functionalities</text>
  <rect x="1040" y="880" width="100" height="80" rx="12" ry="12" fill="#f6fbff" stroke="#2b5876" stroke-width="2"/>
  <text x="1090" y="982" font-family="Segoe UI, Arial, sans-serif" font-size="12" text-anchor="middle" fill="#203040">Perform Vulnerability Assessm...</text>
  <polygon points="845,980 870,1005 845,1030 820,1005" fill="#fff7e0" stroke="#8a6d1f" stroke-width="2"/>
  <text x="845" y="1052" font-family="Segoe UI, Arial, sans-serif" font-size="12" text-anchor="middle" fill="#203040">PAR</text>
  <rect x="1040" y="1200" width="100" height="80" rx="12" ry="12" fill="#f6fbff" stroke="#2b5876" stroke-width="2"/>
  <text x="1090" y="1302" font-family="Segoe UI, Arial, sans-serif" font-size="12" text-anchor="middle" fill="#203040">Configure External Integrations</text>
  <rect x="1040" y="1040" width="100" height="80" rx="12" ry="12" fill="#f6fbff" stroke="#2b5876" stroke-width="2"/>
  <text x="1090" y="1142" font-family="Segoe UI, Arial, sans-serif" font-size="12" text-anchor="middle" fill="#203040">Prepare Test Cases</text>
  <polygon points="1325,940 1350,965 1325,990 1300,965" fill="#fff7e0" stroke="#8a6d1f" stroke-width="2"/>
  <text x="1325" y="1012" font-family="Segoe UI, Arial, sans-serif" font-size="12" text-anchor="middle" fill="#203040">PAR</text>
  <rect x="1580" y="940" width="100" height="80" rx="12" ry="12" fill="#f6fbff" stroke="#2b5876" stroke-width="2"/>
  <text x="1630" y="1042" font-family="Segoe UI, Arial, sans-serif" font-size="12" text-anchor="middle" fill="#203040">Produce Technical Documentation</text>
  <polygon points="1325,1200 1350,1225 1325,1250 1300,1225" fill="#fff7e0" stroke="#8a6d1f" stroke-width="2"/>
  <text x="1325" y="1272" font-family="Segoe UI, Arial, sans-serif" font-size="12" text-anchor="middle" fill="#203040">G0</text>
  <rect x="1580" y="1260" width="100" height="80" rx="12" ry="12" fill="#f6fbff" stroke="#2b5876" stroke-width="2"/>
  <text x="1630" y="1362" font-family="Segoe UI, Arial, sans-serif" font-size="12" text-anchor="middle" fill="#203040">Correct and Test Vulnerabilities</text>
  <polygon points="1325,1580 1350,1605 1325,1630 1300,1605" fill="#fff7e0" stroke="#8a6d1f" stroke-width="2"/>
  <text x="1325" y="1652" font-family="Segoe UI, Arial, sans-serif" font-size="12" text-anchor="middle" fill="#203040">PAR</text>
  <rect x="1580" y="1820" width="100" height="80" rx="12" ry="12" fill="#f6fbff" stroke="#2b5876" stroke-width="2"/>
  <text x="1630" y="1922" font-family="Segoe UI, Arial, sans-serif" font-size="12" text-anchor="middle" fill="#203040">Execute Automated Tests</text>
  <polygon points="1605,1740 1630,1765 1605,1790 1580,1765" fill="#fff7e0" stroke="#8a6d1f" stroke-width="2"/>
  <text x="1605" y="1812" font-family="Segoe UI, Arial, sans-serif" font-size="12" text-anchor="middle" fill="#203040">G1</text>
  <rect x="1840" y="1860" width="100" height="80" rx="12" ry="12" fill="#f6fbff" stroke="#2b5876" stroke-width="2"/>
  <text x="1890" y="1962" font-family="Segoe UI, Arial, sans-serif" font-size="12" text-anchor="middle" fill="#203040">Configure API Infrastructure</text>
  <rect x="1300" y="1220" width="100" height="80" rx="12" ry="12" fill="#f6fbff" stroke="#2b5876" stroke-width="2"/>
  <text x="1350" y="1322" font-family="Segoe UI, Arial, sans-serif" font-size="12" text-anchor="middle" fill="#203040">Implement Initial Screens</text>
  <rect x="1840" y="960" width="100" height="80" rx="12" ry="12" fill="#f6fbff" stroke="#2b5876" stroke-width="2"/>
  <text x="1890" y="1062" font-family="Segoe UI, Arial, sans-serif" font-size="12" text-anchor="middle" fill="#203040">Prepare Interface Prototypes</text>
  <rect x="1580" y="1100" width="100" height="80" rx="12" ry="12" fill="#f6fbff" stroke="#2b5876" stroke-width="2"/>
  <text x="1630" y="1202" font-family="Segoe UI, Arial, sans-serif" font-size="12" text-anchor="middle" fill="#203040">Model Database Entities and I...</text>
  <polygon points="1605,1240 1630,1265 1605,1290 1580,1265" fill="#fff7e0" stroke="#8a6d1f" stroke-width="2"/>
  <text x="1605" y="1312" font-family="Segoe UI, Arial, sans-serif" font-size="12" text-anchor="middle" fill="#203040">XORCLOSE26</text>
  <rect x="1840" y="1580" width="100" height="80" rx="12" ry="12" fill="#f6fbff" stroke="#2b5876" stroke-width="2"/>
  <text x="1890" y="1682" font-family="Segoe UI, Arial, sans-serif" font-size="12" text-anchor="middle" fill="#203040">Deploy to Staging Environment</text>
  <polygon points="1865,1720 1890,1745 1865,1770 1840,1745" fill="#fff7e0" stroke="#8a6d1f" stroke-width="2"/>
  <text x="1865" y="1792" font-family="Segoe UI, Arial, sans-serif" font-size="12" text-anchor="middle" fill="#203040">XORCLOSE28</text>
  <rect x="1580" y="1540" width="100" height="80" rx="12" ry="12" fill="#f6fbff" stroke="#2b5876" stroke-width="2"/>
  <text x="1630" y="1642" font-family="Segoe UI, Arial, sans-serif" font-size="12" text-anchor="middle" fill="#203040">Integrate Modules</text>
  <polygon points="1865,1120 1890,1145 1865,1170 1840,1145" fill="#fff7e0" stroke="#8a6d1f" stroke-width="2"/>
  <text x="1865" y="1192" font-family="Segoe UI, Arial, sans-serif" font-size="12" text-anchor="middle" fill="#203040">PARCLOSE30</text>
  <rect x="2120" y="1820" width="100" height="80" rx="12" ry="12" fill="#f6fbff" stroke="#2b5876" stroke-width="2"/>
  <text x="2170" y="1922" font-family="Segoe UI, Arial, sans-serif" font-size="12" text-anchor="middle" fill="#203040">Finalize and Release to Produ...</text>
  <polygon points="2145,1660 2170,1685 2145,1710 2120,1685" fill="#fff7e0" stroke="#8a6d1f" stroke-width="2"/>
  <text x="2145" y="1732" font-family="Segoe UI, Arial, sans-serif" font-size="12" text-anchor="middle" fill="#203040">PARCLOSE33</text>
  <polygon points="1865,1200 1890,1225 1865,1250 1840,1225" fill="#fff7e0" stroke="#8a6d1f" stroke-width="2"/>
  <text x="1865" y="1272" font-family="Segoe UI, Arial, sans-serif" font-size="12" text-anchor="middle" fill="#203040">PARCLOSE35</text>
  <polygon points="1865,1480 1890,1505 1865,1530 1840,1505" fill="#fff7e0" stroke="#8a6d1f" stroke-width="2"/>
  <text x="1865" y="1552" font-family="Segoe UI, Arial, sans-serif" font-size="12" text-anchor="middle" fill="#203040">PARCLOSE36</text>
  <polygon points="2145,1300 2170,1325 2145,1350 2120,1325" fill="#fff7e0" stroke="#8a6d1f" stroke-width="2"/>
  <text x="2145" y="1372" font-family="Segoe UI, Arial, sans-serif" font-size="12" text-anchor="middle" fill="#203040">PARCLOSE37</text>
  <circle cx="2398" cy="1238" r="18" fill="#ffffff" stroke="#203040" stroke-width="3"/>
  <text x="2398" y="1278" font-family="Segoe UI, Arial, sans-serif" font-size="12" text-anchor="middle" fill="#203040">END_EVENT</text>
</svg>
