<svg xmlns="http://www.w3.org/2000/svg" version="1.1"
     xmlns:xlink="http://www.w3.org/1999/xlink"
 width="4380" height="1620" viewBox="0 0 4380 1620">
  <defs>
    <marker id="arrow" markerWidth="10" markerHeight="10" refX="9" refY="3" orient="auto" markerUnits="strokeWidth">
      <path d="M0,0 L0,6 L9,3 z" fill="#55606c"/>
    </marker>
  </defs>
  <rect x="0" y="0" width="100%" height="100%" fill="#ffffff"/>
  <polyline fill="none" stroke="#55606c" stroke-width="2" marker-end="url(#arrow)" points="156,700 220,700 220,760 320,760"/>
  <polyline fill="none" stroke="#55606c" stroke-width="2" marker-end="url(#arrow)" points="370,760 440,760 440,880 540,880"/>
  <polyline fill="none" stroke="#55606c" stroke-width="2" marker-end="url(#arrow)" points="370,780 460,780 460,720 540,720"/>
  <polyline fill="none" stroke="#55606c" stroke-width="2" marker-end="url(#arrow)" points="640,880 720,880 720,980 820,980"/>
  <polyline fill="none" stroke="#55606c" stroke-width="2" marker-end="url(#arrow)" points="640,720 720,720 720,760 820,760"/>
  <polyline fill="none" stroke="#55606c" stroke-width="2" marker-end="url(#arrow)" points="870,980 940,980 940,960 1040,960"/>
  <polyline fill="none" stroke="#55606c" stroke-width="2" marker-end="url(#arrow)" points="870,1000 960,1000 960,1120 1040,1120"/>
  <polyline fill="none" stroke="#55606c" stroke-width="2" marker-end="url(#arrow)" points="1140,960 1220,960 1220,940 1300,940"/>
  <polyline fill="none" stroke="#55606c" stroke-width="2" marker-end="url(#arrow)" points="1140,1120 1220,1120 1220,960 1300,960"/>
  <polyline fill="none" stroke="#55606c" stroke-width="2" marker-end="url(#arrow)" points="1350,940 1400,940 1400,1260 780,1260 780,780 820,780"/>
  <polyline fill="none" stroke="#55606c" stroke-width="2" marker-end="url(#arrow)" points="870,760 980,760 980,640 1040,640"/>
  <polyline fill="none" stroke="#55606c" stroke-width="2" marker-end="url(#arrow)" points="1140,640 1240,640 1240,580 1300,580"/>
  <polyline fill="none" stroke="#55606c" stroke-width="2" marker-end="url(#arrow)" points="1400,580 1480,580 1480,480 1580,480"/>
  <polyline fill="none" stroke="#55606c" stroke-width="2" marker-end="url(#arrow)" points="1680,480 1760,480 1760,500 1840,500"/>
  <polyline fill="none" stroke="#55606c" stroke-width="2" marker-end="url(#arrow)" points="1890,500 1960,500 1960,520 2060,520"/>
  <polyline fill="none" stroke="#55606c" stroke-width="2" marker-end="url(#arrow)" points="1890,520 1980,520 1980,400 2060,400"/>
  <polyline fill="none" stroke="#55606c" stroke-width="2" marker-end="url(#arrow)" points="2160,520 2240,520 2240,540 2340,540"/>
  <polyline fill="none" stroke="#55606c" stroke-width="2" marker-end="url(#arrow)" points="2440,360 2600,360"/>
  <polyline fill="none" stroke="#55606c" stroke-width="2" marker-end="url(#arrow)" points="3140,480 3220,480 3220,520 3320,520"/>
  <polyline fill="none" stroke="#55606c" stroke-width="2" marker-end="url(#arrow)" points="3640,560 3800,560"/>
  <polyline fill="none" stroke="#55606c" stroke-width="2" marker-end="url(#arrow)" points="3900,560 3980,560 3980,600 4080,600"/>
  <polyline fill="none" stroke="#55606c" stroke-width="2" marker-end="url(#arrow)" points="4180,600 4240,600 4240,1360 2280,1360 2280,560 2340,560"/>
  <polyline fill="none" stroke="#55606c" stroke-width="2" marker-end="url(#arrow)" points="2390,540 2480,540 2480,520 2600,520"/>
  <polyline fill="none" stroke="#55606c" stroke-width="2" marker-end="url(#arrow)" points="3370,520 3440,520 3440,560 3540,560"/>
  <polyline fill="none" stroke="#55606c" stroke-width="2" marker-end="url(#arrow)" points="3370,540 3440,540 3440,1440 2740,1440 2740,460 2820,460"/>
  <polyline fill="none" stroke="#55606c" stroke-width="2" marker-end="url(#arrow)" points="2870,460 2940,460 2940,480 3040,480"/>
  <polyline fill="none" stroke="#55606c" stroke-width="2" marker-end="url(#arrow)" points="2650,360 2720,360 2720,480 2820,480"/>
  <polyline fill="none" stroke="#55606c" stroke-width="2" marker-end="url(#arrow)" points="2650,380 2740,380 2740,1540 1960,1540 1960,420 2060,420"/>
  <polyline fill="none" stroke="#55606c" stroke-width="2" marker-end="url(#arrow)" points="2110,400 2200,400 2200,360 2340,360"/>
  <circle cx="138" cy="698" r="18" fill="#ffffff" stroke="#203040" stroke-width="3"/>
  <text x="138" y="738" font-family="Segoe UI, Arial, sans-serif" font-size="12" text-anchor="middle" fill="#203040">Default_init</text>
  <polygon points="345,740 370,765 345,790 320,765" fill="#fff7e0" stroke="#8a6d1f" stroke-width="2"/>
  <text x="345" y="812" font-family="Segoe UI, Arial, sans-serif" font-size="12" text-anchor="middle" fill="#203040">PAR</text>
  <rect x="540" y="840" width="100" height="80" rx="12" ry="12" fill="#f6fbff" stroke="#2b5876" stroke-width="2"/>
  <text x="590" y="942" font-family="Segoe UI, Arial, sans-serif" font-size="12" text-anchor="middle" fill="#203040">Customer searches for ticket</text>
  <rect x="540" y="680" width="100" height="80" rx="12" ry="12" fill="#f6fbff" stroke="#2b5876" stroke-width="2"/>
  <text x="590" y="782" font-family="Segoe UI, Arial, sans-serif" font-size="12" text-anchor="middle" fill="#203040">Select date and time</text>
  <polygon points="845,960 870,985 845,1010 820,985" fill="#fff7e0" stroke="#8a6d1f" stroke-width="2"/>
  <text x="845" y="1032" font-family="Segoe UI, Arial, sans-serif" font-size="12" text-anchor="middle" fill="#203040">PAR</text>
  <rect x="1040" y="920" width="100" height="80" rx="12" ry="12" fill="#f6fbff" stroke="#2b5876" stroke-width="2"/>
  <text x="1090" y="1022" font-family="Segoe UI, Arial, sans-serif" font-size="12" text-anchor="middle" fill="#203040">Provide payment details</text>
  <rect x="1040" y="1080" width="100" height="80" rx="12" ry="12" fill="#f6fbff" stroke="#2b5876" stroke-width="2"/>
  <text x="1090" y="1182" font-family="Segoe UI, Arial, sans-serif" font-size="12" text-anchor="middle" fill="#203040">Select route</text>
  <polygon points="1325,920 1350,945 1325,970 1300,945" fill="#fff7e0" stroke="#8a6d1f" stroke-width="2"/>
  <text x="1325" y="992" font-family="Segoe UI, Arial, sans-serif" font-size="12" text-anchor="middle" fill="#203040">PARCLOSE13</text>
  <polygon points="845,740 870,765 845,790 820,765" fill="#fff7e0" stroke="#8a6d1f" stroke-width="2"/>
  <text x="845" y="812" font-family="Segoe UI, Arial, sans-serif" font-size="12" text-anchor="middle" fill="#203040">PARCLOSE14</text>
  <rect x="1040" y="600" width="100" height="80" rx="12" ry="12" fill="#f6fbff" stroke="#2b5876" stroke-width="2"/>
  <text x="1090" y="702" font-family="Segoe UI, Arial, sans-serif" font-size="12" text-anchor="middle" fill="#203040">Provide personal information</text>
  <rect x="1300" y="540" width="100" height="80" rx="12" ry="12" fill="#f6fbff" stroke="#2b5876" stroke-width="2"/>
  <text x="1350" y="642" font-family="Segoe UI, Arial, sans-serif" font-size="12" text-anchor="middle" fill="#203040">Generate ticket</text>
  <rect x="1580" y="440" width="100" height="80" rx="12" ry="12" fill="#f6fbff" stroke="#2b5876" stroke-width="2"/>
  <text x="1630" y="542" font-family="Segoe UI, Arial, sans-serif" font-size="12" text-anchor="middle" fill="#203040">Update seat inventory</text>
  <polygon points="1865,480 1890,505 1865,530 1840,505" fill="#fff7e0" stroke="#8a6d1f" stroke-width="2"/>
  <text x="1865" y="552" font-family="Segoe UI, Arial, sans-serif" font-size="12" text-anchor="middle" fill="#203040">G0</text>
  <rect x="2060" y="480" width="100" height="80" rx="12" ry="12" fill="#f6fbff" stroke="#2b5876" stroke-width="2"/>
  <text x="2110" y="582" font-family="Segoe UI, Arial, sans-serif" font-size="12" text-anchor="middle" fill="#203040">Send ticket via email</text>
  <rect x="2340" y="320" width="100" height="80" rx="12" ry="12" fill="#f6fbff" stroke="#2b5876" stroke-width="2"/>
  <text x="2390" y="422" font-family="Segoe UI, Arial, sans-serif" font-size="12" text-anchor="middle" fill="#203040">Send reminder</text>
  <rect x="3040" y="440" width="100" height="80" rx="12" ry="12" fill="#f6fbff" stroke="#2b5876" stroke-width="2"/>
  <text x="3090" y="542" font-family="Segoe UI, Arial, sans-serif" font-size="12" text-anchor="middle" fill="#203040">Send instructions</text>
  <rect x="3540" y="520" width="100" height="80" rx="12" ry="12" fill="#f6fbff" stroke="#2b5876" stroke-width="2"/>
  <text x="3590" y="622" font-family="Segoe UI, Arial, sans-serif" font-size="12" text-anchor="middle" fill="#203040">Send ticket via SMS</text>
  <rect x="3800" y="520" width="100" height="80" rx="12" ry="12" fill="#f6fbff" stroke="#2b5876" stroke-width="2"/>
  <text x="3850" y="622" font-family="Segoe UI, Arial, sans-serif" font-size="12" text-anchor="middle" fill="#203040">Customer completes journey</text>
  <rect x="4080" y="560" width="100" height="80" rx="12" ry="12" fill="#f6fbff" stroke="#2b5876" stroke-width="2"/>
  <text x="4130" y="662" font-family="Segoe UI, Arial, sans-serif" font-size="12" text-anchor="middle" fill="#203040">Post-travel feedback or services</text>
  <polygon points="2365,520 2390,545 2365,570 2340,545" fill="#fff7e0" stroke="#8a6d1f" stroke-width="2"/>
  <text x="2365" y="592" font-family="Segoe UI, Arial, sans-serif" font-size="12" text-anchor="middle" fill="#203040">XORCLOSE25</text>
  <circle cx="2618" cy="518" r="18" fill="#ffffff" stroke="#203040" stroke-width="3"/>
  <text x="2618" y="558" font-family="Segoe UI, Arial, sans-serif" font-size="12" text-anchor="middle" fill="#203040">END_EVENT</text>
  <polygon points="3345,500 3370,525 3345,550 3320,525" fill="#fff7e0" stroke="#8a6d1f" stroke-width="2"/>
  <text x="3345" y="572" font-family="Segoe UI, Arial, sans-serif" font-size="12" text-anchor="middle" fill="#203040">XOR_JMPAA_Send instructions</text>
  <polygon points="2845,440 2870,465 2845,490 2820,465" fill="#fff7e0" stroke="#8a6d1f" stroke-width="2"/>
  <text x="2845" y="512" font-family="Segoe UI, Arial, sans-serif" font-size="12" text-anchor="middle" fill="#203040">XOR_JMPBB_Send instructions</text>
  <polygon points="2625,340 2650,365 2625,390 2600,365" fill="#fff7e0" stroke="#8a6d1f" stroke-width="2"/>
  <text x="2625" y="412" font-family="Segoe UI, Arial, sans-serif" font-size="12" text-anchor="middle" fill="#203040">XOR_JMPAA_Send reminder</text>
  <polygon points="2085,380 2110,405 2085,430 2060,405" fill="#fff7e0" stroke="#8a6d1f" stroke-width="2"/>
  <text x="2085" y="452" font-family="Segoe UI, Arial, sans-serif" font-size="12" text-anchor="middle" fill="#203040">XOR_JMPBB_Send reminder</text>
</svg>
