<svg xmlns="http://www.w3.org/2000/svg" version="1.1"
     xmlns:xlink="http://www.w3.org/1999/xlink"
 width="3130" height="1400" viewBox="0 0 3130 1400">
  <defs>
    <marker id="arrow" markerWidth="10" markerHeight="10" refX="9" refY="3" orient="auto" markerUnits="strokeWidth">
      <path d="M0,0 L0,6 L9,3 z" fill="#55606c"/>
    </marker>
  </defs>
  <rect x="0" y="0" width="100%" height="100%" fill="#ffffff"/>
  <polyline fill="none" stroke="#55606c" stroke-width="2" marker-end="url(#arrow)" points="156,400 220,400 220,440 320,440"/>
  <polyline fill="none" stroke="#55606c" stroke-width="2" marker-end="url(#arrow)" points="370,440 440,440 440,400 540,400"/>
  <polyline fill="none" stroke="#55606c" stroke-width="2" marker-end="url(#arrow)" points="370,460 460,460 460,560 540,560"/>
  <polyline fill="none" stroke="#55606c" stroke-width="2" marker-end="url(#arrow)" points="640,400 720,400 720,420 820,420"/>
  <polyline fill="none" stroke="#55606c" stroke-width="2" marker-end="url(#arrow)" points="640,560 720,560 720,660 820,660"/>
  <polyline fill="none" stroke="#55606c" stroke-width="2" marker-end="url(#arrow)" points="920,420 1000,420 1000,580 1080,580"/>
  <polyline fill="none" stroke="#55606c" stroke-width="2" marker-end="url(#arrow)" points="1400,580 1480,580 1480,600 1580,600"/>
  <polyline fill="none" stroke="#55606c" stroke-width="2" marker-end="url(#arrow)" points="1680,600 1760,600 1760,740 1840,740"/>
  <polyline fill="none" stroke="#55606c" stroke-width="2" marker-end="url(#arrow)" points="1890,740 2060,740"/>
  <polyline fill="none" stroke="#55606c" stroke-width="2" marker-end="url(#arrow)" points="1890,760 1980,760 1980,900 2060,900"/>
  <polyline fill="none" stroke="#55606c" stroke-width="2" marker-end="url(#arrow)" points="2160,740 2240,740 2240,720 2340,720"/>
  <polyline fill="none" stroke="#55606c" stroke-width="2" marker-end="url(#arrow)" points="2160,900 2240,900 2240,880 2340,880"/>
  <polyline fill="none" stroke="#55606c" stroke-width="2" marker-end="url(#arrow)" points="2440,720 2520,720 2520,780 2600,780"/>
  <polyline fill="none" stroke="#55606c" stroke-width="2" marker-end="url(#arrow)" points="2440,880 2520,880 2520,760 2600,760"/>
  <polyline fill="none" stroke="#55606c" stroke-width="2" marker-end="url(#arrow)" points="2700,780 2780,780 2780,760 2880,760"/>
  <polyline fill="none" stroke="#55606c" stroke-width="2" marker-end="url(#arrow)" points="2650,760 2700,760 2700,1040 780,1040 780,680 820,680"/>
  <polyline fill="none" stroke="#55606c" stroke-width="2" marker-end="url(#arrow)" points="870,660 960,660 960,680 1080,680"/>
  <polyline fill="none" stroke="#55606c" stroke-width="2" marker-end="url(#arrow)" points="2930,760 2980,760 2980,1140 2540,1140 2540,780 2600,780"/>
  <polyline fill="none" stroke="#55606c" stroke-width="2" marker-end="url(#arrow)" points="2930,780 3000,780 3000,1220 1000,1220 1000,600 1080,600"/>
  <polyline fill="none" stroke="#55606c" stroke-width="2" marker-end="url(#arrow)" points="1130,580 1300,580"/>
  <circle cx="138" cy="398" r="18" fill="#ffffff" stroke="#203040" stroke-width="3"/>
  <text x="138" y="438" font-family="Segoe UI, Arial, sans-serif" font-size="12" text-anchor="middle" fill="#203040">Default_init</text>
  <polygon points="345,420 370,445 345,470 320,445" fill="#fff7e0" stroke="#8a6d1f" stroke-width="2"/>
  <text x="345" y="492" font-family="Segoe UI, Arial, sans-serif" font-size="12" text-anchor="middle" fill="#203040">PAR</text>
  <rect x="540" y="360" width="100" height="80" rx="12" ry="12" fill="#f6fbff" stroke="#2b5876" stroke-width="2"/>
  <text x="590" y="462" font-family="Segoe UI, Arial, sans-serif" font-size="12" text-anchor="middle" fill="#203040">Kontrola přihlášení</text>
  <rect x="540" y="520" width="100" height="80" rx="12" ry="12" fill="#f6fbff" stroke="#2b5876" stroke-width="2"/>
  <text x="590" y="622" font-family="Segoe UI, Arial, sans-serif" font-size="12" text-anchor="middle" fill="#203040">Odeslani emailu o 2...</text>
  <rect x="820" y="380" width="100" height="80" rx="12" ry="12" fill="#f6fbff" stroke="#2b5876" stroke-width="2"/>
  <text x="870" y="482" font-family="Segoe UI, Arial, sans-serif" font-size="12" text-anchor="middle" fill="#203040">Zadani rezervace</text>
  <rect x="1300" y="540" width="100" height="80" rx="12" ry="12" fill="#f6fbff" stroke="#2b5876" stroke-width="2"/>
  <text x="1350" y="642" font-family="Segoe UI, Arial, sans-serif" font-size="12" text-anchor="middle" fill="#203040">Kontrola dostupnosti</text>
  <rect x="1580" y="560" width="100" height="80" rx="12" ry="12" fill="#f6fbff" stroke="#2b5876" stroke-width="2"/>
  <text x="1630" y="662" font-family="Segoe UI, Arial, sans-serif" font-size="12" text-anchor="middle" fill="#203040">Potrvzeni o prijeti objednavky</text>
  <polygon points="1865,720 1890,745 1865,770 1840,745" fill="#fff7e0" stroke="#8a6d1f" stroke-width="2"/>
  <text x="1865" y="792" font-family="Segoe UI, Arial, sans-serif" font-size="12" text-anchor="middle" fill="#203040">PAR</text>
  <rect x="2060" y="700" width="100" height="80" rx="12" ry="12" fill="#f6fbff" stroke="#2b5876" stroke-width="2"/>
  <text x="2110" y="802" font-family="Segoe UI, Arial, sans-serif" font-size="12" text-anchor="middle" fill="#203040">Odeslani emailu o 1...</text>
  <rect x="2060" y="860" width="100" height="80" rx="12" ry="12" fill="#f6fbff" stroke="#2b5876" stroke-width="2"/>
  <text x="2110" y="962" font-family="Segoe UI, Arial, sans-serif" font-size="12" text-anchor="middle" fill="#203040">Ulozeni do DB</text>
  <rect x="2340" y="680" width="100" height="80" rx="12" ry="12" fill="#f6fbff" stroke="#2b5876" stroke-width="2"/>
  <text x="2390" y="782" font-family="Segoe UI, Arial, sans-serif" font-size="12" text-anchor="middle" fill="#203040">Dotaz na upravu pozadavku</text>
  <rect x="2340" y="840" width="100" height="80" rx="12" ry="12" fill="#f6fbff" stroke="#2b5876" stroke-width="2"/>
  <text x="2390" y="942" font-family="Segoe UI, Arial, sans-serif" font-size="12" text-anchor="middle" fill="#203040">Odeslani potvrzovaciho emailu</text>
  <rect x="2600" y="740" width="100" height="80" rx="12" ry="12" fill="#f6fbff" stroke="#2b5876" stroke-width="2"/>
  <text x="2650" y="842" font-family="Segoe UI, Arial, sans-serif" font-size="12" text-anchor="middle" fill="#203040">Uprava pozadavku</text>
  <polygon points="2625,740 2650,765 2625,790 2600,765" fill="#fff7e0" stroke="#8a6d1f" stroke-width="2"/>
  <text x="2625" y="812" font-family="Segoe UI, Arial, sans-serif" font-size="12" text-anchor="middle" fill="#203040">PARCLOSE16</text>
  <polygon points="845,640 870,665 845,690 820,665" fill="#fff7e0" stroke="#8a6d1f" stroke-width="2"/>
  <text x="845" y="712" font-family="Segoe UI, Arial, sans-serif" font-size="12" text-anchor="middle" fill="#203040">PARCLOSE17</text>
  <circle cx="1098" cy="678" r="18" fill="#ffffff" stroke="#203040" stroke-width="3"/>
  <text x="1098" y="718" font-family="Segoe UI, Arial, sans-serif" font-size="12" text-anchor="middle" fill="#203040">END_EVENT</text>
  <polygon points="2905,740 2930,765 2905,790 2880,765" fill="#fff7e0" stroke="#8a6d1f" stroke-width="2"/>
  <text x="2905" y="812" font-family="Segoe UI, Arial, sans-serif" font-size="12" text-anchor="middle" fill="#203040">XOR_JMPAA_Uprava pozadavku</text>
  <polygon points="1105,560 1130,585 1105,610 1080,585" fill="#fff7e0" stroke="#8a6d1f" stroke-width="2"/>
  <text x="1105" y="632" font-family="Segoe UI, Arial, sans-serif" font-size="12" text-anchor="middle" fill="#203040">XOR_JMPBB_Kontrola dostupnosti</text>
</svg>
