<svg xmlns="http://www.w3.org/2000/svg" version="1.1"
     xmlns:xlink="http://www.w3.org/1999/xlink"
 width="5016" height="1640" viewBox="0 0 5016 1640">
  <defs>
    <marker id="arrow" markerWidth="10" markerHeight="10" refX="9" refY="3" orient="auto" markerUnits="strokeWidth">
      <path d="M0,0 L0,6 L9,3 z" fill="#55606c"/>
    </marker>
  </defs>
  <rect x="0" y="0" width="100%" height="100%" fill="#ffffff"/>
  <polyline fill="none" stroke="#55606c" stroke-width="2" marker-end="url(#arrow)" points="156,280 220,280 220,340 320,340"/>
  <polyline fill="none" stroke="#55606c" stroke-width="2" marker-end="url(#arrow)" points="420,340 500,340 500,480 600,480"/>
  <polyline fill="none" stroke="#55606c" stroke-width="2" marker-end="url(#arrow)" points="650,480 820,480"/>
  <polyline fill="none" stroke="#55606c" stroke-width="2" marker-end="url(#arrow)" points="650,500 740,500 740,640 820,640"/>
  <polyline fill="none" stroke="#55606c" stroke-width="2" marker-end="url(#arrow)" points="920,480 1000,480 1000,520 1080,520"/>
  <polyline fill="none" stroke="#55606c" stroke-width="2" marker-end="url(#arrow)" points="920,640 1000,640 1000,540 1080,540"/>
  <polyline fill="none" stroke="#55606c" stroke-width="2" marker-end="url(#arrow)" points="1130,520 1200,520 1200,440 1300,440"/>
  <polyline fill="none" stroke="#55606c" stroke-width="2" marker-end="url(#arrow)" points="1400,440 1480,440 1480,460 1580,460"/>
  <polyline fill="none" stroke="#55606c" stroke-width="2" marker-end="url(#arrow)" points="1680,460 1760,460 1760,420 1840,420"/>
  <polyline fill="none" stroke="#55606c" stroke-width="2" marker-end="url(#arrow)" points="1940,420 2020,420 2020,600 2120,600"/>
  <polyline fill="none" stroke="#55606c" stroke-width="2" marker-end="url(#arrow)" points="2440,560 2600,560"/>
  <polyline fill="none" stroke="#55606c" stroke-width="2" marker-end="url(#arrow)" points="2650,560 2720,560 2720,680 2820,680"/>
  <polyline fill="none" stroke="#55606c" stroke-width="2" marker-end="url(#arrow)" points="2650,580 2740,580 2740,740 2820,740"/>
  <polyline fill="none" stroke="#55606c" stroke-width="2" marker-end="url(#arrow)" points="3140,640 3220,640 3220,760 3320,760"/>
  <polyline fill="none" stroke="#55606c" stroke-width="2" marker-end="url(#arrow)" points="3140,800 3220,800 3220,780 3320,780"/>
  <polyline fill="none" stroke="#55606c" stroke-width="2" marker-end="url(#arrow)" points="3370,760 3440,760 3440,840 3540,840"/>
  <polyline fill="none" stroke="#55606c" stroke-width="2" marker-end="url(#arrow)" points="3640,840 3720,840 3720,900 3800,900"/>
  <polyline fill="none" stroke="#55606c" stroke-width="2" marker-end="url(#arrow)" points="3850,900 3920,900 3920,860 4020,860"/>
  <polyline fill="none" stroke="#55606c" stroke-width="2" marker-end="url(#arrow)" points="3850,920 3940,920 3940,1000 4020,1000"/>
  <polyline fill="none" stroke="#55606c" stroke-width="2" marker-end="url(#arrow)" points="4120,860 4200,860 4200,840 4300,840"/>
  <polyline fill="none" stroke="#55606c" stroke-width="2" marker-end="url(#arrow)" points="4070,1000 4160,1000 4160,980 4300,980"/>
  <polyline fill="none" stroke="#55606c" stroke-width="2" marker-end="url(#arrow)" points="4070,1020 4180,1020 4180,1140 4300,1140"/>
  <polyline fill="none" stroke="#55606c" stroke-width="2" marker-end="url(#arrow)" points="4400,980 4560,980"/>
  <polyline fill="none" stroke="#55606c" stroke-width="2" marker-end="url(#arrow)" points="4400,1140 4480,1140 4480,1000 4560,1000"/>
  <polyline fill="none" stroke="#55606c" stroke-width="2" marker-end="url(#arrow)" points="4610,980 4680,980 4680,840 4560,840"/>
  <polyline fill="none" stroke="#55606c" stroke-width="2" marker-end="url(#arrow)" points="4610,840 4680,840 4680,780 4780,780"/>
  <polyline fill="none" stroke="#55606c" stroke-width="2" marker-end="url(#arrow)" points="4350,840 4460,840 4460,860 4560,860"/>
  <polyline fill="none" stroke="#55606c" stroke-width="2" marker-end="url(#arrow)" points="4350,840 4400,840 4400,1280 2080,1280 2080,620 2120,620"/>
  <polyline fill="none" stroke="#55606c" stroke-width="2" marker-end="url(#arrow)" points="4350,840 4400,840 4400,1380 2760,1380 2760,700 2820,700"/>
  <polyline fill="none" stroke="#55606c" stroke-width="2" marker-end="url(#arrow)" points="4350,860 4420,860 4420,1460 2740,1460 2740,760 2820,760"/>
  <polyline fill="none" stroke="#55606c" stroke-width="2" marker-end="url(#arrow)" points="2170,600 2240,600 2240,560 2340,560"/>
  <polyline fill="none" stroke="#55606c" stroke-width="2" marker-end="url(#arrow)" points="2870,680 2940,680 2940,640 3040,640"/>
  <polyline fill="none" stroke="#55606c" stroke-width="2" marker-end="url(#arrow)" points="2870,740 2960,740 2960,800 3040,800"/>
  <circle cx="138" cy="278" r="18" fill="#ffffff" stroke="#203040" stroke-width="3"/>
  <text x="138" y="318" font-family="Segoe UI, Arial, sans-serif" font-size="12" text-anchor="middle" fill="#203040">Default_init</text>
  <rect x="320" y="300" width="100" height="80" rx="12" ry="12" fill="#f6fbff" stroke="#2b5876" stroke-width="2"/>
  <text x="370" y="402" font-family="Segoe UI, Arial, sans-serif" font-size="12" text-anchor="middle" fill="#203040">Identify idea for new product...</text>
  <polygon points="625,460 650,485 625,510 600,485" fill="#fff7e0" stroke="#8a6d1f" stroke-width="2"/>
  <text x="625" y="532" font-family="Segoe UI, Arial, sans-serif" font-size="12" text-anchor="middle" fill="#203040">PAR</text>
  <rect x="820" y="440" width="100" height="80" rx="12" ry="12" fill="#f6fbff" stroke="#2b5876" stroke-width="2"/>
  <text x="870" y="542" font-family="Segoe UI, Arial, sans-serif" font-size="12" text-anchor="middle" fill="#203040">Conduct initial research</text>
  <rect x="820" y="600" width="100" height="80" rx="12" ry="12" fill="#f6fbff" stroke="#2b5876" stroke-width="2"/>
  <text x="870" y="702" font-family="Segoe UI, Arial, sans-serif" font-size="12" text-anchor="middle" fill="#203040">Conduct feasibility studies</text>
  <polygon points="1105,500 1130,525 1105,550 1080,525" fill="#fff7e0" stroke="#8a6d1f" stroke-width="2"/>
  <text x="1105" y="572" font-family="Segoe UI, Arial, sans-serif" font-size="12" text-anchor="middle" fill="#203040">PARCLOSE4</text>
  <rect x="1300" y="400" width="100" height="80" rx="12" ry="12" fill="#f6fbff" stroke="#2b5876" stroke-width="2"/>
  <text x="1350" y="502" font-family="Segoe UI, Arial, sans-serif" font-size="12" text-anchor="middle" fill="#203040">Draft design concepts</text>
  <rect x="1580" y="420" width="100" height="80" rx="12" ry="12" fill="#f6fbff" stroke="#2b5876" stroke-width="2"/>
  <text x="1630" y="522" font-family="Segoe UI, Arial, sans-serif" font-size="12" text-anchor="middle" fill="#203040">Select promising design</text>
  <rect x="1840" y="380" width="100" height="80" rx="12" ry="12" fill="#f6fbff" stroke="#2b5876" stroke-width="2"/>
  <text x="1890" y="482" font-family="Segoe UI, Arial, sans-serif" font-size="12" text-anchor="middle" fill="#203040">Build prototype</text>
  <rect x="2340" y="520" width="100" height="80" rx="12" ry="12" fill="#f6fbff" stroke="#2b5876" stroke-width="2"/>
  <text x="2390" y="622" font-family="Segoe UI, Arial, sans-serif" font-size="12" text-anchor="middle" fill="#203040">Test functionality</text>
  <polygon points="2625,540 2650,565 2625,590 2600,565" fill="#fff7e0" stroke="#8a6d1f" stroke-width="2"/>
  <text x="2625" y="612" font-family="Segoe UI, Arial, sans-serif" font-size="12" text-anchor="middle" fill="#203040">PAR</text>
  <rect x="3040" y="600" width="100" height="80" rx="12" ry="12" fill="#f6fbff" stroke="#2b5876" stroke-width="2"/>
  <text x="3090" y="702" font-family="Segoe UI, Arial, sans-serif" font-size="12" text-anchor="middle" fill="#203040">Test safety</text>
  <rect x="3040" y="760" width="100" height="80" rx="12" ry="12" fill="#f6fbff" stroke="#2b5876" stroke-width="2"/>
  <text x="3090" y="862" font-family="Segoe UI, Arial, sans-serif" font-size="12" text-anchor="middle" fill="#203040">Test market potential</text>
  <polygon points="3345,740 3370,765 3345,790 3320,765" fill="#fff7e0" stroke="#8a6d1f" stroke-width="2"/>
  <text x="3345" y="812" font-family="Segoe UI, Arial, sans-serif" font-size="12" text-anchor="middle" fill="#203040">PARCLOSE13</text>
  <rect x="3540" y="800" width="100" height="80" rx="12" ry="12" fill="#f6fbff" stroke="#2b5876" stroke-width="2"/>
  <text x="3590" y="902" font-family="Segoe UI, Arial, sans-serif" font-size="12" text-anchor="middle" fill="#203040">Collect feedback from testing...</text>
  <polygon points="3825,880 3850,905 3825,930 3800,905" fill="#fff7e0" stroke="#8a6d1f" stroke-width="2"/>
  <text x="3825" y="952" font-family="Segoe UI, Arial, sans-serif" font-size="12" text-anchor="middle" fill="#203040">G0</text>
  <rect x="4020" y="820" width="100" height="80" rx="12" ry="12" fill="#f6fbff" stroke="#2b5876" stroke-width="2"/>
  <text x="4070" y="922" font-family="Segoe UI, Arial, sans-serif" font-size="12" text-anchor="middle" fill="#203040">Refine prototype</text>
  <polygon points="4045,980 4070,1005 4045,1030 4020,1005" fill="#fff7e0" stroke="#8a6d1f" stroke-width="2"/>
  <text x="4045" y="1052" font-family="Segoe UI, Arial, sans-serif" font-size="12" text-anchor="middle" fill="#203040">G1</text>
  <rect x="4300" y="940" width="100" height="80" rx="12" ry="12" fill="#f6fbff" stroke="#2b5876" stroke-width="2"/>
  <text x="4350" y="1042" font-family="Segoe UI, Arial, sans-serif" font-size="12" text-anchor="middle" fill="#203040">Approve prototype for further...</text>
  <rect x="4300" y="1100" width="100" height="80" rx="12" ry="12" fill="#f6fbff" stroke="#2b5876" stroke-width="2"/>
  <text x="4350" y="1202" font-family="Segoe UI, Arial, sans-serif" font-size="12" text-anchor="middle" fill="#203040">Discard prototype</text>
  <polygon points="4585,960 4610,985 4585,1010 4560,985" fill="#fff7e0" stroke="#8a6d1f" stroke-width="2"/>
  <text x="4585" y="1032" font-family="Segoe UI, Arial, sans-serif" font-size="12" text-anchor="middle" fill="#203040">XORCLOSE21</text>
  <polygon points="4585,820 4610,845 4585,870 4560,845" fill="#fff7e0" stroke="#8a6d1f" stroke-width="2"/>
  <text x="4585" y="892" font-family="Segoe UI, Arial, sans-serif" font-size="12" text-anchor="middle" fill="#203040">XORCLOSE22</text>
  <circle cx="4798" cy="778" r="18" fill="#ffffff" stroke="#203040" stroke-width="3"/>
  <text x="4798" y="818" font-family="Segoe UI, Arial, sans-serif" font-size="12" text-anchor="middle" fill="#203040">END_EVENT</text>
  <polygon points="4325,820 4350,845 4325,870 4300,845" fill="#fff7e0" stroke="#8a6d1f" stroke-width="2"/>
  <text x="4325" y="892" font-family="Segoe UI, Arial, sans-serif" font-size="12" text-anchor="middle" fill="#203040">XOR_JMPAA_Refine prototype</text>
  <polygon points="2145,580 2170,605 2145,630 2120,605" fill="#fff7e0" stroke="#8a6d1f" stroke-width="2"/>
  <text x="2145" y="652" font-family="Segoe UI, Arial, sans-serif" font-size="12" text-anchor="middle" fill="#203040">XOR_JMPBB_Test functionality</text>
  <polygon points="2845,660 2870,685 2845,710 2820,685" fill="#fff7e0" stroke="#8a6d1f" stroke-width="2"/>
  <text x="2845" y="732" font-family="Segoe UI, Arial, sans-serif" font-size="12" text-anchor="middle" fill="#203040">XOR_JMPBB_Test safety</text>
  <polygon points="2845,720 2870,745 2845,770 2820,745" fill="#fff7e0" stroke="#8a6d1f" stroke-width="2"/>
  <text x="2845" y="792" font-family="Segoe UI, Arial, sans-serif" font-size="12" text-anchor="middle" fill="#203040">XOR_JMPBB_Test market potential</text>
</svg>
