<svg xmlns="http://www.w3.org/2000/svg" version="1.1"
     xmlns:xlink="http://www.w3.org/1999/xlink"
 width="3216" height="1420" viewBox="0 0 3216 1420">
  <defs>
    <marker id="arrow" markerWidth="10" markerHeight="10" refX="9" refY="3" orient="auto" markerUnits="strokeWidth">
      <path d="M0,0 L0,6 L9,3 z" fill="#55606c"/>
    </marker>
  </defs>
  <rect x="0" y="0" width="100%" height="100%" fill="#ffffff"/>
  <polyline fill="none" stroke="#55606c" stroke-width="2" marker-end="url(#arrow)" points="156,180 320,180"/>
  <polyline fill="none" stroke="#55606c" stroke-width="2" marker-end="url(#arrow)" points="420,180 500,180 500,240 600,240"/>
  <polyline fill="none" stroke="#55606c" stroke-width="2" marker-end="url(#arrow)" points="700,240 780,240 780,360 860,360"/>
  <polyline fill="none" stroke="#55606c" stroke-width="2" marker-end="url(#arrow)" points="910,360 980,360 980,320 1080,320"/>
  <polyline fill="none" stroke="#55606c" stroke-width="2" marker-end="url(#arrow)" points="910,380 1000,380 1000,560 1080,560"/>
  <polyline fill="none" stroke="#55606c" stroke-width="2" marker-end="url(#arrow)" points="1180,320 1260,320 1260,280 1360,280"/>
  <polyline fill="none" stroke="#55606c" stroke-width="2" marker-end="url(#arrow)" points="1130,560 1220,560 1220,580 1360,580"/>
  <polyline fill="none" stroke="#55606c" stroke-width="2" marker-end="url(#arrow)" points="1130,580 1240,580 1240,740 1360,740"/>
  <polyline fill="none" stroke="#55606c" stroke-width="2" marker-end="url(#arrow)" points="1460,580 1540,580 1540,600 1620,600"/>
  <polyline fill="none" stroke="#55606c" stroke-width="2" marker-end="url(#arrow)" points="1460,280 1540,280 1540,320 1620,320"/>
  <polyline fill="none" stroke="#55606c" stroke-width="2" marker-end="url(#arrow)" points="1410,740 1520,740 1520,760 1620,760"/>
  <polyline fill="none" stroke="#55606c" stroke-width="2" marker-end="url(#arrow)" points="1410,760 1540,760 1540,920 1620,920"/>
  <polyline fill="none" stroke="#55606c" stroke-width="2" marker-end="url(#arrow)" points="1720,760 1900,760"/>
  <polyline fill="none" stroke="#55606c" stroke-width="2" marker-end="url(#arrow)" points="1720,920 1800,920 1800,780 1900,780"/>
  <polyline fill="none" stroke="#55606c" stroke-width="2" marker-end="url(#arrow)" points="1720,320 1900,320"/>
  <polyline fill="none" stroke="#55606c" stroke-width="2" marker-end="url(#arrow)" points="1950,760 2000,760 2000,1060 1580,1060 1580,620 1620,620"/>
  <polyline fill="none" stroke="#55606c" stroke-width="2" marker-end="url(#arrow)" points="2000,320 2080,320 2080,420 1900,420"/>
  <polyline fill="none" stroke="#55606c" stroke-width="2" marker-end="url(#arrow)" points="1670,600 1800,600 1800,440 1900,440"/>
  <polyline fill="none" stroke="#55606c" stroke-width="2" marker-end="url(#arrow)" points="1950,420 2020,420 2020,360 2160,360"/>
  <polyline fill="none" stroke="#55606c" stroke-width="2" marker-end="url(#arrow)" points="2260,360 2340,360 2340,300 2440,300"/>
  <polyline fill="none" stroke="#55606c" stroke-width="2" marker-end="url(#arrow)" points="2540,300 2620,300 2620,220 2700,220"/>
  <polyline fill="none" stroke="#55606c" stroke-width="2" marker-end="url(#arrow)" points="2800,220 2980,220"/>
  <circle cx="138" cy="178" r="18" fill="#ffffff" stroke="#203040" stroke-width="3"/>
  <text x="138" y="218" font-family="Segoe UI, Arial, sans-serif" font-size="12" text-anchor="middle" fill="#203040">Default_init</text>
  <rect x="320" y="140" width="100" height="80" rx="12" ry="12" fill="#f6fbff" stroke="#2b5876" stroke-width="2"/>
  <text x="370" y="242" font-family="Segoe UI, Arial, sans-serif" font-size="12" text-anchor="middle" fill="#203040">Report incident</text>
  <rect x="600" y="200" width="100" height="80" rx="12" ry="12" fill="#f6fbff" stroke="#2b5876" stroke-width="2"/>
  <text x="650" y="302" font-family="Segoe UI, Arial, sans-serif" font-size="12" text-anchor="middle" fill="#203040">Log report into tracking system</text>
  <polygon points="885,340 910,365 885,390 860,365" fill="#fff7e0" stroke="#8a6d1f" stroke-width="2"/>
  <text x="885" y="412" font-family="Segoe UI, Arial, sans-serif" font-size="12" text-anchor="middle" fill="#203040">PAR</text>
  <rect x="1080" y="280" width="100" height="80" rx="12" ry="12" fill="#f6fbff" stroke="#2b5876" stroke-width="2"/>
  <text x="1130" y="382" font-family="Segoe UI, Arial, sans-serif" font-size="12" text-anchor="middle" fill="#203040">Assign report to appropriate ...</text>
  <polygon points="1105,540 1130,565 1105,590 1080,565" fill="#fff7e0" stroke="#8a6d1f" stroke-width="2"/>
  <text x="1105" y="612" font-family="Segoe UI, Arial, sans-serif" font-size="12" text-anchor="middle" fill="#203040">G2</text>
  <rect x="1360" y="540" width="100" height="80" rx="12" ry="12" fill="#f6fbff" stroke="#2b5876" stroke-width="2"/>
  <text x="1410" y="642" font-family="Segoe UI, Arial, sans-serif" font-size="12" text-anchor="middle" fill="#203040">Implement fix</text>
  <rect x="1360" y="240" width="100" height="80" rx="12" ry="12" fill="#f6fbff" stroke="#2b5876" stroke-width="2"/>
  <text x="1410" y="342" font-family="Segoe UI, Arial, sans-serif" font-size="12" text-anchor="middle" fill="#203040">Gather necessary information</text>
  <polygon points="1385,720 1410,745 1385,770 1360,745" fill="#fff7e0" stroke="#8a6d1f" stroke-width="2"/>
  <text x="1385" y="792" font-family="Segoe UI, Arial, sans-serif" font-size="12" text-anchor="middle" fill="#203040">G3</text>
  <rect x="1620" y="720" width="100" height="80" rx="12" ry="12" fill="#f6fbff" stroke="#2b5876" stroke-width="2"/>
  <text x="1670" y="822" font-family="Segoe UI, Arial, sans-serif" font-size="12" text-anchor="middle" fill="#203040">Conduct training</text>
  <rect x="1620" y="880" width="100" height="80" rx="12" ry="12" fill="#f6fbff" stroke="#2b5876" stroke-width="2"/>
  <text x="1670" y="982" font-family="Segoe UI, Arial, sans-serif" font-size="12" text-anchor="middle" fill="#203040">Change policy</text>
  <rect x="1620" y="280" width="100" height="80" rx="12" ry="12" fill="#f6fbff" stroke="#2b5876" stroke-width="2"/>
  <text x="1670" y="382" font-family="Segoe UI, Arial, sans-serif" font-size="12" text-anchor="middle" fill="#203040">Identify cause of incident</text>
  <polygon points="1925,740 1950,765 1925,790 1900,765" fill="#fff7e0" stroke="#8a6d1f" stroke-width="2"/>
  <text x="1925" y="812" font-family="Segoe UI, Arial, sans-serif" font-size="12" text-anchor="middle" fill="#203040">XORCLOSE11</text>
  <rect x="1900" y="280" width="100" height="80" rx="12" ry="12" fill="#f6fbff" stroke="#2b5876" stroke-width="2"/>
  <text x="1950" y="382" font-family="Segoe UI, Arial, sans-serif" font-size="12" text-anchor="middle" fill="#203040">Propose corrective actions</text>
  <polygon points="1645,580 1670,605 1645,630 1620,605" fill="#fff7e0" stroke="#8a6d1f" stroke-width="2"/>
  <text x="1645" y="652" font-family="Segoe UI, Arial, sans-serif" font-size="12" text-anchor="middle" fill="#203040">XORCLOSE13</text>
  <polygon points="1925,400 1950,425 1925,450 1900,425" fill="#fff7e0" stroke="#8a6d1f" stroke-width="2"/>
  <text x="1925" y="472" font-family="Segoe UI, Arial, sans-serif" font-size="12" text-anchor="middle" fill="#203040">PARCLOSE14</text>
  <rect x="2160" y="320" width="100" height="80" rx="12" ry="12" fill="#f6fbff" stroke="#2b5876" stroke-width="2"/>
  <text x="2210" y="422" font-family="Segoe UI, Arial, sans-serif" font-size="12" text-anchor="middle" fill="#203040">Conduct follow-up</text>
  <rect x="2440" y="260" width="100" height="80" rx="12" ry="12" fill="#f6fbff" stroke="#2b5876" stroke-width="2"/>
  <text x="2490" y="362" font-family="Segoe UI, Arial, sans-serif" font-size="12" text-anchor="middle" fill="#203040">Close incident report</text>
  <rect x="2700" y="180" width="100" height="80" rx="12" ry="12" fill="#f6fbff" stroke="#2b5876" stroke-width="2"/>
  <text x="2750" y="282" font-family="Segoe UI, Arial, sans-serif" font-size="12" text-anchor="middle" fill="#203040">Notify all stakeholders</text>
  <circle cx="2998" cy="218" r="18" fill="#ffffff" stroke="#203040" stroke-width="3"/>
  <text x="2998" y="258" font-family="Segoe UI, Arial, sans-serif" font-size="12" text-anchor="middle" fill="#203040">END_EVENT</text>
</svg>
