<svg xmlns="http://www.w3.org/2000/svg" version="1.1"
     xmlns:xlink="http://www.w3.org/1999/xlink"
 width="5190" height="2120" viewBox="0 0 5190 2120">
  <defs>
    <marker id="arrow" markerWidth="10" markerHeight="10" refX="9" refY="3" orient="auto" markerUnits="strokeWidth">
      <path d="M0,0 L0,6 L9,3 z" fill="#55606c"/>
    </marker>
  </defs>
  <rect x="0" y="0" width="100%" height="100%" fill="#ffffff"/>
  <polyline fill="none" stroke="#55606c" stroke-width="2" marker-end="url(#arrow)" points="156,320 220,320 220,400 320,400"/>
  <polyline fill="none" stroke="#55606c" stroke-width="2" marker-end="url(#arrow)" points="420,400 500,400 500,600 600,600"/>
  <polyline fill="none" stroke="#55606c" stroke-width="2" marker-end="url(#arrow)" points="650,600 820,600"/>
  <polyline fill="none" stroke="#55606c" stroke-width="2" marker-end="url(#arrow)" points="650,620 740,620 740,820 820,820"/>
  <polyline fill="none" stroke="#55606c" stroke-width="2" marker-end="url(#arrow)" points="920,600 1000,600 1000,680 1080,680"/>
  <polyline fill="none" stroke="#55606c" stroke-width="2" marker-end="url(#arrow)" points="870,820 960,820 960,860 1080,860"/>
  <polyline fill="none" stroke="#55606c" stroke-width="2" marker-end="url(#arrow)" points="870,840 980,840 980,1020 1080,1020"/>
  <polyline fill="none" stroke="#55606c" stroke-width="2" marker-end="url(#arrow)" points="1180,860 1260,860 1260,900 1360,900"/>
  <polyline fill="none" stroke="#55606c" stroke-width="2" marker-end="url(#arrow)" points="1180,680 1260,680 1260,980 1360,980"/>
  <polyline fill="none" stroke="#55606c" stroke-width="2" marker-end="url(#arrow)" points="1180,1020 1280,1020 1280,920 1360,920"/>
  <polyline fill="none" stroke="#55606c" stroke-width="2" marker-end="url(#arrow)" points="1680,980 1760,980 1760,860 1580,860"/>
  <polyline fill="none" stroke="#55606c" stroke-width="2" marker-end="url(#arrow)" points="1410,900 1480,900 1480,880 1580,880"/>
  <polyline fill="none" stroke="#55606c" stroke-width="2" marker-end="url(#arrow)" points="1630,860 1700,860 1700,800 1840,800"/>
  <polyline fill="none" stroke="#55606c" stroke-width="2" marker-end="url(#arrow)" points="1890,800 1960,800 1960,700 2060,700"/>
  <polyline fill="none" stroke="#55606c" stroke-width="2" marker-end="url(#arrow)" points="1890,820 1980,820 1980,860 2060,860"/>
  <polyline fill="none" stroke="#55606c" stroke-width="2" marker-end="url(#arrow)" points="2160,700 2240,700 2240,740 2340,740"/>
  <polyline fill="none" stroke="#55606c" stroke-width="2" marker-end="url(#arrow)" points="2160,860 2240,860 2240,980 2340,980"/>
  <polyline fill="none" stroke="#55606c" stroke-width="2" marker-end="url(#arrow)" points="2390,980 2460,980 2460,1120 2560,1120"/>
  <polyline fill="none" stroke="#55606c" stroke-width="2" marker-end="url(#arrow)" points="2390,1000 2480,1000 2480,960 2560,960"/>
  <polyline fill="none" stroke="#55606c" stroke-width="2" marker-end="url(#arrow)" points="2660,1120 2740,1120 2740,1340 2820,1340"/>
  <polyline fill="none" stroke="#55606c" stroke-width="2" marker-end="url(#arrow)" points="2870,1340 2940,1340 2940,1380 3100,1380"/>
  <polyline fill="none" stroke="#55606c" stroke-width="2" marker-end="url(#arrow)" points="2870,1360 2960,1360 2960,1580 3100,1580"/>
  <polyline fill="none" stroke="#55606c" stroke-width="2" marker-end="url(#arrow)" points="3200,1380 3280,1380 3280,1420 3360,1420"/>
  <polyline fill="none" stroke="#55606c" stroke-width="2" marker-end="url(#arrow)" points="3150,1580 3240,1580 3240,1620 3360,1620"/>
  <polyline fill="none" stroke="#55606c" stroke-width="2" marker-end="url(#arrow)" points="3150,1600 3260,1600 3260,1540 3360,1540"/>
  <polyline fill="none" stroke="#55606c" stroke-width="2" marker-end="url(#arrow)" points="3460,1620 3540,1620 3540,1560 3360,1560"/>
  <polyline fill="none" stroke="#55606c" stroke-width="2" marker-end="url(#arrow)" points="3410,1540 3500,1540 3500,1440 3360,1440"/>
  <polyline fill="none" stroke="#55606c" stroke-width="2" marker-end="url(#arrow)" points="3410,1420 3480,1420 3480,1340 3640,1340"/>
  <polyline fill="none" stroke="#55606c" stroke-width="2" marker-end="url(#arrow)" points="3740,1340 3820,1340 3820,1320 3900,1320"/>
  <polyline fill="none" stroke="#55606c" stroke-width="2" marker-end="url(#arrow)" points="4000,1320 4080,1320 4080,1240 4180,1240"/>
  <polyline fill="none" stroke="#55606c" stroke-width="2" marker-end="url(#arrow)" points="4280,1240 4360,1240 4360,1280 4440,1280"/>
  <polyline fill="none" stroke="#55606c" stroke-width="2" marker-end="url(#arrow)" points="4490,1280 4560,1280 4560,1240 4660,1240"/>
  <polyline fill="none" stroke="#55606c" stroke-width="2" marker-end="url(#arrow)" points="4490,1300 4580,1300 4580,1400 4660,1400"/>
  <polyline fill="none" stroke="#55606c" stroke-width="2" marker-end="url(#arrow)" points="4760,1240 4840,1240 4840,1180 4940,1180"/>
  <polyline fill="none" stroke="#55606c" stroke-width="2" marker-end="url(#arrow)" points="4760,1400 4840,1400 4840,1280 4940,1280"/>
  <polyline fill="none" stroke="#55606c" stroke-width="2" marker-end="url(#arrow)" points="4990,1180 5040,1180 5040,1760 2520,1760 2520,980 2560,980"/>
  <polyline fill="none" stroke="#55606c" stroke-width="2" marker-end="url(#arrow)" points="2610,960 2660,960 2660,1860 2280,1860 2280,760 2340,760"/>
  <polyline fill="none" stroke="#55606c" stroke-width="2" marker-end="url(#arrow)" points="2390,740 2500,740 2500,640 2560,640"/>
  <polyline fill="none" stroke="#55606c" stroke-width="2" marker-end="url(#arrow)" points="2610,640 2700,640 2700,660 2820,660"/>
  <polyline fill="none" stroke="#55606c" stroke-width="2" marker-end="url(#arrow)" points="2610,660 2720,660 2720,600 2820,600"/>
  <polyline fill="none" stroke="#55606c" stroke-width="2" marker-end="url(#arrow)" points="2920,660 3000,660 3000,620 2820,620"/>
  <polyline fill="none" stroke="#55606c" stroke-width="2" marker-end="url(#arrow)" points="2870,600 2980,600 2980,500 3100,500"/>
  <polyline fill="none" stroke="#55606c" stroke-width="2" marker-end="url(#arrow)" points="4990,1280 5060,1280 5060,1940 1280,1940 1280,1000 1360,1000"/>
  <polyline fill="none" stroke="#55606c" stroke-width="2" marker-end="url(#arrow)" points="4990,1300 5060,1300 5060,1200 4940,1200"/>
  <polyline fill="none" stroke="#55606c" stroke-width="2" marker-end="url(#arrow)" points="1410,980 1580,980"/>
  <circle cx="138" cy="318" r="18" fill="#ffffff" stroke="#203040" stroke-width="3"/>
  <text x="138" y="358" font-family="Segoe UI, Arial, sans-serif" font-size="12" text-anchor="middle" fill="#203040">Default_init</text>
  <rect x="320" y="360" width="100" height="80" rx="12" ry="12" fill="#f6fbff" stroke="#2b5876" stroke-width="2"/>
  <text x="370" y="462" font-family="Segoe UI, Arial, sans-serif" font-size="12" text-anchor="middle" fill="#203040">Check Customer</text>
  <polygon points="625,580 650,605 625,630 600,605" fill="#fff7e0" stroke="#8a6d1f" stroke-width="2"/>
  <text x="625" y="652" font-family="Segoe UI, Arial, sans-serif" font-size="12" text-anchor="middle" fill="#203040">PAR</text>
  <rect x="820" y="560" width="100" height="80" rx="12" ry="12" fill="#f6fbff" stroke="#2b5876" stroke-width="2"/>
  <text x="870" y="662" font-family="Segoe UI, Arial, sans-serif" font-size="12" text-anchor="middle" fill="#203040">Preparing Invoice</text>
  <polygon points="845,800 870,825 845,850 820,825" fill="#fff7e0" stroke="#8a6d1f" stroke-width="2"/>
  <text x="845" y="872" font-family="Segoe UI, Arial, sans-serif" font-size="12" text-anchor="middle" fill="#203040">G0</text>
  <rect x="1080" y="820" width="100" height="80" rx="12" ry="12" fill="#f6fbff" stroke="#2b5876" stroke-width="2"/>
  <text x="1130" y="922" font-family="Segoe UI, Arial, sans-serif" font-size="12" text-anchor="middle" fill="#203040">Check Payment History</text>
  <rect x="1080" y="640" width="100" height="80" rx="12" ry="12" fill="#f6fbff" stroke="#2b5876" stroke-width="2"/>
  <text x="1130" y="742" font-family="Segoe UI, Arial, sans-serif" font-size="12" text-anchor="middle" fill="#203040">Send the Invoice to Customer</text>
  <rect x="1080" y="980" width="100" height="80" rx="12" ry="12" fill="#f6fbff" stroke="#2b5876" stroke-width="2"/>
  <text x="1130" y="1082" font-family="Segoe UI, Arial, sans-serif" font-size="12" text-anchor="middle" fill="#203040">Check Customer Type</text>
  <rect x="1580" y="940" width="100" height="80" rx="12" ry="12" fill="#f6fbff" stroke="#2b5876" stroke-width="2"/>
  <text x="1630" y="1042" font-family="Segoe UI, Arial, sans-serif" font-size="12" text-anchor="middle" fill="#203040">Check for Payment</text>
  <polygon points="1385,880 1410,905 1385,930 1360,905" fill="#fff7e0" stroke="#8a6d1f" stroke-width="2"/>
  <text x="1385" y="952" font-family="Segoe UI, Arial, sans-serif" font-size="12" text-anchor="middle" fill="#203040">XORCLOSE9</text>
  <polygon points="1605,840 1630,865 1605,890 1580,865" fill="#fff7e0" stroke="#8a6d1f" stroke-width="2"/>
  <text x="1605" y="912" font-family="Segoe UI, Arial, sans-serif" font-size="12" text-anchor="middle" fill="#203040">PARCLOSE10</text>
  <polygon points="1865,780 1890,805 1865,830 1840,805" fill="#fff7e0" stroke="#8a6d1f" stroke-width="2"/>
  <text x="1865" y="852" font-family="Segoe UI, Arial, sans-serif" font-size="12" text-anchor="middle" fill="#203040">G1</text>
  <rect x="2060" y="660" width="100" height="80" rx="12" ry="12" fill="#f6fbff" stroke="#2b5876" stroke-width="2"/>
  <text x="2110" y="762" font-family="Segoe UI, Arial, sans-serif" font-size="12" text-anchor="middle" fill="#203040">Declining Message</text>
  <rect x="2060" y="820" width="100" height="80" rx="12" ry="12" fill="#f6fbff" stroke="#2b5876" stroke-width="2"/>
  <text x="2110" y="922" font-family="Segoe UI, Arial, sans-serif" font-size="12" text-anchor="middle" fill="#203040">Create new Customer</text>
  <polygon points="2365,960 2390,985 2365,1010 2340,985" fill="#fff7e0" stroke="#8a6d1f" stroke-width="2"/>
  <text x="2365" y="1032" font-family="Segoe UI, Arial, sans-serif" font-size="12" text-anchor="middle" fill="#203040">G2</text>
  <rect x="2560" y="1080" width="100" height="80" rx="12" ry="12" fill="#f6fbff" stroke="#2b5876" stroke-width="2"/>
  <text x="2610" y="1182" font-family="Segoe UI, Arial, sans-serif" font-size="12" text-anchor="middle" fill="#203040">Check Availability</text>
  <polygon points="2845,1320 2870,1345 2845,1370 2820,1345" fill="#fff7e0" stroke="#8a6d1f" stroke-width="2"/>
  <text x="2845" y="1392" font-family="Segoe UI, Arial, sans-serif" font-size="12" text-anchor="middle" fill="#203040">PAR</text>
  <rect x="3100" y="1340" width="100" height="80" rx="12" ry="12" fill="#f6fbff" stroke="#2b5876" stroke-width="2"/>
  <text x="3150" y="1442" font-family="Segoe UI, Arial, sans-serif" font-size="12" text-anchor="middle" fill="#203040">Sending Confirmation to Customer</text>
  <polygon points="3125,1560 3150,1585 3125,1610 3100,1585" fill="#fff7e0" stroke="#8a6d1f" stroke-width="2"/>
  <text x="3125" y="1632" font-family="Segoe UI, Arial, sans-serif" font-size="12" text-anchor="middle" fill="#203040">G3</text>
  <rect x="3360" y="1580" width="100" height="80" rx="12" ry="12" fill="#f6fbff" stroke="#2b5876" stroke-width="2"/>
  <text x="3410" y="1682" font-family="Segoe UI, Arial, sans-serif" font-size="12" text-anchor="middle" fill="#203040">Producing missing goods</text>
  <polygon points="3385,1520 3410,1545 3385,1570 3360,1545" fill="#fff7e0" stroke="#8a6d1f" stroke-width="2"/>
  <text x="3385" y="1592" font-family="Segoe UI, Arial, sans-serif" font-size="12" text-anchor="middle" fill="#203040">XORCLOSE25</text>
  <polygon points="3385,1400 3410,1425 3385,1450 3360,1425" fill="#fff7e0" stroke="#8a6d1f" stroke-width="2"/>
  <text x="3385" y="1472" font-family="Segoe UI, Arial, sans-serif" font-size="12" text-anchor="middle" fill="#203040">PARCLOSE26</text>
  <rect x="3640" y="1300" width="100" height="80" rx="12" ry="12" fill="#f6fbff" stroke="#2b5876" stroke-width="2"/>
  <text x="3690" y="1402" font-family="Segoe UI, Arial, sans-serif" font-size="12" text-anchor="middle" fill="#203040">getting ready for delivery</text>
  <rect x="3900" y="1280" width="100" height="80" rx="12" ry="12" fill="#f6fbff" stroke="#2b5876" stroke-width="2"/>
  <text x="3950" y="1382" font-family="Segoe UI, Arial, sans-serif" font-size="12" text-anchor="middle" fill="#203040">Pack the Goods</text>
  <rect x="4180" y="1200" width="100" height="80" rx="12" ry="12" fill="#f6fbff" stroke="#2b5876" stroke-width="2"/>
  <text x="4230" y="1302" font-family="Segoe UI, Arial, sans-serif" font-size="12" text-anchor="middle" fill="#203040">Deliver the Goods</text>
  <polygon points="4465,1260 4490,1285 4465,1310 4440,1285" fill="#fff7e0" stroke="#8a6d1f" stroke-width="2"/>
  <text x="4465" y="1332" font-family="Segoe UI, Arial, sans-serif" font-size="12" text-anchor="middle" fill="#203040">G4</text>
  <rect x="4660" y="1200" width="100" height="80" rx="12" ry="12" fill="#f6fbff" stroke="#2b5876" stroke-width="2"/>
  <text x="4710" y="1302" font-family="Segoe UI, Arial, sans-serif" font-size="12" text-anchor="middle" fill="#203040">closing order</text>
  <rect x="4660" y="1360" width="100" height="80" rx="12" ry="12" fill="#f6fbff" stroke="#2b5876" stroke-width="2"/>
  <text x="4710" y="1462" font-family="Segoe UI, Arial, sans-serif" font-size="12" text-anchor="middle" fill="#203040">Checking the reminders</text>
  <polygon points="4965,1160 4990,1185 4965,1210 4940,1185" fill="#fff7e0" stroke="#8a6d1f" stroke-width="2"/>
  <text x="4965" y="1232" font-family="Segoe UI, Arial, sans-serif" font-size="12" text-anchor="middle" fill="#203040">XORCLOSE36</text>
  <polygon points="2585,940 2610,965 2585,990 2560,965" fill="#fff7e0" stroke="#8a6d1f" stroke-width="2"/>
  <text x="2585" y="1012" font-family="Segoe UI, Arial, sans-serif" font-size="12" text-anchor="middle" fill="#203040">XORCLOSE37</text>
  <polygon points="2365,720 2390,745 2365,770 2340,745" fill="#fff7e0" stroke="#8a6d1f" stroke-width="2"/>
  <text x="2365" y="792" font-family="Segoe UI, Arial, sans-serif" font-size="12" text-anchor="middle" fill="#203040">XORCLOSE38</text>
  <polygon points="2585,620 2610,645 2585,670 2560,645" fill="#fff7e0" stroke="#8a6d1f" stroke-width="2"/>
  <text x="2585" y="692" font-family="Segoe UI, Arial, sans-serif" font-size="12" text-anchor="middle" fill="#203040">G5</text>
  <rect x="2820" y="620" width="100" height="80" rx="12" ry="12" fill="#f6fbff" stroke="#2b5876" stroke-width="2"/>
  <text x="2870" y="722" font-family="Segoe UI, Arial, sans-serif" font-size="12" text-anchor="middle" fill="#203040">Dunning Process</text>
  <polygon points="2845,580 2870,605 2845,630 2820,605" fill="#fff7e0" stroke="#8a6d1f" stroke-width="2"/>
  <text x="2845" y="652" font-family="Segoe UI, Arial, sans-serif" font-size="12" text-anchor="middle" fill="#203040">XORCLOSE42</text>
  <circle cx="3118" cy="498" r="18" fill="#ffffff" stroke="#203040" stroke-width="3"/>
  <text x="3118" y="538" font-family="Segoe UI, Arial, sans-serif" font-size="12" text-anchor="middle" fill="#203040">END_EVENT</text>
  <polygon points="4965,1260 4990,1285 4965,1310 4940,1285" fill="#fff7e0" stroke="#8a6d1f" stroke-width="2"/>
  <text x="4965" y="1332" font-family="Segoe UI, Arial, sans-serif" font-size="12" text-anchor="middle" fill="#203040">XOR_JMPAA_Checking the reminders</text>
  <polygon points="1385,960 1410,985 1385,1010 1360,985" fill="#fff7e0" stroke="#8a6d1f" stroke-width="2"/>
  <text x="1385" y="1032" font-family="Segoe UI, Arial, sans-serif" font-size="12" text-anchor="middle" fill="#203040">XOR_JMPBB_Check for Payment</text>
</svg>
