<svg xmlns="http://www.w3.org/2000/svg" version="1.1"
     xmlns:xlink="http://www.w3.org/1999/xlink"
 width="2616" height="2020" viewBox="0 0 2616 2020">
  <defs>
    <marker id="arrow" markerWidth="10" markerHeight="10" refX="9" refY="3" orient="auto" markerUnits="strokeWidth">
      <path d="M0,0 L0,6 L9,3 z" fill="#55606c"/>
    </marker>
  </defs>
  <rect x="0" y="0" width="100%" height="100%" fill="#ffffff"/>
  <polyline fill="none" stroke="#55606c" stroke-width="2" marker-end="url(#arrow)" points="156,560 220,560 220,660 320,660"/>
  <polyline fill="none" stroke="#55606c" stroke-width="2" marker-end="url(#arrow)" points="370,660 540,660"/>
  <polyline fill="none" stroke="#55606c" stroke-width="2" marker-end="url(#arrow)" points="370,680 460,680 460,880 540,880"/>
  <polyline fill="none" stroke="#55606c" stroke-width="2" marker-end="url(#arrow)" points="640,660 720,660 720,880 820,880"/>
  <polyline fill="none" stroke="#55606c" stroke-width="2" marker-end="url(#arrow)" points="870,880 940,880 940,840 1080,840"/>
  <polyline fill="none" stroke="#55606c" stroke-width="2" marker-end="url(#arrow)" points="870,900 960,900 960,1140 1080,1140"/>
  <polyline fill="none" stroke="#55606c" stroke-width="2" marker-end="url(#arrow)" points="1180,840 1260,840 1260,900 1360,900"/>
  <polyline fill="none" stroke="#55606c" stroke-width="2" marker-end="url(#arrow)" points="590,880 680,880 680,920 820,920"/>
  <polyline fill="none" stroke="#55606c" stroke-width="2" marker-end="url(#arrow)" points="590,900 700,900 700,1180 820,1180"/>
  <polyline fill="none" stroke="#55606c" stroke-width="2" marker-end="url(#arrow)" points="920,920 1020,920 1020,1000 1080,1000"/>
  <polyline fill="none" stroke="#55606c" stroke-width="2" marker-end="url(#arrow)" points="870,1180 1000,1180 1000,1400 1080,1400"/>
  <polyline fill="none" stroke="#55606c" stroke-width="2" marker-end="url(#arrow)" points="870,1200 1080,1200"/>
  <polyline fill="none" stroke="#55606c" stroke-width="2" marker-end="url(#arrow)" points="1180,1400 1260,1400 1260,1220 1080,1220"/>
  <polyline fill="none" stroke="#55606c" stroke-width="2" marker-end="url(#arrow)" points="1460,900 1540,900 1540,1080 1620,1080"/>
  <polyline fill="none" stroke="#55606c" stroke-width="2" marker-end="url(#arrow)" points="1130,1140 1220,1140 1220,1180 1360,1180"/>
  <polyline fill="none" stroke="#55606c" stroke-width="2" marker-end="url(#arrow)" points="1130,1160 1240,1160 1240,1340 1360,1340"/>
  <polyline fill="none" stroke="#55606c" stroke-width="2" marker-end="url(#arrow)" points="1460,1180 1540,1180 1540,1220 1620,1220"/>
  <polyline fill="none" stroke="#55606c" stroke-width="2" marker-end="url(#arrow)" points="1460,1340 1560,1340 1560,1500 1620,1500"/>
  <polyline fill="none" stroke="#55606c" stroke-width="2" marker-end="url(#arrow)" points="1180,1000 1300,1000 1300,1020 1360,1020"/>
  <polyline fill="none" stroke="#55606c" stroke-width="2" marker-end="url(#arrow)" points="1130,1200 1280,1200 1280,1040 1360,1040"/>
  <polyline fill="none" stroke="#55606c" stroke-width="2" marker-end="url(#arrow)" points="1670,1080 1740,1080 1740,1100 1900,1100"/>
  <polyline fill="none" stroke="#55606c" stroke-width="2" marker-end="url(#arrow)" points="1670,1100 1760,1100 1760,1120 1900,1120"/>
  <polyline fill="none" stroke="#55606c" stroke-width="2" marker-end="url(#arrow)" points="2000,1100 2080,1100 2080,1140 1900,1140"/>
  <polyline fill="none" stroke="#55606c" stroke-width="2" marker-end="url(#arrow)" points="1720,1220 1820,1220 1820,1280 1900,1280"/>
  <polyline fill="none" stroke="#55606c" stroke-width="2" marker-end="url(#arrow)" points="1670,1500 1800,1500 1800,1520 1900,1520"/>
  <polyline fill="none" stroke="#55606c" stroke-width="2" marker-end="url(#arrow)" points="1670,1520 1820,1520 1820,1460 1900,1460"/>
  <polyline fill="none" stroke="#55606c" stroke-width="2" marker-end="url(#arrow)" points="2000,1520 2080,1520 2080,1480 1900,1480"/>
  <polyline fill="none" stroke="#55606c" stroke-width="2" marker-end="url(#arrow)" points="1410,1020 1540,1020 1540,880 1620,880"/>
  <polyline fill="none" stroke="#55606c" stroke-width="2" marker-end="url(#arrow)" points="1950,1120 2020,1120 2020,1080 2160,1080"/>
  <polyline fill="none" stroke="#55606c" stroke-width="2" marker-end="url(#arrow)" points="1950,1460 2060,1460 2060,1300 1900,1300"/>
  <polyline fill="none" stroke="#55606c" stroke-width="2" marker-end="url(#arrow)" points="1720,880 1880,880 1880,820 1900,820"/>
  <polyline fill="none" stroke="#55606c" stroke-width="2" marker-end="url(#arrow)" points="1950,1280 2040,1280 2040,1100 2160,1100"/>
  <polyline fill="none" stroke="#55606c" stroke-width="2" marker-end="url(#arrow)" points="2000,820 2100,820 2100,920 2160,920"/>
  <polyline fill="none" stroke="#55606c" stroke-width="2" marker-end="url(#arrow)" points="2210,1080 2280,1080 2280,940 2160,940"/>
  <polyline fill="none" stroke="#55606c" stroke-width="2" marker-end="url(#arrow)" points="2210,920 2280,920 2280,860 2380,860"/>
  <circle cx="138" cy="558" r="18" fill="#ffffff" stroke="#203040" stroke-width="3"/>
  <text x="138" y="598" font-family="Segoe UI, Arial, sans-serif" font-size="12" text-anchor="middle" fill="#203040">Default_init</text>
  <polygon points="345,640 370,665 345,690 320,665" fill="#fff7e0" stroke="#8a6d1f" stroke-width="2"/>
  <text x="345" y="712" font-family="Segoe UI, Arial, sans-serif" font-size="12" text-anchor="middle" fill="#203040">PAR</text>
  <rect x="540" y="620" width="100" height="80" rx="12" ry="12" fill="#f6fbff" stroke="#2b5876" stroke-width="2"/>
  <text x="590" y="722" font-family="Segoe UI, Arial, sans-serif" font-size="12" text-anchor="middle" fill="#203040">Detail Functionalities</text>
  <polygon points="845,860 870,885 845,910 820,885" fill="#fff7e0" stroke="#8a6d1f" stroke-width="2"/>
  <text x="845" y="932" font-family="Segoe UI, Arial, sans-serif" font-size="12" text-anchor="middle" fill="#203040">PAR</text>
  <rect x="1080" y="800" width="100" height="80" rx="12" ry="12" fill="#f6fbff" stroke="#2b5876" stroke-width="2"/>
  <text x="1130" y="902" font-family="Segoe UI, Arial, sans-serif" font-size="12" text-anchor="middle" fill="#203040">Model Database Entities and I...</text>
  <polygon points="565,860 590,885 565,910 540,885" fill="#fff7e0" stroke="#8a6d1f" stroke-width="2"/>
  <text x="565" y="932" font-family="Segoe UI, Arial, sans-serif" font-size="12" text-anchor="middle" fill="#203040">PAR</text>
  <rect x="820" y="880" width="100" height="80" rx="12" ry="12" fill="#f6fbff" stroke="#2b5876" stroke-width="2"/>
  <text x="870" y="982" font-family="Segoe UI, Arial, sans-serif" font-size="12" text-anchor="middle" fill="#203040">Implement Initial Screens</text>
  <polygon points="845,1160 870,1185 845,1210 820,1185" fill="#fff7e0" stroke="#8a6d1f" stroke-width="2"/>
  <text x="845" y="1232" font-family="Segoe UI, Arial, sans-serif" font-size="12" text-anchor="middle" fill="#203040">G1</text>
  <rect x="1080" y="1360" width="100" height="80" rx="12" ry="12" fill="#f6fbff" stroke="#2b5876" stroke-width="2"/>
  <text x="1130" y="1462" font-family="Segoe UI, Arial, sans-serif" font-size="12" text-anchor="middle" fill="#203040">Configure API Infrastructure</text>
  <rect x="1360" y="860" width="100" height="80" rx="12" ry="12" fill="#f6fbff" stroke="#2b5876" stroke-width="2"/>
  <text x="1410" y="962" font-family="Segoe UI, Arial, sans-serif" font-size="12" text-anchor="middle" fill="#203040">Perform Partial Validations</text>
  <polygon points="1105,1120 1130,1145 1105,1170 1080,1145" fill="#fff7e0" stroke="#8a6d1f" stroke-width="2"/>
  <text x="1105" y="1192" font-family="Segoe UI, Arial, sans-serif" font-size="12" text-anchor="middle" fill="#203040">PAR</text>
  <rect x="1360" y="1140" width="100" height="80" rx="12" ry="12" fill="#f6fbff" stroke="#2b5876" stroke-width="2"/>
  <text x="1410" y="1242" font-family="Segoe UI, Arial, sans-serif" font-size="12" text-anchor="middle" fill="#203040">Approve Platform Project</text>
  <rect x="1360" y="1300" width="100" height="80" rx="12" ry="12" fill="#f6fbff" stroke="#2b5876" stroke-width="2"/>
  <text x="1410" y="1402" font-family="Segoe UI, Arial, sans-serif" font-size="12" text-anchor="middle" fill="#203040">Perform Vulnerability Assessm...</text>
  <rect x="1080" y="960" width="100" height="80" rx="12" ry="12" fill="#f6fbff" stroke="#2b5876" stroke-width="2"/>
  <text x="1130" y="1062" font-family="Segoe UI, Arial, sans-serif" font-size="12" text-anchor="middle" fill="#203040">Integrate Modules</text>
  <polygon points="1105,1180 1130,1205 1105,1230 1080,1205" fill="#fff7e0" stroke="#8a6d1f" stroke-width="2"/>
  <text x="1105" y="1252" font-family="Segoe UI, Arial, sans-serif" font-size="12" text-anchor="middle" fill="#203040">XORCLOSE15</text>
  <polygon points="1645,1060 1670,1085 1645,1110 1620,1085" fill="#fff7e0" stroke="#8a6d1f" stroke-width="2"/>
  <text x="1645" y="1132" font-family="Segoe UI, Arial, sans-serif" font-size="12" text-anchor="middle" fill="#203040">G2</text>
  <rect x="1900" y="1060" width="100" height="80" rx="12" ry="12" fill="#f6fbff" stroke="#2b5876" stroke-width="2"/>
  <text x="1950" y="1162" font-family="Segoe UI, Arial, sans-serif" font-size="12" text-anchor="middle" fill="#203040">Configure External Integrations</text>
  <rect x="1620" y="1180" width="100" height="80" rx="12" ry="12" fill="#f6fbff" stroke="#2b5876" stroke-width="2"/>
  <text x="1670" y="1282" font-family="Segoe UI, Arial, sans-serif" font-size="12" text-anchor="middle" fill="#203040">Prepare Interface Prototypes</text>
  <polygon points="1645,1480 1670,1505 1645,1530 1620,1505" fill="#fff7e0" stroke="#8a6d1f" stroke-width="2"/>
  <text x="1645" y="1552" font-family="Segoe UI, Arial, sans-serif" font-size="12" text-anchor="middle" fill="#203040">G3</text>
  <rect x="1900" y="1480" width="100" height="80" rx="12" ry="12" fill="#f6fbff" stroke="#2b5876" stroke-width="2"/>
  <text x="1950" y="1582" font-family="Segoe UI, Arial, sans-serif" font-size="12" text-anchor="middle" fill="#203040">Correct and Test Vulnerabilities</text>
  <polygon points="1385,1000 1410,1025 1385,1050 1360,1025" fill="#fff7e0" stroke="#8a6d1f" stroke-width="2"/>
  <text x="1385" y="1072" font-family="Segoe UI, Arial, sans-serif" font-size="12" text-anchor="middle" fill="#203040">PARCLOSE23</text>
  <polygon points="1925,1100 1950,1125 1925,1150 1900,1125" fill="#fff7e0" stroke="#8a6d1f" stroke-width="2"/>
  <text x="1925" y="1172" font-family="Segoe UI, Arial, sans-serif" font-size="12" text-anchor="middle" fill="#203040">XORCLOSE24</text>
  <polygon points="1925,1440 1950,1465 1925,1490 1900,1465" fill="#fff7e0" stroke="#8a6d1f" stroke-width="2"/>
  <text x="1925" y="1512" font-family="Segoe UI, Arial, sans-serif" font-size="12" text-anchor="middle" fill="#203040">XORCLOSE26</text>
  <rect x="1620" y="840" width="100" height="80" rx="12" ry="12" fill="#f6fbff" stroke="#2b5876" stroke-width="2"/>
  <text x="1670" y="942" font-family="Segoe UI, Arial, sans-serif" font-size="12" text-anchor="middle" fill="#203040">Deploy to Staging Environment</text>
  <polygon points="1925,1260 1950,1285 1925,1310 1900,1285" fill="#fff7e0" stroke="#8a6d1f" stroke-width="2"/>
  <text x="1925" y="1332" font-family="Segoe UI, Arial, sans-serif" font-size="12" text-anchor="middle" fill="#203040">PARCLOSE29</text>
  <rect x="1900" y="780" width="100" height="80" rx="12" ry="12" fill="#f6fbff" stroke="#2b5876" stroke-width="2"/>
  <text x="1950" y="882" font-family="Segoe UI, Arial, sans-serif" font-size="12" text-anchor="middle" fill="#203040">Finalize and Release to Produ...</text>
  <polygon points="2185,1060 2210,1085 2185,1110 2160,1085" fill="#fff7e0" stroke="#8a6d1f" stroke-width="2"/>
  <text x="2185" y="1132" font-family="Segoe UI, Arial, sans-serif" font-size="12" text-anchor="middle" fill="#203040">PARCLOSE31</text>
  <polygon points="2185,900 2210,925 2185,950 2160,925" fill="#fff7e0" stroke="#8a6d1f" stroke-width="2"/>
  <text x="2185" y="972" font-family="Segoe UI, Arial, sans-serif" font-size="12" text-anchor="middle" fill="#203040">PARCLOSE32</text>
  <circle cx="2398" cy="858" r="18" fill="#ffffff" stroke="#203040" stroke-width="3"/>
  <text x="2398" y="898" font-family="Segoe UI, Arial, sans-serif" font-size="12" text-anchor="middle" fill="#203040">END_EVENT</text>
</svg>
