<svg xmlns="http://www.w3.org/2000/svg" version="1.1"
     xmlns:xlink="http://www.w3.org/1999/xlink"
 width="2680" height="1920" viewBox="0 0 2680 1920">
  <defs>
    <marker id="arrow" markerWidth="10" markerHeight="10" refX="9" refY="3" orient="auto" markerUnits="strokeWidth">
      <path d="M0,0 L0,6 L9,3 z" fill="#55606c"/>
    </marker>
  </defs>
  <rect x="0" y="0" width="100%" height="100%" fill="#ffffff"/>
  <polyline fill="none" stroke="#55606c" stroke-width="2" marker-end="url(#arrow)" points="156,360 220,360 220,420 320,420"/>
  <polyline fill="none" stroke="#55606c" stroke-width="2" marker-end="url(#arrow)" points="370,420 440,420 440,380 540,380"/>
  <polyline fill="none" stroke="#55606c" stroke-width="2" marker-end="url(#arrow)" points="370,440 460,440 460,540 540,540"/>
  <polyline fill="none" stroke="#55606c" stroke-width="2" marker-end="url(#arrow)" points="640,380 720,380 720,480 820,480"/>
  <polyline fill="none" stroke="#55606c" stroke-width="2" marker-end="url(#arrow)" points="640,540 720,540 720,640 820,640"/>
  <polyline fill="none" stroke="#55606c" stroke-width="2" marker-end="url(#arrow)" points="920,480 1000,480 1000,780 1080,780"/>
  <polyline fill="none" stroke="#55606c" stroke-width="2" marker-end="url(#arrow)" points="920,640 1000,640 1000,920 1080,920"/>
  <polyline fill="none" stroke="#55606c" stroke-width="2" marker-end="url(#arrow)" points="1130,780 1300,780"/>
  <polyline fill="none" stroke="#55606c" stroke-width="2" marker-end="url(#arrow)" points="1130,800 1220,800 1220,1060 1300,1060"/>
  <polyline fill="none" stroke="#55606c" stroke-width="2" marker-end="url(#arrow)" points="1400,780 1480,780 1480,980 1580,980"/>
  <polyline fill="none" stroke="#55606c" stroke-width="2" marker-end="url(#arrow)" points="1350,1060 1440,1060 1440,1140 1580,1140"/>
  <polyline fill="none" stroke="#55606c" stroke-width="2" marker-end="url(#arrow)" points="1350,1080 1460,1080 1460,1180 1580,1180"/>
  <polyline fill="none" stroke="#55606c" stroke-width="2" marker-end="url(#arrow)" points="1680,1140 1760,1140 1760,1200 1580,1200"/>
  <polyline fill="none" stroke="#55606c" stroke-width="2" marker-end="url(#arrow)" points="1130,920 1240,920 1240,1300 1300,1300"/>
  <polyline fill="none" stroke="#55606c" stroke-width="2" marker-end="url(#arrow)" points="1130,940 1300,940"/>
  <polyline fill="none" stroke="#55606c" stroke-width="2" marker-end="url(#arrow)" points="1350,1300 1480,1300 1480,1420 1580,1420"/>
  <polyline fill="none" stroke="#55606c" stroke-width="2" marker-end="url(#arrow)" points="1350,1320 1500,1320 1500,1240 1580,1240"/>
  <polyline fill="none" stroke="#55606c" stroke-width="2" marker-end="url(#arrow)" points="1680,1420 1760,1420 1760,1260 1580,1260"/>
  <polyline fill="none" stroke="#55606c" stroke-width="2" marker-end="url(#arrow)" points="1630,980 1700,980 1700,1180 1840,1180"/>
  <polyline fill="none" stroke="#55606c" stroke-width="2" marker-end="url(#arrow)" points="1630,1000 1720,1000 1720,1020 1840,1020"/>
  <polyline fill="none" stroke="#55606c" stroke-width="2" marker-end="url(#arrow)" points="1940,1180 2020,1180 2020,1220 2120,1220"/>
  <polyline fill="none" stroke="#55606c" stroke-width="2" marker-end="url(#arrow)" points="1940,1020 2020,1020 2020,1120 2120,1120"/>
  <polyline fill="none" stroke="#55606c" stroke-width="2" marker-end="url(#arrow)" points="1630,1180 1740,1180 1740,1340 1840,1340"/>
  <polyline fill="none" stroke="#55606c" stroke-width="2" marker-end="url(#arrow)" points="1400,940 1560,940 1560,1020 1580,1020"/>
  <polyline fill="none" stroke="#55606c" stroke-width="2" marker-end="url(#arrow)" points="1630,1240 1740,1240 1740,1040 1580,1040"/>
  <polyline fill="none" stroke="#55606c" stroke-width="2" marker-end="url(#arrow)" points="2170,1220 2240,1220 2240,1320 2380,1320"/>
  <polyline fill="none" stroke="#55606c" stroke-width="2" marker-end="url(#arrow)" points="2170,1240 2260,1240 2260,1200 2380,1200"/>
  <polyline fill="none" stroke="#55606c" stroke-width="2" marker-end="url(#arrow)" points="2480,1320 2560,1320 2560,1220 2380,1220"/>
  <polyline fill="none" stroke="#55606c" stroke-width="2" marker-end="url(#arrow)" points="1940,1340 2040,1340 2040,1120 2120,1120"/>
  <polyline fill="none" stroke="#55606c" stroke-width="2" marker-end="url(#arrow)" points="1630,1020 1760,1020 1760,940 1840,940"/>
  <polyline fill="none" stroke="#55606c" stroke-width="2" marker-end="url(#arrow)" points="2430,1200 2480,1200 2480,1560 2080,1560 2080,1140 2120,1140"/>
  <polyline fill="none" stroke="#55606c" stroke-width="2" marker-end="url(#arrow)" points="2170,1120 2240,1120 2240,1140 2120,1140"/>
  <polyline fill="none" stroke="#55606c" stroke-width="2" marker-end="url(#arrow)" points="2170,1120 2220,1120 2220,1660 1780,1660 1780,960 1840,960"/>
  <polyline fill="none" stroke="#55606c" stroke-width="2" marker-end="url(#arrow)" points="1890,940 2020,940 2020,700 2120,700"/>
  <polyline fill="none" stroke="#55606c" stroke-width="2" marker-end="url(#arrow)" points="2220,700 2320,700 2320,580 2380,580"/>
  <circle cx="138" cy="358" r="18" fill="#ffffff" stroke="#203040" stroke-width="3"/>
  <text x="138" y="398" font-family="Segoe UI, Arial, sans-serif" font-size="12" text-anchor="middle" fill="#203040">Default_init</text>
  <polygon points="345,400 370,425 345,450 320,425" fill="#fff7e0" stroke="#8a6d1f" stroke-width="2"/>
  <text x="345" y="472" font-family="Segoe UI, Arial, sans-serif" font-size="12" text-anchor="middle" fill="#203040">PAR</text>
  <rect x="540" y="340" width="100" height="80" rx="12" ry="12" fill="#f6fbff" stroke="#2b5876" stroke-width="2"/>
  <text x="590" y="442" font-family="Segoe UI, Arial, sans-serif" font-size="12" text-anchor="middle" fill="#203040">Perform Vulnerability Assessm...</text>
  <rect x="540" y="500" width="100" height="80" rx="12" ry="12" fill="#f6fbff" stroke="#2b5876" stroke-width="2"/>
  <text x="590" y="602" font-family="Segoe UI, Arial, sans-serif" font-size="12" text-anchor="middle" fill="#203040">Perform Partial Validations</text>
  <rect x="820" y="440" width="100" height="80" rx="12" ry="12" fill="#f6fbff" stroke="#2b5876" stroke-width="2"/>
  <text x="870" y="542" font-family="Segoe UI, Arial, sans-serif" font-size="12" text-anchor="middle" fill="#203040">Detail Functionalities</text>
  <rect x="820" y="600" width="100" height="80" rx="12" ry="12" fill="#f6fbff" stroke="#2b5876" stroke-width="2"/>
  <text x="870" y="702" font-family="Segoe UI, Arial, sans-serif" font-size="12" text-anchor="middle" fill="#203040">Approve Platform Project</text>
  <polygon points="1105,760 1130,785 1105,810 1080,785" fill="#fff7e0" stroke="#8a6d1f" stroke-width="2"/>
  <text x="1105" y="832" font-family="Segoe UI, Arial, sans-serif" font-size="12" text-anchor="middle" fill="#203040">PAR</text>
  <rect x="1300" y="740" width="100" height="80" rx="12" ry="12" fill="#f6fbff" stroke="#2b5876" stroke-width="2"/>
  <text x="1350" y="842" font-family="Segoe UI, Arial, sans-serif" font-size="12" text-anchor="middle" fill="#203040">Implement Initial Screens</text>
  <polygon points="1325,1040 1350,1065 1325,1090 1300,1065" fill="#fff7e0" stroke="#8a6d1f" stroke-width="2"/>
  <text x="1325" y="1112" font-family="Segoe UI, Arial, sans-serif" font-size="12" text-anchor="middle" fill="#203040">G1</text>
  <rect x="1580" y="1100" width="100" height="80" rx="12" ry="12" fill="#f6fbff" stroke="#2b5876" stroke-width="2"/>
  <text x="1630" y="1202" font-family="Segoe UI, Arial, sans-serif" font-size="12" text-anchor="middle" fill="#203040">Correct and Test Vulnerabilities</text>
  <polygon points="1105,900 1130,925 1105,950 1080,925" fill="#fff7e0" stroke="#8a6d1f" stroke-width="2"/>
  <text x="1105" y="972" font-family="Segoe UI, Arial, sans-serif" font-size="12" text-anchor="middle" fill="#203040">PAR</text>
  <polygon points="1325,1280 1350,1305 1325,1330 1300,1305" fill="#fff7e0" stroke="#8a6d1f" stroke-width="2"/>
  <text x="1325" y="1352" font-family="Segoe UI, Arial, sans-serif" font-size="12" text-anchor="middle" fill="#203040">G3</text>
  <rect x="1580" y="1380" width="100" height="80" rx="12" ry="12" fill="#f6fbff" stroke="#2b5876" stroke-width="2"/>
  <text x="1630" y="1482" font-family="Segoe UI, Arial, sans-serif" font-size="12" text-anchor="middle" fill="#203040">Configure API Infrastructure</text>
  <polygon points="1605,960 1630,985 1605,1010 1580,985" fill="#fff7e0" stroke="#8a6d1f" stroke-width="2"/>
  <text x="1605" y="1032" font-family="Segoe UI, Arial, sans-serif" font-size="12" text-anchor="middle" fill="#203040">PAR</text>
  <rect x="1840" y="1140" width="100" height="80" rx="12" ry="12" fill="#f6fbff" stroke="#2b5876" stroke-width="2"/>
  <text x="1890" y="1242" font-family="Segoe UI, Arial, sans-serif" font-size="12" text-anchor="middle" fill="#203040">Model Database Entities and I...</text>
  <rect x="1840" y="980" width="100" height="80" rx="12" ry="12" fill="#f6fbff" stroke="#2b5876" stroke-width="2"/>
  <text x="1890" y="1082" font-family="Segoe UI, Arial, sans-serif" font-size="12" text-anchor="middle" fill="#203040">Integrate Modules</text>
  <polygon points="1605,1160 1630,1185 1605,1210 1580,1185" fill="#fff7e0" stroke="#8a6d1f" stroke-width="2"/>
  <text x="1605" y="1232" font-family="Segoe UI, Arial, sans-serif" font-size="12" text-anchor="middle" fill="#203040">XORCLOSE18</text>
  <rect x="1300" y="900" width="100" height="80" rx="12" ry="12" fill="#f6fbff" stroke="#2b5876" stroke-width="2"/>
  <text x="1350" y="1002" font-family="Segoe UI, Arial, sans-serif" font-size="12" text-anchor="middle" fill="#203040">Prepare Interface Prototypes</text>
  <polygon points="1605,1220 1630,1245 1605,1270 1580,1245" fill="#fff7e0" stroke="#8a6d1f" stroke-width="2"/>
  <text x="1605" y="1292" font-family="Segoe UI, Arial, sans-serif" font-size="12" text-anchor="middle" fill="#203040">XORCLOSE20</text>
  <polygon points="2145,1200 2170,1225 2145,1250 2120,1225" fill="#fff7e0" stroke="#8a6d1f" stroke-width="2"/>
  <text x="2145" y="1272" font-family="Segoe UI, Arial, sans-serif" font-size="12" text-anchor="middle" fill="#203040">G4</text>
  <rect x="2380" y="1280" width="100" height="80" rx="12" ry="12" fill="#f6fbff" stroke="#2b5876" stroke-width="2"/>
  <text x="2430" y="1382" font-family="Segoe UI, Arial, sans-serif" font-size="12" text-anchor="middle" fill="#203040">Configure External Integrations</text>
  <rect x="1840" y="1300" width="100" height="80" rx="12" ry="12" fill="#f6fbff" stroke="#2b5876" stroke-width="2"/>
  <text x="1890" y="1402" font-family="Segoe UI, Arial, sans-serif" font-size="12" text-anchor="middle" fill="#203040">Deploy to Staging Environment</text>
  <polygon points="1605,1000 1630,1025 1605,1050 1580,1025" fill="#fff7e0" stroke="#8a6d1f" stroke-width="2"/>
  <text x="1605" y="1072" font-family="Segoe UI, Arial, sans-serif" font-size="12" text-anchor="middle" fill="#203040">PARCLOSE25</text>
  <polygon points="2405,1180 2430,1205 2405,1230 2380,1205" fill="#fff7e0" stroke="#8a6d1f" stroke-width="2"/>
  <text x="2405" y="1252" font-family="Segoe UI, Arial, sans-serif" font-size="12" text-anchor="middle" fill="#203040">XORCLOSE26</text>
  <polygon points="2145,1100 2170,1125 2145,1150 2120,1125" fill="#fff7e0" stroke="#8a6d1f" stroke-width="2"/>
  <text x="2145" y="1172" font-family="Segoe UI, Arial, sans-serif" font-size="12" text-anchor="middle" fill="#203040">PARCLOSE27</text>
  <polygon points="2145,1100 2170,1125 2145,1150 2120,1125" fill="#fff7e0" stroke="#8a6d1f" stroke-width="2"/>
  <text x="2145" y="1172" font-family="Segoe UI, Arial, sans-serif" font-size="12" text-anchor="middle" fill="#203040">PARCLOSE28</text>
  <polygon points="1865,920 1890,945 1865,970 1840,945" fill="#fff7e0" stroke="#8a6d1f" stroke-width="2"/>
  <text x="1865" y="992" font-family="Segoe UI, Arial, sans-serif" font-size="12" text-anchor="middle" fill="#203040">PARCLOSE29</text>
  <rect x="2120" y="660" width="100" height="80" rx="12" ry="12" fill="#f6fbff" stroke="#2b5876" stroke-width="2"/>
  <text x="2170" y="762" font-family="Segoe UI, Arial, sans-serif" font-size="12" text-anchor="middle" fill="#203040">Finalize and Release to Produ...</text>
  <circle cx="2398" cy="578" r="18" fill="#ffffff" stroke="#203040" stroke-width="3"/>
  <text x="2398" y="618" font-family="Segoe UI, Arial, sans-serif" font-size="12" text-anchor="middle" fill="#203040">END_EVENT</text>
</svg>
