<svg xmlns="http://www.w3.org/2000/svg" version="1.1"
     xmlns:xlink="http://www.w3.org/1999/xlink"
 width="2616" height="2020" viewBox="0 0 2616 2020">
  <defs>
    <marker id="arrow" markerWidth="10" markerHeight="10" refX="9" refY="3" orient="auto" markerUnits="strokeWidth">
      <path d="M0,0 L0,6 L9,3 z" fill="#55606c"/>
    </marker>
  </defs>
  <rect x="0" y="0" width="100%" height="100%" fill="#ffffff"/>
  <polyline fill="none" stroke="#55606c" stroke-width="2" marker-end="url(#arrow)" points="156,520 220,520 220,620 320,620"/>
  <polyline fill="none" stroke="#55606c" stroke-width="2" marker-end="url(#arrow)" points="370,620 440,620 440,520 540,520"/>
  <polyline fill="none" stroke="#55606c" stroke-width="2" marker-end="url(#arrow)" points="370,640 460,640 460,900 540,900"/>
  <polyline fill="none" stroke="#55606c" stroke-width="2" marker-end="url(#arrow)" points="640,520 720,520 720,600 820,600"/>
  <polyline fill="none" stroke="#55606c" stroke-width="2" marker-end="url(#arrow)" points="870,600 940,600 940,560 1080,560"/>
  <polyline fill="none" stroke="#55606c" stroke-width="2" marker-end="url(#arrow)" points="870,620 960,620 960,720 1080,720"/>
  <polyline fill="none" stroke="#55606c" stroke-width="2" marker-end="url(#arrow)" points="1180,560 1260,560 1260,640 1360,640"/>
  <polyline fill="none" stroke="#55606c" stroke-width="2" marker-end="url(#arrow)" points="1180,720 1260,720 1260,800 1360,800"/>
  <polyline fill="none" stroke="#55606c" stroke-width="2" marker-end="url(#arrow)" points="590,900 680,900 680,980 820,980"/>
  <polyline fill="none" stroke="#55606c" stroke-width="2" marker-end="url(#arrow)" points="590,920 700,920 700,1200 820,1200"/>
  <polyline fill="none" stroke="#55606c" stroke-width="2" marker-end="url(#arrow)" points="920,980 1020,980 1020,1240 1080,1240"/>
  <polyline fill="none" stroke="#55606c" stroke-width="2" marker-end="url(#arrow)" points="870,1200 1000,1200 1000,1280 1080,1280"/>
  <polyline fill="none" stroke="#55606c" stroke-width="2" marker-end="url(#arrow)" points="870,1220 1020,1220 1020,1280 1080,1280"/>
  <polyline fill="none" stroke="#55606c" stroke-width="2" marker-end="url(#arrow)" points="1180,1280 1260,1280 1260,1300 1080,1300"/>
  <polyline fill="none" stroke="#55606c" stroke-width="2" marker-end="url(#arrow)" points="1460,640 1540,640 1540,840 1620,840"/>
  <polyline fill="none" stroke="#55606c" stroke-width="2" marker-end="url(#arrow)" points="1460,800 1540,800 1540,880 1620,880"/>
  <polyline fill="none" stroke="#55606c" stroke-width="2" marker-end="url(#arrow)" points="1130,1240 1240,1240 1240,1220 1360,1220"/>
  <polyline fill="none" stroke="#55606c" stroke-width="2" marker-end="url(#arrow)" points="1130,1260 1260,1260 1260,1480 1360,1480"/>
  <polyline fill="none" stroke="#55606c" stroke-width="2" marker-end="url(#arrow)" points="1460,1220 1560,1220 1560,1280 1620,1280"/>
  <polyline fill="none" stroke="#55606c" stroke-width="2" marker-end="url(#arrow)" points="1410,1480 1540,1480 1540,1520 1620,1520"/>
  <polyline fill="none" stroke="#55606c" stroke-width="2" marker-end="url(#arrow)" points="1410,1500 1560,1500 1560,1400 1620,1400"/>
  <polyline fill="none" stroke="#55606c" stroke-width="2" marker-end="url(#arrow)" points="1720,1520 1800,1520 1800,1420 1620,1420"/>
  <polyline fill="none" stroke="#55606c" stroke-width="2" marker-end="url(#arrow)" points="1130,1280 1280,1280 1280,1380 1360,1380"/>
  <polyline fill="none" stroke="#55606c" stroke-width="2" marker-end="url(#arrow)" points="1670,840 1740,840 1740,1080 1900,1080"/>
  <polyline fill="none" stroke="#55606c" stroke-width="2" marker-end="url(#arrow)" points="1670,860 1760,860 1760,960 1900,960"/>
  <polyline fill="none" stroke="#55606c" stroke-width="2" marker-end="url(#arrow)" points="2000,1080 2080,1080 2080,980 1900,980"/>
  <polyline fill="none" stroke="#55606c" stroke-width="2" marker-end="url(#arrow)" points="1720,880 1820,880 1820,920 1900,920"/>
  <polyline fill="none" stroke="#55606c" stroke-width="2" marker-end="url(#arrow)" points="1670,1400 1760,1400 1760,1300 1620,1300"/>
  <polyline fill="none" stroke="#55606c" stroke-width="2" marker-end="url(#arrow)" points="1460,1380 1620,1380 1620,1360"/>
  <polyline fill="none" stroke="#55606c" stroke-width="2" marker-end="url(#arrow)" points="1950,960 2040,960 2040,940 1900,940"/>
  <polyline fill="none" stroke="#55606c" stroke-width="2" marker-end="url(#arrow)" points="1950,920 2020,920 2020,1020 2160,1020"/>
  <polyline fill="none" stroke="#55606c" stroke-width="2" marker-end="url(#arrow)" points="1670,1280 1800,1280 1800,1200 1900,1200"/>
  <polyline fill="none" stroke="#55606c" stroke-width="2" marker-end="url(#arrow)" points="1720,1360 1860,1360 1860,1220 1900,1220"/>
  <polyline fill="none" stroke="#55606c" stroke-width="2" marker-end="url(#arrow)" points="1950,1200 2040,1200 2040,1040 2160,1040"/>
  <polyline fill="none" stroke="#55606c" stroke-width="2" marker-end="url(#arrow)" points="2210,1020 2280,1020 2280,920 2380,920"/>
  <circle cx="138" cy="518" r="18" fill="#ffffff" stroke="#203040" stroke-width="3"/>
  <text x="138" y="558" font-family="Segoe UI, Arial, sans-serif" font-size="12" text-anchor="middle" fill="#203040">Default_init</text>
  <polygon points="345,600 370,625 345,650 320,625" fill="#fff7e0" stroke="#8a6d1f" stroke-width="2"/>
  <text x="345" y="672" font-family="Segoe UI, Arial, sans-serif" font-size="12" text-anchor="middle" fill="#203040">PAR</text>
  <rect x="540" y="480" width="100" height="80" rx="12" ry="12" fill="#f6fbff" stroke="#2b5876" stroke-width="2"/>
  <text x="590" y="582" font-family="Segoe UI, Arial, sans-serif" font-size="12" text-anchor="middle" fill="#203040">Detail Functionalities</text>
  <polygon points="845,580 870,605 845,630 820,605" fill="#fff7e0" stroke="#8a6d1f" stroke-width="2"/>
  <text x="845" y="652" font-family="Segoe UI, Arial, sans-serif" font-size="12" text-anchor="middle" fill="#203040">PAR</text>
  <rect x="1080" y="520" width="100" height="80" rx="12" ry="12" fill="#f6fbff" stroke="#2b5876" stroke-width="2"/>
  <text x="1130" y="622" font-family="Segoe UI, Arial, sans-serif" font-size="12" text-anchor="middle" fill="#203040">Implement Initial Screens</text>
  <rect x="1080" y="680" width="100" height="80" rx="12" ry="12" fill="#f6fbff" stroke="#2b5876" stroke-width="2"/>
  <text x="1130" y="782" font-family="Segoe UI, Arial, sans-serif" font-size="12" text-anchor="middle" fill="#203040">Perform Vulnerability Assessm...</text>
  <polygon points="565,880 590,905 565,930 540,905" fill="#fff7e0" stroke="#8a6d1f" stroke-width="2"/>
  <text x="565" y="952" font-family="Segoe UI, Arial, sans-serif" font-size="12" text-anchor="middle" fill="#203040">PAR</text>
  <rect x="820" y="940" width="100" height="80" rx="12" ry="12" fill="#f6fbff" stroke="#2b5876" stroke-width="2"/>
  <text x="870" y="1042" font-family="Segoe UI, Arial, sans-serif" font-size="12" text-anchor="middle" fill="#203040">Approve Platform Project</text>
  <polygon points="845,1180 870,1205 845,1230 820,1205" fill="#fff7e0" stroke="#8a6d1f" stroke-width="2"/>
  <text x="845" y="1252" font-family="Segoe UI, Arial, sans-serif" font-size="12" text-anchor="middle" fill="#203040">G1</text>
  <rect x="1080" y="1240" width="100" height="80" rx="12" ry="12" fill="#f6fbff" stroke="#2b5876" stroke-width="2"/>
  <text x="1130" y="1342" font-family="Segoe UI, Arial, sans-serif" font-size="12" text-anchor="middle" fill="#203040">Configure API Infrastructure</text>
  <rect x="1360" y="600" width="100" height="80" rx="12" ry="12" fill="#f6fbff" stroke="#2b5876" stroke-width="2"/>
  <text x="1410" y="702" font-family="Segoe UI, Arial, sans-serif" font-size="12" text-anchor="middle" fill="#203040">Integrate Modules</text>
  <rect x="1360" y="760" width="100" height="80" rx="12" ry="12" fill="#f6fbff" stroke="#2b5876" stroke-width="2"/>
  <text x="1410" y="862" font-family="Segoe UI, Arial, sans-serif" font-size="12" text-anchor="middle" fill="#203040">Perform Partial Validations</text>
  <polygon points="1105,1220 1130,1245 1105,1270 1080,1245" fill="#fff7e0" stroke="#8a6d1f" stroke-width="2"/>
  <text x="1105" y="1292" font-family="Segoe UI, Arial, sans-serif" font-size="12" text-anchor="middle" fill="#203040">PAR</text>
  <rect x="1360" y="1180" width="100" height="80" rx="12" ry="12" fill="#f6fbff" stroke="#2b5876" stroke-width="2"/>
  <text x="1410" y="1282" font-family="Segoe UI, Arial, sans-serif" font-size="12" text-anchor="middle" fill="#203040">Model Database Entities and I...</text>
  <polygon points="1385,1460 1410,1485 1385,1510 1360,1485" fill="#fff7e0" stroke="#8a6d1f" stroke-width="2"/>
  <text x="1385" y="1532" font-family="Segoe UI, Arial, sans-serif" font-size="12" text-anchor="middle" fill="#203040">G3</text>
  <rect x="1620" y="1480" width="100" height="80" rx="12" ry="12" fill="#f6fbff" stroke="#2b5876" stroke-width="2"/>
  <text x="1670" y="1582" font-family="Segoe UI, Arial, sans-serif" font-size="12" text-anchor="middle" fill="#203040">Correct and Test Vulnerabilities</text>
  <polygon points="1105,1260 1130,1285 1105,1310 1080,1285" fill="#fff7e0" stroke="#8a6d1f" stroke-width="2"/>
  <text x="1105" y="1332" font-family="Segoe UI, Arial, sans-serif" font-size="12" text-anchor="middle" fill="#203040">XORCLOSE17</text>
  <polygon points="1645,820 1670,845 1645,870 1620,845" fill="#fff7e0" stroke="#8a6d1f" stroke-width="2"/>
  <text x="1645" y="892" font-family="Segoe UI, Arial, sans-serif" font-size="12" text-anchor="middle" fill="#203040">G4</text>
  <rect x="1900" y="1040" width="100" height="80" rx="12" ry="12" fill="#f6fbff" stroke="#2b5876" stroke-width="2"/>
  <text x="1950" y="1142" font-family="Segoe UI, Arial, sans-serif" font-size="12" text-anchor="middle" fill="#203040">Configure External Integrations</text>
  <rect x="1620" y="840" width="100" height="80" rx="12" ry="12" fill="#f6fbff" stroke="#2b5876" stroke-width="2"/>
  <text x="1670" y="942" font-family="Segoe UI, Arial, sans-serif" font-size="12" text-anchor="middle" fill="#203040">Prepare Interface Prototypes</text>
  <polygon points="1645,1380 1670,1405 1645,1430 1620,1405" fill="#fff7e0" stroke="#8a6d1f" stroke-width="2"/>
  <text x="1645" y="1452" font-family="Segoe UI, Arial, sans-serif" font-size="12" text-anchor="middle" fill="#203040">XORCLOSE22</text>
  <rect x="1360" y="1340" width="100" height="80" rx="12" ry="12" fill="#f6fbff" stroke="#2b5876" stroke-width="2"/>
  <text x="1410" y="1442" font-family="Segoe UI, Arial, sans-serif" font-size="12" text-anchor="middle" fill="#203040">Deploy to Staging Environment</text>
  <polygon points="1925,940 1950,965 1925,990 1900,965" fill="#fff7e0" stroke="#8a6d1f" stroke-width="2"/>
  <text x="1925" y="1012" font-family="Segoe UI, Arial, sans-serif" font-size="12" text-anchor="middle" fill="#203040">XORCLOSE24</text>
  <polygon points="1925,900 1950,925 1925,950 1900,925" fill="#fff7e0" stroke="#8a6d1f" stroke-width="2"/>
  <text x="1925" y="972" font-family="Segoe UI, Arial, sans-serif" font-size="12" text-anchor="middle" fill="#203040">PARCLOSE25</text>
  <polygon points="1645,1260 1670,1285 1645,1310 1620,1285" fill="#fff7e0" stroke="#8a6d1f" stroke-width="2"/>
  <text x="1645" y="1332" font-family="Segoe UI, Arial, sans-serif" font-size="12" text-anchor="middle" fill="#203040">PARCLOSE26</text>
  <rect x="1620" y="1320" width="100" height="80" rx="12" ry="12" fill="#f6fbff" stroke="#2b5876" stroke-width="2"/>
  <text x="1670" y="1422" font-family="Segoe UI, Arial, sans-serif" font-size="12" text-anchor="middle" fill="#203040">Finalize and Release to Produ...</text>
  <polygon points="1925,1180 1950,1205 1925,1230 1900,1205" fill="#fff7e0" stroke="#8a6d1f" stroke-width="2"/>
  <text x="1925" y="1252" font-family="Segoe UI, Arial, sans-serif" font-size="12" text-anchor="middle" fill="#203040">PARCLOSE28</text>
  <polygon points="2185,1000 2210,1025 2185,1050 2160,1025" fill="#fff7e0" stroke="#8a6d1f" stroke-width="2"/>
  <text x="2185" y="1072" font-family="Segoe UI, Arial, sans-serif" font-size="12" text-anchor="middle" fill="#203040">PARCLOSE29</text>
  <circle cx="2398" cy="918" r="18" fill="#ffffff" stroke="#203040" stroke-width="3"/>
  <text x="2398" y="958" font-family="Segoe UI, Arial, sans-serif" font-size="12" text-anchor="middle" fill="#203040">END_EVENT</text>
</svg>
