<svg xmlns="http://www.w3.org/2000/svg" version="1.1"
     xmlns:xlink="http://www.w3.org/1999/xlink"
 width="3696" height="1280" viewBox="0 0 3696 1280">
  <defs>
    <marker id="arrow" markerWidth="10" markerHeight="10" refX="9" refY="3" orient="auto" markerUnits="strokeWidth">
      <path d="M0,0 L0,6 L9,3 z" fill="#55606c"/>
    </marker>
  </defs>
  <rect x="0" y="0" width="100%" height="100%" fill="#ffffff"/>
  <polyline fill="none" stroke="#55606c" stroke-width="2" marker-end="url(#arrow)" points="156,160 320,160"/>
  <polyline fill="none" stroke="#55606c" stroke-width="2" marker-end="url(#arrow)" points="420,160 500,160 500,180 600,180"/>
  <polyline fill="none" stroke="#55606c" stroke-width="2" marker-end="url(#arrow)" points="700,180 780,180 780,240 860,240"/>
  <polyline fill="none" stroke="#55606c" stroke-width="2" marker-end="url(#arrow)" points="960,240 1040,240 1040,340 1140,340"/>
  <polyline fill="none" stroke="#55606c" stroke-width="2" marker-end="url(#arrow)" points="1190,340 1260,340 1260,320 1360,320"/>
  <polyline fill="none" stroke="#55606c" stroke-width="2" marker-end="url(#arrow)" points="1190,360 1280,360 1280,480 1360,480"/>
  <polyline fill="none" stroke="#55606c" stroke-width="2" marker-end="url(#arrow)" points="1460,320 1540,320 1540,340 1620,340"/>
  <polyline fill="none" stroke="#55606c" stroke-width="2" marker-end="url(#arrow)" points="1720,340 1800,340 1800,440 1900,440"/>
  <polyline fill="none" stroke="#55606c" stroke-width="2" marker-end="url(#arrow)" points="1460,480 1540,480 1540,500 1620,500"/>
  <polyline fill="none" stroke="#55606c" stroke-width="2" marker-end="url(#arrow)" points="1950,440 2020,440 2020,420 2160,420"/>
  <polyline fill="none" stroke="#55606c" stroke-width="2" marker-end="url(#arrow)" points="1950,460 2040,460 2040,420 2160,420"/>
  <polyline fill="none" stroke="#55606c" stroke-width="2" marker-end="url(#arrow)" points="2260,420 2340,420 2340,440 2160,440"/>
  <polyline fill="none" stroke="#55606c" stroke-width="2" marker-end="url(#arrow)" points="1720,500 1800,500 1800,560 1900,560"/>
  <polyline fill="none" stroke="#55606c" stroke-width="2" marker-end="url(#arrow)" points="2000,560 2100,560 2100,640 2160,640"/>
  <polyline fill="none" stroke="#55606c" stroke-width="2" marker-end="url(#arrow)" points="2210,640 2280,640 2280,780 2440,780"/>
  <polyline fill="none" stroke="#55606c" stroke-width="2" marker-end="url(#arrow)" points="2210,660 2300,660 2300,620 2440,620"/>
  <polyline fill="none" stroke="#55606c" stroke-width="2" marker-end="url(#arrow)" points="2540,780 2620,780 2620,760 2700,760"/>
  <polyline fill="none" stroke="#55606c" stroke-width="2" marker-end="url(#arrow)" points="2540,620 2700,620"/>
  <polyline fill="none" stroke="#55606c" stroke-width="2" marker-end="url(#arrow)" points="2210,420 2440,420"/>
  <polyline fill="none" stroke="#55606c" stroke-width="2" marker-end="url(#arrow)" points="2800,760 2880,760 2880,640 2700,640"/>
  <polyline fill="none" stroke="#55606c" stroke-width="2" marker-end="url(#arrow)" points="2540,420 2700,420"/>
  <polyline fill="none" stroke="#55606c" stroke-width="2" marker-end="url(#arrow)" points="2750,620 2820,620 2820,480 2980,480"/>
  <polyline fill="none" stroke="#55606c" stroke-width="2" marker-end="url(#arrow)" points="2800,420 2880,420 2880,500 2980,500"/>
  <polyline fill="none" stroke="#55606c" stroke-width="2" marker-end="url(#arrow)" points="3030,480 3100,480 3100,400 3200,400"/>
  <polyline fill="none" stroke="#55606c" stroke-width="2" marker-end="url(#arrow)" points="3300,400 3380,400 3380,360 3460,360"/>
  <circle cx="138" cy="158" r="18" fill="#ffffff" stroke="#203040" stroke-width="3"/>
  <text x="138" y="198" font-family="Segoe UI, Arial, sans-serif" font-size="12" text-anchor="middle" fill="#203040">Default_init</text>
  <rect x="320" y="120" width="100" height="80" rx="12" ry="12" fill="#f6fbff" stroke="#2b5876" stroke-width="2"/>
  <text x="370" y="222" font-family="Segoe UI, Arial, sans-serif" font-size="12" text-anchor="middle" fill="#203040">Approve Product Concept</text>
  <rect x="600" y="140" width="100" height="80" rx="12" ry="12" fill="#f6fbff" stroke="#2b5876" stroke-width="2"/>
  <text x="650" y="242" font-family="Segoe UI, Arial, sans-serif" font-size="12" text-anchor="middle" fill="#203040">Develop Structural Components</text>
  <rect x="860" y="200" width="100" height="80" rx="12" ry="12" fill="#f6fbff" stroke="#2b5876" stroke-width="2"/>
  <text x="910" y="302" font-family="Segoe UI, Arial, sans-serif" font-size="12" text-anchor="middle" fill="#203040">Negotiate with Suppliers</text>
  <polygon points="1165,320 1190,345 1165,370 1140,345" fill="#fff7e0" stroke="#8a6d1f" stroke-width="2"/>
  <text x="1165" y="392" font-family="Segoe UI, Arial, sans-serif" font-size="12" text-anchor="middle" fill="#203040">PAR</text>
  <rect x="1360" y="280" width="100" height="80" rx="12" ry="12" fill="#f6fbff" stroke="#2b5876" stroke-width="2"/>
  <text x="1410" y="382" font-family="Segoe UI, Arial, sans-serif" font-size="12" text-anchor="middle" fill="#203040">Design Circuits and Sensors</text>
  <rect x="1620" y="300" width="100" height="80" rx="12" ry="12" fill="#f6fbff" stroke="#2b5876" stroke-width="2"/>
  <text x="1670" y="402" font-family="Segoe UI, Arial, sans-serif" font-size="12" text-anchor="middle" fill="#203040">Produce Prototypes</text>
  <rect x="1360" y="440" width="100" height="80" rx="12" ry="12" fill="#f6fbff" stroke="#2b5876" stroke-width="2"/>
  <text x="1410" y="542" font-family="Segoe UI, Arial, sans-serif" font-size="12" text-anchor="middle" fill="#203040">Update Cost and Logistics Ana...</text>
  <polygon points="1925,420 1950,445 1925,470 1900,445" fill="#fff7e0" stroke="#8a6d1f" stroke-width="2"/>
  <text x="1925" y="492" font-family="Segoe UI, Arial, sans-serif" font-size="12" text-anchor="middle" fill="#203040">G0</text>
  <rect x="2160" y="380" width="100" height="80" rx="12" ry="12" fill="#f6fbff" stroke="#2b5876" stroke-width="2"/>
  <text x="2210" y="482" font-family="Segoe UI, Arial, sans-serif" font-size="12" text-anchor="middle" fill="#203040">Modify Technical Drawings</text>
  <rect x="1620" y="460" width="100" height="80" rx="12" ry="12" fill="#f6fbff" stroke="#2b5876" stroke-width="2"/>
  <text x="1670" y="562" font-family="Segoe UI, Arial, sans-serif" font-size="12" text-anchor="middle" fill="#203040">Develop and Validate Embedded...</text>
  <rect x="1900" y="520" width="100" height="80" rx="12" ry="12" fill="#f6fbff" stroke="#2b5876" stroke-width="2"/>
  <text x="1950" y="622" font-family="Segoe UI, Arial, sans-serif" font-size="12" text-anchor="middle" fill="#203040">Consolidate Technical Documen...</text>
  <polygon points="2185,620 2210,645 2185,670 2160,645" fill="#fff7e0" stroke="#8a6d1f" stroke-width="2"/>
  <text x="2185" y="692" font-family="Segoe UI, Arial, sans-serif" font-size="12" text-anchor="middle" fill="#203040">PAR</text>
  <rect x="2440" y="740" width="100" height="80" rx="12" ry="12" fill="#f6fbff" stroke="#2b5876" stroke-width="2"/>
  <text x="2490" y="842" font-family="Segoe UI, Arial, sans-serif" font-size="12" text-anchor="middle" fill="#203040">Prepare Production Line</text>
  <rect x="2440" y="580" width="100" height="80" rx="12" ry="12" fill="#f6fbff" stroke="#2b5876" stroke-width="2"/>
  <text x="2490" y="682" font-family="Segoe UI, Arial, sans-serif" font-size="12" text-anchor="middle" fill="#203040">Prepare Training Materials</text>
  <polygon points="2185,400 2210,425 2185,450 2160,425" fill="#fff7e0" stroke="#8a6d1f" stroke-width="2"/>
  <text x="2185" y="472" font-family="Segoe UI, Arial, sans-serif" font-size="12" text-anchor="middle" fill="#203040">XORCLOSE16</text>
  <rect x="2700" y="720" width="100" height="80" rx="12" ry="12" fill="#f6fbff" stroke="#2b5876" stroke-width="2"/>
  <text x="2750" y="822" font-family="Segoe UI, Arial, sans-serif" font-size="12" text-anchor="middle" fill="#203040">Perform Mechanical Tests</text>
  <rect x="2440" y="380" width="100" height="80" rx="12" ry="12" fill="#f6fbff" stroke="#2b5876" stroke-width="2"/>
  <text x="2490" y="482" font-family="Segoe UI, Arial, sans-serif" font-size="12" text-anchor="middle" fill="#203040">Perform Inspections</text>
  <polygon points="2725,600 2750,625 2725,650 2700,625" fill="#fff7e0" stroke="#8a6d1f" stroke-width="2"/>
  <text x="2725" y="672" font-family="Segoe UI, Arial, sans-serif" font-size="12" text-anchor="middle" fill="#203040">PARCLOSE19</text>
  <rect x="2700" y="380" width="100" height="80" rx="12" ry="12" fill="#f6fbff" stroke="#2b5876" stroke-width="2"/>
  <text x="2750" y="482" font-family="Segoe UI, Arial, sans-serif" font-size="12" text-anchor="middle" fill="#203040">Final Validation</text>
  <polygon points="3005,460 3030,485 3005,510 2980,485" fill="#fff7e0" stroke="#8a6d1f" stroke-width="2"/>
  <text x="3005" y="532" font-family="Segoe UI, Arial, sans-serif" font-size="12" text-anchor="middle" fill="#203040">PARCLOSE21</text>
  <rect x="3200" y="360" width="100" height="80" rx="12" ry="12" fill="#f6fbff" stroke="#2b5876" stroke-width="2"/>
  <text x="3250" y="462" font-family="Segoe UI, Arial, sans-serif" font-size="12" text-anchor="middle" fill="#203040">Authorize Large-Scale Production</text>
  <circle cx="3478" cy="358" r="18" fill="#ffffff" stroke="#203040" stroke-width="3"/>
  <text x="3478" y="398" font-family="Segoe UI, Arial, sans-serif" font-size="12" text-anchor="middle" fill="#203040">END_EVENT</text>
</svg>
