<svg xmlns="http://www.w3.org/2000/svg" version="1.1"
     xmlns:xlink="http://www.w3.org/1999/xlink"
 width="3180" height="1600" viewBox="0 0 3180 1600">
  <defs>
    <marker id="arrow" markerWidth="10" markerHeight="10" refX="9" refY="3" orient="auto" markerUnits="strokeWidth">
      <path d="M0,0 L0,6 L9,3 z" fill="#55606c"/>
    </marker>
  </defs>
  <rect x="0" y="0" width="100%" height="100%" fill="#ffffff"/>
  <polyline fill="none" stroke="#55606c" stroke-width="2" marker-end="url(#arrow)" points="156,400 220,400 220,440 320,440"/>
  <polyline fill="none" stroke="#55606c" stroke-width="2" marker-end="url(#arrow)" points="370,440 440,440 440,400 540,400"/>
  <polyline fill="none" stroke="#55606c" stroke-width="2" marker-end="url(#arrow)" points="370,460 460,460 460,560 540,560"/>
  <polyline fill="none" stroke="#55606c" stroke-width="2" marker-end="url(#arrow)" points="640,400 720,400 720,440 820,440"/>
  <polyline fill="none" stroke="#55606c" stroke-width="2" marker-end="url(#arrow)" points="640,560 720,560 720,460 820,460"/>
  <polyline fill="none" stroke="#55606c" stroke-width="2" marker-end="url(#arrow)" points="870,440 940,440 940,400 1040,400"/>
  <polyline fill="none" stroke="#55606c" stroke-width="2" marker-end="url(#arrow)" points="1140,400 1220,400 1220,460 1300,460"/>
  <polyline fill="none" stroke="#55606c" stroke-width="2" marker-end="url(#arrow)" points="1350,460 1420,460 1420,380 1520,380"/>
  <polyline fill="none" stroke="#55606c" stroke-width="2" marker-end="url(#arrow)" points="1350,480 1440,480 1440,640 1520,640"/>
  <polyline fill="none" stroke="#55606c" stroke-width="2" marker-end="url(#arrow)" points="1620,380 1700,380 1700,320 1800,320"/>
  <polyline fill="none" stroke="#55606c" stroke-width="2" marker-end="url(#arrow)" points="1900,320 1980,320 1980,400 2060,400"/>
  <polyline fill="none" stroke="#55606c" stroke-width="2" marker-end="url(#arrow)" points="1570,640 1660,640 1660,800 1800,800"/>
  <polyline fill="none" stroke="#55606c" stroke-width="2" marker-end="url(#arrow)" points="1570,660 1680,660 1680,640 1800,640"/>
  <polyline fill="none" stroke="#55606c" stroke-width="2" marker-end="url(#arrow)" points="1900,800 1980,800 1980,940 2060,940"/>
  <polyline fill="none" stroke="#55606c" stroke-width="2" marker-end="url(#arrow)" points="2160,400 2240,400 2240,520 2340,520"/>
  <polyline fill="none" stroke="#55606c" stroke-width="2" marker-end="url(#arrow)" points="2110,940 2340,940"/>
  <polyline fill="none" stroke="#55606c" stroke-width="2" marker-end="url(#arrow)" points="2110,960 2220,960 2220,1100 2340,1100"/>
  <polyline fill="none" stroke="#55606c" stroke-width="2" marker-end="url(#arrow)" points="2440,940 2520,940 2520,900 2600,900"/>
  <polyline fill="none" stroke="#55606c" stroke-width="2" marker-end="url(#arrow)" points="2440,1100 2520,1100 2520,1060 2600,1060"/>
  <polyline fill="none" stroke="#55606c" stroke-width="2" marker-end="url(#arrow)" points="1900,640 2000,640 2000,720 2060,720"/>
  <polyline fill="none" stroke="#55606c" stroke-width="2" marker-end="url(#arrow)" points="2700,900 2880,900"/>
  <polyline fill="none" stroke="#55606c" stroke-width="2" marker-end="url(#arrow)" points="2700,1060 2780,1060 2780,900 2880,900"/>
  <polyline fill="none" stroke="#55606c" stroke-width="2" marker-end="url(#arrow)" points="2160,720 2280,720 2280,680 2340,680"/>
  <polyline fill="none" stroke="#55606c" stroke-width="2" marker-end="url(#arrow)" points="2980,900 3060,900 3060,920 2880,920"/>
  <polyline fill="none" stroke="#55606c" stroke-width="2" marker-end="url(#arrow)" points="2440,680 2540,680 2540,700 2600,700"/>
  <polyline fill="none" stroke="#55606c" stroke-width="2" marker-end="url(#arrow)" points="2930,900 2980,900 2980,1240 2560,1240 2560,720 2600,720"/>
  <polyline fill="none" stroke="#55606c" stroke-width="2" marker-end="url(#arrow)" points="2650,700 2700,700 2700,1340 2280,1340 2280,540 2340,540"/>
  <polyline fill="none" stroke="#55606c" stroke-width="2" marker-end="url(#arrow)" points="2390,520 2520,520 2520,500 2600,500"/>
  <circle cx="138" cy="398" r="18" fill="#ffffff" stroke="#203040" stroke-width="3"/>
  <text x="138" y="438" font-family="Segoe UI, Arial, sans-serif" font-size="12" text-anchor="middle" fill="#203040">Default_init</text>
  <polygon points="345,420 370,445 345,470 320,445" fill="#fff7e0" stroke="#8a6d1f" stroke-width="2"/>
  <text x="345" y="492" font-family="Segoe UI, Arial, sans-serif" font-size="12" text-anchor="middle" fill="#203040">PAR</text>
  <rect x="540" y="360" width="100" height="80" rx="12" ry="12" fill="#f6fbff" stroke="#2b5876" stroke-width="2"/>
  <text x="590" y="462" font-family="Segoe UI, Arial, sans-serif" font-size="12" text-anchor="middle" fill="#203040">Approve Product Concept</text>
  <rect x="540" y="520" width="100" height="80" rx="12" ry="12" fill="#f6fbff" stroke="#2b5876" stroke-width="2"/>
  <text x="590" y="622" font-family="Segoe UI, Arial, sans-serif" font-size="12" text-anchor="middle" fill="#203040">Develop Structural Components</text>
  <polygon points="845,420 870,445 845,470 820,445" fill="#fff7e0" stroke="#8a6d1f" stroke-width="2"/>
  <text x="845" y="492" font-family="Segoe UI, Arial, sans-serif" font-size="12" text-anchor="middle" fill="#203040">PARCLOSE7</text>
  <rect x="1040" y="360" width="100" height="80" rx="12" ry="12" fill="#f6fbff" stroke="#2b5876" stroke-width="2"/>
  <text x="1090" y="462" font-family="Segoe UI, Arial, sans-serif" font-size="12" text-anchor="middle" fill="#203040">Produce Prototypes</text>
  <polygon points="1325,440 1350,465 1325,490 1300,465" fill="#fff7e0" stroke="#8a6d1f" stroke-width="2"/>
  <text x="1325" y="512" font-family="Segoe UI, Arial, sans-serif" font-size="12" text-anchor="middle" fill="#203040">PAR</text>
  <rect x="1520" y="340" width="100" height="80" rx="12" ry="12" fill="#f6fbff" stroke="#2b5876" stroke-width="2"/>
  <text x="1570" y="442" font-family="Segoe UI, Arial, sans-serif" font-size="12" text-anchor="middle" fill="#203040">Negotiate with Suppliers</text>
  <rect x="1800" y="280" width="100" height="80" rx="12" ry="12" fill="#f6fbff" stroke="#2b5876" stroke-width="2"/>
  <text x="1850" y="382" font-family="Segoe UI, Arial, sans-serif" font-size="12" text-anchor="middle" fill="#203040">Modify Technical Drawings</text>
  <polygon points="1545,620 1570,645 1545,670 1520,645" fill="#fff7e0" stroke="#8a6d1f" stroke-width="2"/>
  <text x="1545" y="692" font-family="Segoe UI, Arial, sans-serif" font-size="12" text-anchor="middle" fill="#203040">PAR</text>
  <rect x="1800" y="760" width="100" height="80" rx="12" ry="12" fill="#f6fbff" stroke="#2b5876" stroke-width="2"/>
  <text x="1850" y="862" font-family="Segoe UI, Arial, sans-serif" font-size="12" text-anchor="middle" fill="#203040">Update Cost and Logistics Ana...</text>
  <rect x="2060" y="360" width="100" height="80" rx="12" ry="12" fill="#f6fbff" stroke="#2b5876" stroke-width="2"/>
  <text x="2110" y="462" font-family="Segoe UI, Arial, sans-serif" font-size="12" text-anchor="middle" fill="#203040">Design Circuits and Sensors</text>
  <polygon points="2085,920 2110,945 2085,970 2060,945" fill="#fff7e0" stroke="#8a6d1f" stroke-width="2"/>
  <text x="2085" y="992" font-family="Segoe UI, Arial, sans-serif" font-size="12" text-anchor="middle" fill="#203040">PAR</text>
  <rect x="2340" y="900" width="100" height="80" rx="12" ry="12" fill="#f6fbff" stroke="#2b5876" stroke-width="2"/>
  <text x="2390" y="1002" font-family="Segoe UI, Arial, sans-serif" font-size="12" text-anchor="middle" fill="#203040">Develop and Validate Embedded...</text>
  <rect x="2340" y="1060" width="100" height="80" rx="12" ry="12" fill="#f6fbff" stroke="#2b5876" stroke-width="2"/>
  <text x="2390" y="1162" font-family="Segoe UI, Arial, sans-serif" font-size="12" text-anchor="middle" fill="#203040">Consolidate Technical Documen...</text>
  <rect x="1800" y="600" width="100" height="80" rx="12" ry="12" fill="#f6fbff" stroke="#2b5876" stroke-width="2"/>
  <text x="1850" y="702" font-family="Segoe UI, Arial, sans-serif" font-size="12" text-anchor="middle" fill="#203040">Perform Mechanical Tests</text>
  <rect x="2600" y="860" width="100" height="80" rx="12" ry="12" fill="#f6fbff" stroke="#2b5876" stroke-width="2"/>
  <text x="2650" y="962" font-family="Segoe UI, Arial, sans-serif" font-size="12" text-anchor="middle" fill="#203040">Prepare Production Line</text>
  <rect x="2600" y="1020" width="100" height="80" rx="12" ry="12" fill="#f6fbff" stroke="#2b5876" stroke-width="2"/>
  <text x="2650" y="1122" font-family="Segoe UI, Arial, sans-serif" font-size="12" text-anchor="middle" fill="#203040">Prepare Training Materials</text>
  <rect x="2060" y="680" width="100" height="80" rx="12" ry="12" fill="#f6fbff" stroke="#2b5876" stroke-width="2"/>
  <text x="2110" y="782" font-family="Segoe UI, Arial, sans-serif" font-size="12" text-anchor="middle" fill="#203040">Final Validation</text>
  <rect x="2880" y="860" width="100" height="80" rx="12" ry="12" fill="#f6fbff" stroke="#2b5876" stroke-width="2"/>
  <text x="2930" y="962" font-family="Segoe UI, Arial, sans-serif" font-size="12" text-anchor="middle" fill="#203040">Perform Inspections</text>
  <rect x="2340" y="640" width="100" height="80" rx="12" ry="12" fill="#f6fbff" stroke="#2b5876" stroke-width="2"/>
  <text x="2390" y="742" font-family="Segoe UI, Arial, sans-serif" font-size="12" text-anchor="middle" fill="#203040">Authorize Large-Scale Production</text>
  <polygon points="2905,880 2930,905 2905,930 2880,905" fill="#fff7e0" stroke="#8a6d1f" stroke-width="2"/>
  <text x="2905" y="952" font-family="Segoe UI, Arial, sans-serif" font-size="12" text-anchor="middle" fill="#203040">PARCLOSE24</text>
  <polygon points="2625,680 2650,705 2625,730 2600,705" fill="#fff7e0" stroke="#8a6d1f" stroke-width="2"/>
  <text x="2625" y="752" font-family="Segoe UI, Arial, sans-serif" font-size="12" text-anchor="middle" fill="#203040">PARCLOSE25</text>
  <polygon points="2365,500 2390,525 2365,550 2340,525" fill="#fff7e0" stroke="#8a6d1f" stroke-width="2"/>
  <text x="2365" y="572" font-family="Segoe UI, Arial, sans-serif" font-size="12" text-anchor="middle" fill="#203040">PARCLOSE26</text>
  <circle cx="2618" cy="498" r="18" fill="#ffffff" stroke="#203040" stroke-width="3"/>
  <text x="2618" y="538" font-family="Segoe UI, Arial, sans-serif" font-size="12" text-anchor="middle" fill="#203040">END_EVENT</text>
</svg>
