<svg xmlns="http://www.w3.org/2000/svg" version="1.1"
     xmlns:xlink="http://www.w3.org/1999/xlink"
 width="3940" height="1740" viewBox="0 0 3940 1740">
  <defs>
    <marker id="arrow" markerWidth="10" markerHeight="10" refX="9" refY="3" orient="auto" markerUnits="strokeWidth">
      <path d="M0,0 L0,6 L9,3 z" fill="#55606c"/>
    </marker>
  </defs>
  <rect x="0" y="0" width="100%" height="100%" fill="#ffffff"/>
  <polyline fill="none" stroke="#55606c" stroke-width="2" marker-end="url(#arrow)" points="156,260 220,260 220,300 320,300"/>
  <polyline fill="none" stroke="#55606c" stroke-width="2" marker-end="url(#arrow)" points="420,300 500,300 500,460 600,460"/>
  <polyline fill="none" stroke="#55606c" stroke-width="2" marker-end="url(#arrow)" points="650,460 820,460"/>
  <polyline fill="none" stroke="#55606c" stroke-width="2" marker-end="url(#arrow)" points="650,480 740,480 740,600 820,600"/>
  <polyline fill="none" stroke="#55606c" stroke-width="2" marker-end="url(#arrow)" points="920,460 1000,460 1000,560 1080,560"/>
  <polyline fill="none" stroke="#55606c" stroke-width="2" marker-end="url(#arrow)" points="1400,560 1480,560 1480,640 1580,640"/>
  <polyline fill="none" stroke="#55606c" stroke-width="2" marker-end="url(#arrow)" points="1630,640 1700,640 1700,780 1800,780"/>
  <polyline fill="none" stroke="#55606c" stroke-width="2" marker-end="url(#arrow)" points="1630,660 1720,660 1720,620 1800,620"/>
  <polyline fill="none" stroke="#55606c" stroke-width="2" marker-end="url(#arrow)" points="1900,620 1980,620 1980,640 2060,640"/>
  <polyline fill="none" stroke="#55606c" stroke-width="2" marker-end="url(#arrow)" points="1900,780 1980,780 1980,1000 2060,1000"/>
  <polyline fill="none" stroke="#55606c" stroke-width="2" marker-end="url(#arrow)" points="2110,1000 2180,1000 2180,1040 2280,1040"/>
  <polyline fill="none" stroke="#55606c" stroke-width="2" marker-end="url(#arrow)" points="2110,1020 2200,1020 2200,1200 2280,1200"/>
  <polyline fill="none" stroke="#55606c" stroke-width="2" marker-end="url(#arrow)" points="2380,1040 2460,1040 2460,1080 2560,1080"/>
  <polyline fill="none" stroke="#55606c" stroke-width="2" marker-end="url(#arrow)" points="2380,1200 2460,1200 2460,1240 2560,1240"/>
  <polyline fill="none" stroke="#55606c" stroke-width="2" marker-end="url(#arrow)" points="2660,1240 2740,1240 2740,1200 2820,1200"/>
  <polyline fill="none" stroke="#55606c" stroke-width="2" marker-end="url(#arrow)" points="2920,1200 2960,1200 2960,1380 2520,1380 2520,1100 2560,1100"/>
  <polyline fill="none" stroke="#55606c" stroke-width="2" marker-end="url(#arrow)" points="2610,1080 2700,1080 2700,1040 2820,1040"/>
  <polyline fill="none" stroke="#55606c" stroke-width="2" marker-end="url(#arrow)" points="2920,1040 3000,1040 3000,1020 3100,1020"/>
  <polyline fill="none" stroke="#55606c" stroke-width="2" marker-end="url(#arrow)" points="3200,1020 3280,1020 3280,900 3360,900"/>
  <polyline fill="none" stroke="#55606c" stroke-width="2" marker-end="url(#arrow)" points="3460,900 3540,900 3540,860 3640,860"/>
  <polyline fill="none" stroke="#55606c" stroke-width="2" marker-end="url(#arrow)" points="3740,860 3800,860 3800,1480 2220,1480 2220,680 2280,680"/>
  <polyline fill="none" stroke="#55606c" stroke-width="2" marker-end="url(#arrow)" points="2330,680 2400,680 2400,1560 740,1560 740,620 820,620"/>
  <polyline fill="none" stroke="#55606c" stroke-width="2" marker-end="url(#arrow)" points="870,600 960,600 960,640 1080,640"/>
  <polyline fill="none" stroke="#55606c" stroke-width="2" marker-end="url(#arrow)" points="2110,640 2220,640 2220,700 2280,700"/>
  <polyline fill="none" stroke="#55606c" stroke-width="2" marker-end="url(#arrow)" points="2110,660 2200,660 2200,1660 980,1660 980,580 1080,580"/>
  <polyline fill="none" stroke="#55606c" stroke-width="2" marker-end="url(#arrow)" points="1130,560 1300,560"/>
  <circle cx="138" cy="258" r="18" fill="#ffffff" stroke="#203040" stroke-width="3"/>
  <text x="138" y="298" font-family="Segoe UI, Arial, sans-serif" font-size="12" text-anchor="middle" fill="#203040">Default_init</text>
  <rect x="320" y="260" width="100" height="80" rx="12" ry="12" fill="#f6fbff" stroke="#2b5876" stroke-width="2"/>
  <text x="370" y="362" font-family="Segoe UI, Arial, sans-serif" font-size="12" text-anchor="middle" fill="#203040">Check Current Inventory Level</text>
  <polygon points="625,440 650,465 625,490 600,465" fill="#fff7e0" stroke="#8a6d1f" stroke-width="2"/>
  <text x="625" y="512" font-family="Segoe UI, Arial, sans-serif" font-size="12" text-anchor="middle" fill="#203040">G0</text>
  <rect x="820" y="420" width="100" height="80" rx="12" ry="12" fill="#f6fbff" stroke="#2b5876" stroke-width="2"/>
  <text x="870" y="522" font-family="Segoe UI, Arial, sans-serif" font-size="12" text-anchor="middle" fill="#203040">Create Purchase Order</text>
  <rect x="1300" y="520" width="100" height="80" rx="12" ry="12" fill="#f6fbff" stroke="#2b5876" stroke-width="2"/>
  <text x="1350" y="622" font-family="Segoe UI, Arial, sans-serif" font-size="12" text-anchor="middle" fill="#203040">Review Purchase Order</text>
  <polygon points="1605,620 1630,645 1605,670 1580,645" fill="#fff7e0" stroke="#8a6d1f" stroke-width="2"/>
  <text x="1605" y="692" font-family="Segoe UI, Arial, sans-serif" font-size="12" text-anchor="middle" fill="#203040">G1</text>
  <rect x="1800" y="580" width="100" height="80" rx="12" ry="12" fill="#f6fbff" stroke="#2b5876" stroke-width="2"/>
  <text x="1850" y="682" font-family="Segoe UI, Arial, sans-serif" font-size="12" text-anchor="middle" fill="#203040">Rework Purchase Order</text>
  <rect x="1800" y="740" width="100" height="80" rx="12" ry="12" fill="#f6fbff" stroke="#2b5876" stroke-width="2"/>
  <text x="1850" y="842" font-family="Segoe UI, Arial, sans-serif" font-size="12" text-anchor="middle" fill="#203040">Accept Purchase Order</text>
  <polygon points="2085,980 2110,1005 2085,1030 2060,1005" fill="#fff7e0" stroke="#8a6d1f" stroke-width="2"/>
  <text x="2085" y="1052" font-family="Segoe UI, Arial, sans-serif" font-size="12" text-anchor="middle" fill="#203040">PAR</text>
  <rect x="2280" y="1000" width="100" height="80" rx="12" ry="12" fill="#f6fbff" stroke="#2b5876" stroke-width="2"/>
  <text x="2330" y="1102" font-family="Segoe UI, Arial, sans-serif" font-size="12" text-anchor="middle" fill="#203040">Reserve Purchase Funds</text>
  <rect x="2280" y="1160" width="100" height="80" rx="12" ry="12" fill="#f6fbff" stroke="#2b5876" stroke-width="2"/>
  <text x="2330" y="1262" font-family="Segoe UI, Arial, sans-serif" font-size="12" text-anchor="middle" fill="#203040">Send Purchase Order to Supplier</text>
  <rect x="2560" y="1200" width="100" height="80" rx="12" ry="12" fill="#f6fbff" stroke="#2b5876" stroke-width="2"/>
  <text x="2610" y="1302" font-family="Segoe UI, Arial, sans-serif" font-size="12" text-anchor="middle" fill="#203040">Receive Order Invoice</text>
  <rect x="2820" y="1160" width="100" height="80" rx="12" ry="12" fill="#f6fbff" stroke="#2b5876" stroke-width="2"/>
  <text x="2870" y="1262" font-family="Segoe UI, Arial, sans-serif" font-size="12" text-anchor="middle" fill="#203040">Record Order Invoice</text>
  <polygon points="2585,1060 2610,1085 2585,1110 2560,1085" fill="#fff7e0" stroke="#8a6d1f" stroke-width="2"/>
  <text x="2585" y="1132" font-family="Segoe UI, Arial, sans-serif" font-size="12" text-anchor="middle" fill="#203040">PARCLOSE13</text>
  <rect x="2820" y="1000" width="100" height="80" rx="12" ry="12" fill="#f6fbff" stroke="#2b5876" stroke-width="2"/>
  <text x="2870" y="1102" font-family="Segoe UI, Arial, sans-serif" font-size="12" text-anchor="middle" fill="#203040">Receive Order Packing Slip</text>
  <rect x="3100" y="980" width="100" height="80" rx="12" ry="12" fill="#f6fbff" stroke="#2b5876" stroke-width="2"/>
  <text x="3150" y="1082" font-family="Segoe UI, Arial, sans-serif" font-size="12" text-anchor="middle" fill="#203040">Record Order Packing Slip</text>
  <rect x="3360" y="860" width="100" height="80" rx="12" ry="12" fill="#f6fbff" stroke="#2b5876" stroke-width="2"/>
  <text x="3410" y="962" font-family="Segoe UI, Arial, sans-serif" font-size="12" text-anchor="middle" fill="#203040">Release Funds</text>
  <rect x="3640" y="820" width="100" height="80" rx="12" ry="12" fill="#f6fbff" stroke="#2b5876" stroke-width="2"/>
  <text x="3690" y="922" font-family="Segoe UI, Arial, sans-serif" font-size="12" text-anchor="middle" fill="#203040">Issue Payment to Supplier</text>
  <polygon points="2305,660 2330,685 2305,710 2280,685" fill="#fff7e0" stroke="#8a6d1f" stroke-width="2"/>
  <text x="2305" y="732" font-family="Segoe UI, Arial, sans-serif" font-size="12" text-anchor="middle" fill="#203040">XORCLOSE18</text>
  <polygon points="845,580 870,605 845,630 820,605" fill="#fff7e0" stroke="#8a6d1f" stroke-width="2"/>
  <text x="845" y="652" font-family="Segoe UI, Arial, sans-serif" font-size="12" text-anchor="middle" fill="#203040">XORCLOSE19</text>
  <circle cx="1098" cy="638" r="18" fill="#ffffff" stroke="#203040" stroke-width="3"/>
  <text x="1098" y="678" font-family="Segoe UI, Arial, sans-serif" font-size="12" text-anchor="middle" fill="#203040">END_EVENT</text>
  <polygon points="2085,620 2110,645 2085,670 2060,645" fill="#fff7e0" stroke="#8a6d1f" stroke-width="2"/>
  <text x="2085" y="692" font-family="Segoe UI, Arial, sans-serif" font-size="12" text-anchor="middle" fill="#203040">XOR_JMPAA_Rework Purchase Order</text>
  <polygon points="1105,540 1130,565 1105,590 1080,565" fill="#fff7e0" stroke="#8a6d1f" stroke-width="2"/>
  <text x="1105" y="612" font-family="Segoe UI, Arial, sans-serif" font-size="12" text-anchor="middle" fill="#203040">XOR_JMPBB_Review Purchase Order</text>
</svg>
