<svg xmlns="http://www.w3.org/2000/svg" version="1.1"
     xmlns:xlink="http://www.w3.org/1999/xlink"
 width="3230" height="3080" viewBox="0 0 3230 3080">
  <defs>
    <marker id="arrow" markerWidth="10" markerHeight="10" refX="9" refY="3" orient="auto" markerUnits="strokeWidth">
      <path d="M0,0 L0,6 L9,3 z" fill="#55606c"/>
    </marker>
  </defs>
  <rect x="0" y="0" width="100%" height="100%" fill="#ffffff"/>
  <polyline fill="none" stroke="#55606c" stroke-width="2" marker-end="url(#arrow)" points="156,380 220,380 220,460 320,460"/>
  <polyline fill="none" stroke="#55606c" stroke-width="2" marker-end="url(#arrow)" points="370,460 440,460 440,420 540,420"/>
  <polyline fill="none" stroke="#55606c" stroke-width="2" marker-end="url(#arrow)" points="370,480 460,480 460,580 540,580"/>
  <polyline fill="none" stroke="#55606c" stroke-width="2" marker-end="url(#arrow)" points="640,420 720,420 720,500 820,500"/>
  <polyline fill="none" stroke="#55606c" stroke-width="2" marker-end="url(#arrow)" points="640,580 720,580 720,860 820,860"/>
  <polyline fill="none" stroke="#55606c" stroke-width="2" marker-end="url(#arrow)" points="920,500 1000,500 1000,760 1080,760"/>
  <polyline fill="none" stroke="#55606c" stroke-width="2" marker-end="url(#arrow)" points="870,860 960,860 960,940 1080,940"/>
  <polyline fill="none" stroke="#55606c" stroke-width="2" marker-end="url(#arrow)" points="870,880 980,880 980,1100 1080,1100"/>
  <polyline fill="none" stroke="#55606c" stroke-width="2" marker-end="url(#arrow)" points="1180,940 1260,940 1260,1280 1360,1280"/>
  <polyline fill="none" stroke="#55606c" stroke-width="2" marker-end="url(#arrow)" points="1180,1100 1260,1100 1260,1320 1360,1320"/>
  <polyline fill="none" stroke="#55606c" stroke-width="2" marker-end="url(#arrow)" points="1130,760 1240,760 1240,820 1360,820"/>
  <polyline fill="none" stroke="#55606c" stroke-width="2" marker-end="url(#arrow)" points="1130,780 1260,780 1260,1020 1360,1020"/>
  <polyline fill="none" stroke="#55606c" stroke-width="2" marker-end="url(#arrow)" points="1460,820 1540,820 1540,960 1620,960"/>
  <polyline fill="none" stroke="#55606c" stroke-width="2" marker-end="url(#arrow)" points="1670,1620 1740,1620 1740,1680 1900,1680"/>
  <polyline fill="none" stroke="#55606c" stroke-width="2" marker-end="url(#arrow)" points="1670,1640 1760,1640 1760,2020 1900,2020"/>
  <polyline fill="none" stroke="#55606c" stroke-width="2" marker-end="url(#arrow)" points="2000,1680 2080,1680 2080,1760 2160,1760"/>
  <polyline fill="none" stroke="#55606c" stroke-width="2" marker-end="url(#arrow)" points="1460,1320 1540,1320 1540,1540 1620,1540"/>
  <polyline fill="none" stroke="#55606c" stroke-width="2" marker-end="url(#arrow)" points="1410,1020 1520,1020 1520,1060 1620,1060"/>
  <polyline fill="none" stroke="#55606c" stroke-width="2" marker-end="url(#arrow)" points="1410,1040 1540,1040 1540,1220 1620,1220"/>
  <polyline fill="none" stroke="#55606c" stroke-width="2" marker-end="url(#arrow)" points="1720,1060 1900,1060"/>
  <polyline fill="none" stroke="#55606c" stroke-width="2" marker-end="url(#arrow)" points="1720,1220 1840,1220 1840,1080 1900,1080"/>
  <polyline fill="none" stroke="#55606c" stroke-width="2" marker-end="url(#arrow)" points="1950,2020 2040,2020 2040,2100 2160,2100"/>
  <polyline fill="none" stroke="#55606c" stroke-width="2" marker-end="url(#arrow)" points="1950,2040 2060,2040 2060,2340 2160,2340"/>
  <polyline fill="none" stroke="#55606c" stroke-width="2" marker-end="url(#arrow)" points="2260,2100 2340,2100 2340,2120 2440,2120"/>
  <polyline fill="none" stroke="#55606c" stroke-width="2" marker-end="url(#arrow)" points="1950,1060 2000,1060 2000,2720 1580,2720 1580,980 1620,980"/>
  <polyline fill="none" stroke="#55606c" stroke-width="2" marker-end="url(#arrow)" points="1670,960 1820,960 1820,1100 1900,1100"/>
  <polyline fill="none" stroke="#55606c" stroke-width="2" marker-end="url(#arrow)" points="2210,2340 2300,2340 2300,2420 2440,2420"/>
  <polyline fill="none" stroke="#55606c" stroke-width="2" marker-end="url(#arrow)" points="2210,2360 2320,2360 2320,2580 2440,2580"/>
  <polyline fill="none" stroke="#55606c" stroke-width="2" marker-end="url(#arrow)" points="2540,2420 2620,2420 2620,2400 2700,2400"/>
  <polyline fill="none" stroke="#55606c" stroke-width="2" marker-end="url(#arrow)" points="2540,2580 2620,2580 2620,2420 2700,2420"/>
  <polyline fill="none" stroke="#55606c" stroke-width="2" marker-end="url(#arrow)" points="1950,1100 2160,1100"/>
  <polyline fill="none" stroke="#55606c" stroke-width="2" marker-end="url(#arrow)" points="1950,1120 2100,1120 2100,1260 2160,1260"/>
  <polyline fill="none" stroke="#55606c" stroke-width="2" marker-end="url(#arrow)" points="2750,2400 2800,2400 2800,2820 2380,2820 2380,2140 2440,2140"/>
  <polyline fill="none" stroke="#55606c" stroke-width="2" marker-end="url(#arrow)" points="2260,1100 2380,1100 2380,1060 2440,1060"/>
  <polyline fill="none" stroke="#55606c" stroke-width="2" marker-end="url(#arrow)" points="2260,1260 2400,1260 2400,1320 2440,1320"/>
  <polyline fill="none" stroke="#55606c" stroke-width="2" marker-end="url(#arrow)" points="2490,2120 2560,2120 2560,2900 2080,2900 2080,1780 2160,1780"/>
  <polyline fill="none" stroke="#55606c" stroke-width="2" marker-end="url(#arrow)" points="2540,1060 2640,1060 2640,1100 2700,1100"/>
  <polyline fill="none" stroke="#55606c" stroke-width="2" marker-end="url(#arrow)" points="2490,1320 2620,1320 2620,1280 2700,1280"/>
  <polyline fill="none" stroke="#55606c" stroke-width="2" marker-end="url(#arrow)" points="2490,1340 2640,1340 2640,1440 2700,1440"/>
  <polyline fill="none" stroke="#55606c" stroke-width="2" marker-end="url(#arrow)" points="2800,1280 2880,1280 2880,1260 2980,1260"/>
  <polyline fill="none" stroke="#55606c" stroke-width="2" marker-end="url(#arrow)" points="2800,1440 2880,1440 2880,1280 2980,1280"/>
  <polyline fill="none" stroke="#55606c" stroke-width="2" marker-end="url(#arrow)" points="2210,1760 2300,1760 2300,3000 1520,3000 1520,1560 1620,1560"/>
  <polyline fill="none" stroke="#55606c" stroke-width="2" marker-end="url(#arrow)" points="3030,1260 3140,1260 3140,3080 2580,3080 2580,1120 2700,1120"/>
  <polyline fill="none" stroke="#55606c" stroke-width="2" marker-end="url(#arrow)" points="1670,1540 1740,1540 1740,1360 1620,1360"/>
  <polyline fill="none" stroke="#55606c" stroke-width="2" marker-end="url(#arrow)" points="2750,1100 2880,1100 2880,3180 2040,3180 2040,1080 2160,1080"/>
  <polyline fill="none" stroke="#55606c" stroke-width="2" marker-end="url(#arrow)" points="2000,1240 2160,1240 2160,1100"/>
  <polyline fill="none" stroke="#55606c" stroke-width="2" marker-end="url(#arrow)" points="2210,1080 2380,1080 2380,940 2440,940"/>
  <polyline fill="none" stroke="#55606c" stroke-width="2" marker-end="url(#arrow)" points="1410,1280 1560,1280 1560,1620 1620,1620"/>
  <polyline fill="none" stroke="#55606c" stroke-width="2" marker-end="url(#arrow)" points="1410,1300 1580,1300 1580,1380 1620,1380"/>
  <polyline fill="none" stroke="#55606c" stroke-width="2" marker-end="url(#arrow)" points="1670,1360 1840,1360 1840,1240 1900,1240"/>
  <circle cx="138" cy="378" r="18" fill="#ffffff" stroke="#203040" stroke-width="3"/>
  <text x="138" y="418" font-family="Segoe UI, Arial, sans-serif" font-size="12" text-anchor="middle" fill="#203040">Default_init</text>
  <polygon points="345,440 370,465 345,490 320,465" fill="#fff7e0" stroke="#8a6d1f" stroke-width="2"/>
  <text x="345" y="512" font-family="Segoe UI, Arial, sans-serif" font-size="12" text-anchor="middle" fill="#203040">PAR</text>
  <rect x="540" y="380" width="100" height="80" rx="12" ry="12" fill="#f6fbff" stroke="#2b5876" stroke-width="2"/>
  <text x="590" y="482" font-family="Segoe UI, Arial, sans-serif" font-size="12" text-anchor="middle" fill="#203040">Pay the book/s fee</text>
  <rect x="540" y="540" width="100" height="80" rx="12" ry="12" fill="#f6fbff" stroke="#2b5876" stroke-width="2"/>
  <text x="590" y="642" font-family="Segoe UI, Arial, sans-serif" font-size="12" text-anchor="middle" fill="#203040">Order the exist gift items</text>
  <rect x="820" y="460" width="100" height="80" rx="12" ry="12" fill="#f6fbff" stroke="#2b5876" stroke-width="2"/>
  <text x="870" y="562" font-family="Segoe UI, Arial, sans-serif" font-size="12" text-anchor="middle" fill="#203040">Switch currency</text>
  <polygon points="845,840 870,865 845,890 820,865" fill="#fff7e0" stroke="#8a6d1f" stroke-width="2"/>
  <text x="845" y="912" font-family="Segoe UI, Arial, sans-serif" font-size="12" text-anchor="middle" fill="#203040">PAR</text>
  <rect x="1080" y="900" width="100" height="80" rx="12" ry="12" fill="#f6fbff" stroke="#2b5876" stroke-width="2"/>
  <text x="1130" y="1002" font-family="Segoe UI, Arial, sans-serif" font-size="12" text-anchor="middle" fill="#203040">Select a payment method</text>
  <rect x="1080" y="1060" width="100" height="80" rx="12" ry="12" fill="#f6fbff" stroke="#2b5876" stroke-width="2"/>
  <text x="1130" y="1162" font-family="Segoe UI, Arial, sans-serif" font-size="12" text-anchor="middle" fill="#203040">Change billing address</text>
  <polygon points="1105,740 1130,765 1105,790 1080,765" fill="#fff7e0" stroke="#8a6d1f" stroke-width="2"/>
  <text x="1105" y="812" font-family="Segoe UI, Arial, sans-serif" font-size="12" text-anchor="middle" fill="#203040">G3</text>
  <rect x="1360" y="780" width="100" height="80" rx="12" ry="12" fill="#f6fbff" stroke="#2b5876" stroke-width="2"/>
  <text x="1410" y="882" font-family="Segoe UI, Arial, sans-serif" font-size="12" text-anchor="middle" fill="#203040">Choose existing shipping address</text>
  <polygon points="1645,1600 1670,1625 1645,1650 1620,1625" fill="#fff7e0" stroke="#8a6d1f" stroke-width="2"/>
  <text x="1645" y="1672" font-family="Segoe UI, Arial, sans-serif" font-size="12" text-anchor="middle" fill="#203040">G4</text>
  <rect x="1900" y="1640" width="100" height="80" rx="12" ry="12" fill="#f6fbff" stroke="#2b5876" stroke-width="2"/>
  <text x="1950" y="1742" font-family="Segoe UI, Arial, sans-serif" font-size="12" text-anchor="middle" fill="#203040">Credit or Debit Cards</text>
  <rect x="1360" y="1280" width="100" height="80" rx="12" ry="12" fill="#f6fbff" stroke="#2b5876" stroke-width="2"/>
  <text x="1410" y="1382" font-family="Segoe UI, Arial, sans-serif" font-size="12" text-anchor="middle" fill="#203040">Change quantities or delete i...</text>
  <polygon points="1385,1000 1410,1025 1385,1050 1360,1025" fill="#fff7e0" stroke="#8a6d1f" stroke-width="2"/>
  <text x="1385" y="1072" font-family="Segoe UI, Arial, sans-serif" font-size="12" text-anchor="middle" fill="#203040">G5</text>
  <rect x="1620" y="1020" width="100" height="80" rx="12" ry="12" fill="#f6fbff" stroke="#2b5876" stroke-width="2"/>
  <text x="1670" y="1122" font-family="Segoe UI, Arial, sans-serif" font-size="12" text-anchor="middle" fill="#203040">Enter new shipping address</text>
  <rect x="1620" y="1180" width="100" height="80" rx="12" ry="12" fill="#f6fbff" stroke="#2b5876" stroke-width="2"/>
  <text x="1670" y="1282" font-family="Segoe UI, Arial, sans-serif" font-size="12" text-anchor="middle" fill="#203040">Edit exist shipping address</text>
  <polygon points="1925,2000 1950,2025 1925,2050 1900,2025" fill="#fff7e0" stroke="#8a6d1f" stroke-width="2"/>
  <text x="1925" y="2072" font-family="Segoe UI, Arial, sans-serif" font-size="12" text-anchor="middle" fill="#203040">G6</text>
  <rect x="2160" y="2060" width="100" height="80" rx="12" ry="12" fill="#f6fbff" stroke="#2b5876" stroke-width="2"/>
  <text x="2210" y="2162" font-family="Segoe UI, Arial, sans-serif" font-size="12" text-anchor="middle" fill="#203040">Amazon.com Store Card</text>
  <polygon points="1925,1040 1950,1065 1925,1090 1900,1065" fill="#fff7e0" stroke="#8a6d1f" stroke-width="2"/>
  <text x="1925" y="1112" font-family="Segoe UI, Arial, sans-serif" font-size="12" text-anchor="middle" fill="#203040">XORCLOSE17</text>
  <polygon points="1645,940 1670,965 1645,990 1620,965" fill="#fff7e0" stroke="#8a6d1f" stroke-width="2"/>
  <text x="1645" y="1012" font-family="Segoe UI, Arial, sans-serif" font-size="12" text-anchor="middle" fill="#203040">XORCLOSE18</text>
  <polygon points="2185,2320 2210,2345 2185,2370 2160,2345" fill="#fff7e0" stroke="#8a6d1f" stroke-width="2"/>
  <text x="2185" y="2392" font-family="Segoe UI, Arial, sans-serif" font-size="12" text-anchor="middle" fill="#203040">G7</text>
  <rect x="2440" y="2380" width="100" height="80" rx="12" ry="12" fill="#f6fbff" stroke="#2b5876" stroke-width="2"/>
  <text x="2490" y="2482" font-family="Segoe UI, Arial, sans-serif" font-size="12" text-anchor="middle" fill="#203040">Checking Account</text>
  <rect x="2440" y="2540" width="100" height="80" rx="12" ry="12" fill="#f6fbff" stroke="#2b5876" stroke-width="2"/>
  <text x="2490" y="2642" font-family="Segoe UI, Arial, sans-serif" font-size="12" text-anchor="middle" fill="#203040">Gift Cards &amp; Promotional ...</text>
  <polygon points="1925,1080 1950,1105 1925,1130 1900,1105" fill="#fff7e0" stroke="#8a6d1f" stroke-width="2"/>
  <text x="1925" y="1152" font-family="Segoe UI, Arial, sans-serif" font-size="12" text-anchor="middle" fill="#203040">PAR</text>
  <polygon points="2725,2380 2750,2405 2725,2430 2700,2405" fill="#fff7e0" stroke="#8a6d1f" stroke-width="2"/>
  <text x="2725" y="2452" font-family="Segoe UI, Arial, sans-serif" font-size="12" text-anchor="middle" fill="#203040">XORCLOSE25</text>
  <rect x="2160" y="1060" width="100" height="80" rx="12" ry="12" fill="#f6fbff" stroke="#2b5876" stroke-width="2"/>
  <text x="2210" y="1162" font-family="Segoe UI, Arial, sans-serif" font-size="12" text-anchor="middle" fill="#203040">Choose shipping detail</text>
  <rect x="2160" y="1220" width="100" height="80" rx="12" ry="12" fill="#f6fbff" stroke="#2b5876" stroke-width="2"/>
  <text x="2210" y="1322" font-family="Segoe UI, Arial, sans-serif" font-size="12" text-anchor="middle" fill="#203040">Place order</text>
  <polygon points="2465,2100 2490,2125 2465,2150 2440,2125" fill="#fff7e0" stroke="#8a6d1f" stroke-width="2"/>
  <text x="2465" y="2172" font-family="Segoe UI, Arial, sans-serif" font-size="12" text-anchor="middle" fill="#203040">XORCLOSE28</text>
  <rect x="2440" y="1020" width="100" height="80" rx="12" ry="12" fill="#f6fbff" stroke="#2b5876" stroke-width="2"/>
  <text x="2490" y="1122" font-family="Segoe UI, Arial, sans-serif" font-size="12" text-anchor="middle" fill="#203040">Choose a shipping speed</text>
  <polygon points="2465,1300 2490,1325 2465,1350 2440,1325" fill="#fff7e0" stroke="#8a6d1f" stroke-width="2"/>
  <text x="2465" y="1372" font-family="Segoe UI, Arial, sans-serif" font-size="12" text-anchor="middle" fill="#203040">PAR</text>
  <rect x="2700" y="1240" width="100" height="80" rx="12" ry="12" fill="#f6fbff" stroke="#2b5876" stroke-width="2"/>
  <text x="2750" y="1342" font-family="Segoe UI, Arial, sans-serif" font-size="12" text-anchor="middle" fill="#203040">Choose a shipping preference</text>
  <rect x="2700" y="1400" width="100" height="80" rx="12" ry="12" fill="#f6fbff" stroke="#2b5876" stroke-width="2"/>
  <text x="2750" y="1502" font-family="Segoe UI, Arial, sans-serif" font-size="12" text-anchor="middle" fill="#203040">Place order in default currency</text>
  <polygon points="2185,1740 2210,1765 2185,1790 2160,1765" fill="#fff7e0" stroke="#8a6d1f" stroke-width="2"/>
  <text x="2185" y="1812" font-family="Segoe UI, Arial, sans-serif" font-size="12" text-anchor="middle" fill="#203040">XORCLOSE33</text>
  <polygon points="3005,1240 3030,1265 3005,1290 2980,1265" fill="#fff7e0" stroke="#8a6d1f" stroke-width="2"/>
  <text x="3005" y="1312" font-family="Segoe UI, Arial, sans-serif" font-size="12" text-anchor="middle" fill="#203040">PARCLOSE34</text>
  <polygon points="1645,1520 1670,1545 1645,1570 1620,1545" fill="#fff7e0" stroke="#8a6d1f" stroke-width="2"/>
  <text x="1645" y="1592" font-family="Segoe UI, Arial, sans-serif" font-size="12" text-anchor="middle" fill="#203040">PARCLOSE35</text>
  <polygon points="2725,1080 2750,1105 2725,1130 2700,1105" fill="#fff7e0" stroke="#8a6d1f" stroke-width="2"/>
  <text x="2725" y="1152" font-family="Segoe UI, Arial, sans-serif" font-size="12" text-anchor="middle" fill="#203040">PARCLOSE36</text>
  <rect x="1900" y="1200" width="100" height="80" rx="12" ry="12" fill="#f6fbff" stroke="#2b5876" stroke-width="2"/>
  <text x="1950" y="1302" font-family="Segoe UI, Arial, sans-serif" font-size="12" text-anchor="middle" fill="#203040">Review your order</text>
  <polygon points="2185,1060 2210,1085 2185,1110 2160,1085" fill="#fff7e0" stroke="#8a6d1f" stroke-width="2"/>
  <text x="2185" y="1132" font-family="Segoe UI, Arial, sans-serif" font-size="12" text-anchor="middle" fill="#203040">PARCLOSE38</text>
  <circle cx="2458" cy="938" r="18" fill="#ffffff" stroke="#203040" stroke-width="3"/>
  <text x="2458" y="978" font-family="Segoe UI, Arial, sans-serif" font-size="12" text-anchor="middle" fill="#203040">END_EVENT</text>
  <polygon points="1385,1260 1410,1285 1385,1310 1360,1285" fill="#fff7e0" stroke="#8a6d1f" stroke-width="2"/>
  <text x="1385" y="1332" font-family="Segoe UI, Arial, sans-serif" font-size="12" text-anchor="middle" fill="#203040">XOR_JMPAA_Select a payment me...</text>
  <polygon points="1645,1340 1670,1365 1645,1390 1620,1365" fill="#fff7e0" stroke="#8a6d1f" stroke-width="2"/>
  <text x="1645" y="1412" font-family="Segoe UI, Arial, sans-serif" font-size="12" text-anchor="middle" fill="#203040">XOR_JMPBB_Review your order</text>
</svg>
