<svg xmlns="http://www.w3.org/2000/svg" version="1.1"
     xmlns:xlink="http://www.w3.org/1999/xlink"
 width="3916" height="1700" viewBox="0 0 3916 1700">
  <defs>
    <marker id="arrow" markerWidth="10" markerHeight="10" refX="9" refY="3" orient="auto" markerUnits="strokeWidth">
      <path d="M0,0 L0,6 L9,3 z" fill="#55606c"/>
    </marker>
  </defs>
  <rect x="0" y="0" width="100%" height="100%" fill="#ffffff"/>
  <polyline fill="none" stroke="#55606c" stroke-width="2" marker-end="url(#arrow)" points="156,180 220,180 220,200 320,200"/>
  <polyline fill="none" stroke="#55606c" stroke-width="2" marker-end="url(#arrow)" points="420,200 500,200 500,280 600,280"/>
  <polyline fill="none" stroke="#55606c" stroke-width="2" marker-end="url(#arrow)" points="700,280 780,280 780,460 860,460"/>
  <polyline fill="none" stroke="#55606c" stroke-width="2" marker-end="url(#arrow)" points="910,460 980,460 980,480 1080,480"/>
  <polyline fill="none" stroke="#55606c" stroke-width="2" marker-end="url(#arrow)" points="910,480 1000,480 1000,640 1080,640"/>
  <polyline fill="none" stroke="#55606c" stroke-width="2" marker-end="url(#arrow)" points="1180,480 1260,480 1260,580 1360,580"/>
  <polyline fill="none" stroke="#55606c" stroke-width="2" marker-end="url(#arrow)" points="1410,580 1480,580 1480,560 1580,560"/>
  <polyline fill="none" stroke="#55606c" stroke-width="2" marker-end="url(#arrow)" points="1410,600 1500,600 1500,720 1580,720"/>
  <polyline fill="none" stroke="#55606c" stroke-width="2" marker-end="url(#arrow)" points="1680,560 1840,560"/>
  <polyline fill="none" stroke="#55606c" stroke-width="2" marker-end="url(#arrow)" points="1680,720 1760,720 1760,760 1840,760"/>
  <polyline fill="none" stroke="#55606c" stroke-width="2" marker-end="url(#arrow)" points="1180,640 1260,640 1260,840 1360,840"/>
  <polyline fill="none" stroke="#55606c" stroke-width="2" marker-end="url(#arrow)" points="1940,560 2020,560 2020,720 2120,720"/>
  <polyline fill="none" stroke="#55606c" stroke-width="2" marker-end="url(#arrow)" points="1940,760 2020,760 2020,860 2120,860"/>
  <polyline fill="none" stroke="#55606c" stroke-width="2" marker-end="url(#arrow)" points="1410,840 1520,840 1520,880 1580,880"/>
  <polyline fill="none" stroke="#55606c" stroke-width="2" marker-end="url(#arrow)" points="1410,860 1540,860 1540,1040 1580,1040"/>
  <polyline fill="none" stroke="#55606c" stroke-width="2" marker-end="url(#arrow)" points="1680,880 1780,880 1780,920 1840,920"/>
  <polyline fill="none" stroke="#55606c" stroke-width="2" marker-end="url(#arrow)" points="1680,1040 1800,1040 1800,940 1840,940"/>
  <polyline fill="none" stroke="#55606c" stroke-width="2" marker-end="url(#arrow)" points="2220,720 2300,720 2300,920 2380,920"/>
  <polyline fill="none" stroke="#55606c" stroke-width="2" marker-end="url(#arrow)" points="1890,920 2000,920 2000,880 2120,880"/>
  <polyline fill="none" stroke="#55606c" stroke-width="2" marker-end="url(#arrow)" points="2430,920 2500,920 2500,940 2600,940"/>
  <polyline fill="none" stroke="#55606c" stroke-width="2" marker-end="url(#arrow)" points="2430,940 2520,940 2520,1100 2600,1100"/>
  <polyline fill="none" stroke="#55606c" stroke-width="2" marker-end="url(#arrow)" points="2700,940 2780,940 2780,960 2880,960"/>
  <polyline fill="none" stroke="#55606c" stroke-width="2" marker-end="url(#arrow)" points="2700,1100 2780,1100 2780,1120 2880,1120"/>
  <polyline fill="none" stroke="#55606c" stroke-width="2" marker-end="url(#arrow)" points="2220,880 2300,880 2300,760 2380,760"/>
  <polyline fill="none" stroke="#55606c" stroke-width="2" marker-end="url(#arrow)" points="2980,960 3060,960 3060,1040 3140,1040"/>
  <polyline fill="none" stroke="#55606c" stroke-width="2" marker-end="url(#arrow)" points="2980,1120 3060,1120 3060,1200 3140,1200"/>
  <polyline fill="none" stroke="#55606c" stroke-width="2" marker-end="url(#arrow)" points="3240,1040 3320,1040 3320,1080 3420,1080"/>
  <polyline fill="none" stroke="#55606c" stroke-width="2" marker-end="url(#arrow)" points="3240,1200 3320,1200 3320,1100 3420,1100"/>
  <polyline fill="none" stroke="#55606c" stroke-width="2" marker-end="url(#arrow)" points="3470,1080 3520,1080 3520,1340 2080,1340 2080,880 2120,880"/>
  <polyline fill="none" stroke="#55606c" stroke-width="2" marker-end="url(#arrow)" points="2170,860 2280,860 2280,780 2380,780"/>
  <polyline fill="none" stroke="#55606c" stroke-width="2" marker-end="url(#arrow)" points="2430,760 2540,760 2540,540 2600,540"/>
  <polyline fill="none" stroke="#55606c" stroke-width="2" marker-end="url(#arrow)" points="2700,540 2800,540 2800,360 2880,360"/>
  <polyline fill="none" stroke="#55606c" stroke-width="2" marker-end="url(#arrow)" points="2980,360 3080,360 3080,240 3140,240"/>
  <polyline fill="none" stroke="#55606c" stroke-width="2" marker-end="url(#arrow)" points="3240,240 3340,240 3340,180 3420,180"/>
  <polyline fill="none" stroke="#55606c" stroke-width="2" marker-end="url(#arrow)" points="3520,180 3600,180 3600,160 3680,160"/>
  <circle cx="138" cy="178" r="18" fill="#ffffff" stroke="#203040" stroke-width="3"/>
  <text x="138" y="218" font-family="Segoe UI, Arial, sans-serif" font-size="12" text-anchor="middle" fill="#203040">Default_init</text>
  <rect x="320" y="160" width="100" height="80" rx="12" ry="12" fill="#f6fbff" stroke="#2b5876" stroke-width="2"/>
  <text x="370" y="262" font-family="Segoe UI, Arial, sans-serif" font-size="12" text-anchor="middle" fill="#203040">Approve Script</text>
  <rect x="600" y="240" width="100" height="80" rx="12" ry="12" fill="#f6fbff" stroke="#2b5876" stroke-width="2"/>
  <text x="650" y="342" font-family="Segoe UI, Arial, sans-serif" font-size="12" text-anchor="middle" fill="#203040">Search Locations</text>
  <polygon points="885,440 910,465 885,490 860,465" fill="#fff7e0" stroke="#8a6d1f" stroke-width="2"/>
  <text x="885" y="512" font-family="Segoe UI, Arial, sans-serif" font-size="12" text-anchor="middle" fill="#203040">PAR</text>
  <rect x="1080" y="440" width="100" height="80" rx="12" ry="12" fill="#f6fbff" stroke="#2b5876" stroke-width="2"/>
  <text x="1130" y="542" font-family="Segoe UI, Arial, sans-serif" font-size="12" text-anchor="middle" fill="#203040">Begin Casting</text>
  <polygon points="1385,560 1410,585 1385,610 1360,585" fill="#fff7e0" stroke="#8a6d1f" stroke-width="2"/>
  <text x="1385" y="632" font-family="Segoe UI, Arial, sans-serif" font-size="12" text-anchor="middle" fill="#203040">PAR</text>
  <rect x="1580" y="520" width="100" height="80" rx="12" ry="12" fill="#f6fbff" stroke="#2b5876" stroke-width="2"/>
  <text x="1630" y="622" font-family="Segoe UI, Arial, sans-serif" font-size="12" text-anchor="middle" fill="#203040">Detail Script Scenes</text>
  <rect x="1580" y="680" width="100" height="80" rx="12" ry="12" fill="#f6fbff" stroke="#2b5876" stroke-width="2"/>
  <text x="1630" y="782" font-family="Segoe UI, Arial, sans-serif" font-size="12" text-anchor="middle" fill="#203040">Hire Suppliers</text>
  <rect x="1080" y="600" width="100" height="80" rx="12" ry="12" fill="#f6fbff" stroke="#2b5876" stroke-width="2"/>
  <text x="1130" y="702" font-family="Segoe UI, Arial, sans-serif" font-size="12" text-anchor="middle" fill="#203040">Rehearse Scenes</text>
  <rect x="1840" y="520" width="100" height="80" rx="12" ry="12" fill="#f6fbff" stroke="#2b5876" stroke-width="2"/>
  <text x="1890" y="622" font-family="Segoe UI, Arial, sans-serif" font-size="12" text-anchor="middle" fill="#203040">Adjust Script</text>
  <rect x="1840" y="720" width="100" height="80" rx="12" ry="12" fill="#f6fbff" stroke="#2b5876" stroke-width="2"/>
  <text x="1890" y="822" font-family="Segoe UI, Arial, sans-serif" font-size="12" text-anchor="middle" fill="#203040">Construct Stage</text>
  <polygon points="1385,820 1410,845 1385,870 1360,845" fill="#fff7e0" stroke="#8a6d1f" stroke-width="2"/>
  <text x="1385" y="892" font-family="Segoe UI, Arial, sans-serif" font-size="12" text-anchor="middle" fill="#203040">PAR</text>
  <rect x="1580" y="840" width="100" height="80" rx="12" ry="12" fill="#f6fbff" stroke="#2b5876" stroke-width="2"/>
  <text x="1630" y="942" font-family="Segoe UI, Arial, sans-serif" font-size="12" text-anchor="middle" fill="#203040">Compose Soundtrack</text>
  <rect x="1580" y="1000" width="100" height="80" rx="12" ry="12" fill="#f6fbff" stroke="#2b5876" stroke-width="2"/>
  <text x="1630" y="1102" font-family="Segoe UI, Arial, sans-serif" font-size="12" text-anchor="middle" fill="#203040">Produce Costumes</text>
  <rect x="2120" y="680" width="100" height="80" rx="12" ry="12" fill="#f6fbff" stroke="#2b5876" stroke-width="2"/>
  <text x="2170" y="782" font-family="Segoe UI, Arial, sans-serif" font-size="12" text-anchor="middle" fill="#203040">Additional Filming</text>
  <polygon points="1865,900 1890,925 1865,950 1840,925" fill="#fff7e0" stroke="#8a6d1f" stroke-width="2"/>
  <text x="1865" y="972" font-family="Segoe UI, Arial, sans-serif" font-size="12" text-anchor="middle" fill="#203040">PARCLOSE17</text>
  <polygon points="2405,900 2430,925 2405,950 2380,925" fill="#fff7e0" stroke="#8a6d1f" stroke-width="2"/>
  <text x="2405" y="972" font-family="Segoe UI, Arial, sans-serif" font-size="12" text-anchor="middle" fill="#203040">PAR</text>
  <rect x="2600" y="900" width="100" height="80" rx="12" ry="12" fill="#f6fbff" stroke="#2b5876" stroke-width="2"/>
  <text x="2650" y="1002" font-family="Segoe UI, Arial, sans-serif" font-size="12" text-anchor="middle" fill="#203040">Film Scenes</text>
  <rect x="2600" y="1060" width="100" height="80" rx="12" ry="12" fill="#f6fbff" stroke="#2b5876" stroke-width="2"/>
  <text x="2650" y="1162" font-family="Segoe UI, Arial, sans-serif" font-size="12" text-anchor="middle" fill="#203040">Negotiate with Festivals</text>
  <rect x="2120" y="840" width="100" height="80" rx="12" ry="12" fill="#f6fbff" stroke="#2b5876" stroke-width="2"/>
  <text x="2170" y="942" font-family="Segoe UI, Arial, sans-serif" font-size="12" text-anchor="middle" fill="#203040">Prepare Filming Equipment</text>
  <rect x="2880" y="920" width="100" height="80" rx="12" ry="12" fill="#f6fbff" stroke="#2b5876" stroke-width="2"/>
  <text x="2930" y="1022" font-family="Segoe UI, Arial, sans-serif" font-size="12" text-anchor="middle" fill="#203040">Produce Visual Effects</text>
  <rect x="2880" y="1080" width="100" height="80" rx="12" ry="12" fill="#f6fbff" stroke="#2b5876" stroke-width="2"/>
  <text x="2930" y="1182" font-family="Segoe UI, Arial, sans-serif" font-size="12" text-anchor="middle" fill="#203040">Produce Promotional Material</text>
  <rect x="3140" y="1000" width="100" height="80" rx="12" ry="12" fill="#f6fbff" stroke="#2b5876" stroke-width="2"/>
  <text x="3190" y="1102" font-family="Segoe UI, Arial, sans-serif" font-size="12" text-anchor="middle" fill="#203040">Preliminary Editing</text>
  <rect x="3140" y="1160" width="100" height="80" rx="12" ry="12" fill="#f6fbff" stroke="#2b5876" stroke-width="2"/>
  <text x="3190" y="1262" font-family="Segoe UI, Arial, sans-serif" font-size="12" text-anchor="middle" fill="#203040">Distribute Movie</text>
  <polygon points="3445,1060 3470,1085 3445,1110 3420,1085" fill="#fff7e0" stroke="#8a6d1f" stroke-width="2"/>
  <text x="3445" y="1132" font-family="Segoe UI, Arial, sans-serif" font-size="12" text-anchor="middle" fill="#203040">PARCLOSE27</text>
  <polygon points="2145,840 2170,865 2145,890 2120,865" fill="#fff7e0" stroke="#8a6d1f" stroke-width="2"/>
  <text x="2145" y="912" font-family="Segoe UI, Arial, sans-serif" font-size="12" text-anchor="middle" fill="#203040">PARCLOSE28</text>
  <polygon points="2405,740 2430,765 2405,790 2380,765" fill="#fff7e0" stroke="#8a6d1f" stroke-width="2"/>
  <text x="2405" y="812" font-family="Segoe UI, Arial, sans-serif" font-size="12" text-anchor="middle" fill="#203040">PARCLOSE29</text>
  <rect x="2600" y="500" width="100" height="80" rx="12" ry="12" fill="#f6fbff" stroke="#2b5876" stroke-width="2"/>
  <text x="2650" y="602" font-family="Segoe UI, Arial, sans-serif" font-size="12" text-anchor="middle" fill="#203040">Advance Post-Production</text>
  <rect x="2880" y="320" width="100" height="80" rx="12" ry="12" fill="#f6fbff" stroke="#2b5876" stroke-width="2"/>
  <text x="2930" y="422" font-family="Segoe UI, Arial, sans-serif" font-size="12" text-anchor="middle" fill="#203040">Run Marketing Campaign</text>
  <rect x="3140" y="200" width="100" height="80" rx="12" ry="12" fill="#f6fbff" stroke="#2b5876" stroke-width="2"/>
  <text x="3190" y="302" font-family="Segoe UI, Arial, sans-serif" font-size="12" text-anchor="middle" fill="#203040">Final Sound Editing</text>
  <rect x="3420" y="140" width="100" height="80" rx="12" ry="12" fill="#f6fbff" stroke="#2b5876" stroke-width="2"/>
  <text x="3470" y="242" font-family="Segoe UI, Arial, sans-serif" font-size="12" text-anchor="middle" fill="#203040">Approve Final Version</text>
  <circle cx="3698" cy="158" r="18" fill="#ffffff" stroke="#203040" stroke-width="3"/>
  <text x="3698" y="198" font-family="Segoe UI, Arial, sans-serif" font-size="12" text-anchor="middle" fill="#203040">END_EVENT</text>
</svg>
